M48
;Layer_Color=9474304
;FILE_FORMAT=2:5
INCH
;TYPE=PLATED
T01F00S00C0.01181
T03F00S00C0.05512
T04F00S00C0.06299
;TYPE=NON_PLATED
T05F00S00C0.02559
%
T01
X-0030180Y-0034800
X-0027900
Y-0031900
X-0030180
X-0023180
X-0020900
Y-0034800
X-0023180
X-0025500Y-0017900
X-0025400Y-0015400
X-0027500Y-0010300
X-0029780
Y-0007400
X-0027500
X-0022780Y-0007500
X-0020500
Y-0010400
X-0022780
X-0013530Y-0014041
X-0011249
Y-0016941
X-0013530
X-0009068Y-0009302
X-0006794Y-0009292
X-0006780Y-0006990
X-0009105Y-0006995
X0000300Y-0006200
Y-0003920
Y-0001639
X0003000
Y-0003920
Y-0006200
X0005700
Y-0003920
Y-0001639
X0009400Y-0001665
X0009535Y-0004735
Y-0007065
X0012200Y-0007000
X0013765Y-0010065
X0014035Y-0013135
X0012300Y-0014900
X0016600Y-0015800
X0026800Y-0015600
X0028648Y-0006667
X0028994Y-0004468
X0023400Y-0001700
X0020200
X0009535Y-0012135
X0006500Y-0011900
X0003600
Y-0014900
X0000700
X0001100Y-0012500
X0028200Y-0028920
Y-0031200
Y-0033480
X0028780Y-0037868
X0026500
X0024220
Y-0035168
Y-0040568
X0026500
X0028780
X0030900Y-0033480
Y-0031200
Y-0028920
X0033600
Y-0031200
Y-0033480
X0034000Y-0016100
X0030313Y-0015895
X0031165Y-0006765
X0036400Y-0004500
X0036636Y-0000700
X0036572Y-0009828
X0036400Y0003000
X0034200Y0005000
X0034141Y0007253
X0034200Y0009500
X0031784Y0007218
X0033593Y0022895
X0034130Y0025580
Y0028363
X0033593Y0031048
X0024276Y0040364
X0021591Y0040902
X0018808
X0016123Y0040364
X0006807Y0031048
X0006269Y0028363
Y0025580
X0006807Y0022895
X-0004100Y0027220
Y0029500
X-0006800
Y0027220
X-0009500
Y0029500
Y0032920
Y0035200
Y0037480
X-0006800
Y0035200
Y0032920
X-0004100
Y0035200
Y0037480
X-0005928Y0019928
Y0017072
X-0006200Y0010580
Y0008300
X-0008495
Y0010580
X-0008205Y0005700
Y0003420
X-0010500
Y0005700
X0000300Y0006120
Y0003839
X0003000
Y0006120
Y0008400
X0005700
Y0006120
Y0003839
X0009351Y0004479
X0009400Y0007000
X0011665Y0007135
X0014600Y0007600
X0016800Y0007500
X0015700Y0004800
X0012840Y0004685
X0020100Y0001800
X0023400Y0001700
X0026400Y0007000
X0028765Y0007035
X0024276Y0013578
X0016123
X0000300Y0008400
T03
X0020200Y0026971
T04
X0030200Y0016972
Y0036972
X0010200
Y0016972
T05
X-0018657Y0008422
Y0031178
M30
