G04*
G04 #@! TF.GenerationSoftware,Altium Limited,Altium Designer,26.5.0 (11)*
G04*
G04 Layer_Physical_Order=1*
G04 Layer_Color=255*
G04 Board_Origin=43966378|46889134*
%FSAX25Y25*%
%MOIN*%
G70*
G04*
G04 #@! TF.SameCoordinates,57F83437-8FD5-4720-90E9-F1E7D8C2B116*
G04*
G04*
G04 #@! TF.FilePolarity,Positive*
G04*
G01*
G75*
%ADD11C,0.01000*%
%ADD16R,0.04200X0.05500*%
%ADD17R,0.02047X0.02205*%
%ADD18R,0.01772X0.02165*%
%ADD19O,0.02362X0.00787*%
%ADD20O,0.00787X0.02362*%
%ADD21R,0.02165X0.01772*%
%ADD22R,0.02205X0.02047*%
%ADD23R,0.07480X0.06496*%
%ADD24R,0.07087X0.07874*%
%ADD25R,0.02500X0.05000*%
%ADD26R,0.05906X0.05906*%
%ADD27R,0.04528X0.01181*%
%ADD44C,0.02000*%
%ADD45C,0.00800*%
%ADD46C,0.01400*%
%ADD47C,0.01500*%
%ADD48C,0.01800*%
%ADD49C,0.01200*%
%ADD50C,0.00700*%
%ADD51R,0.07219X0.06465*%
%ADD52R,0.04488X0.06860*%
%ADD53R,0.01772X0.04969*%
%ADD54R,0.02205X0.06888*%
%ADD55R,0.02205X0.04102*%
%ADD56R,0.03802X0.03902*%
%ADD57R,0.02665X0.02265*%
%ADD58O,0.07087X0.03937*%
%ADD59O,0.08268X0.03937*%
%ADD60C,0.09843*%
%ADD61C,0.09055*%
%ADD62C,0.01772*%
G36*
X0017914Y0009983D02*
Y0008565D01*
X0019141Y0007338D01*
Y0004921D01*
X0018396D01*
X0016818Y0006500D01*
X0013712D01*
Y0010402D01*
X0017494D01*
X0017914Y0009983D01*
D02*
G37*
G36*
X0029788Y0006512D02*
X0032188Y0004112D01*
Y0001898D01*
X0030141D01*
X0029971Y0002068D01*
X0026949D01*
X0024259Y0004758D01*
Y0006659D01*
X0025786Y0008186D01*
Y0010383D01*
X0029788Y0010402D01*
Y0006512D01*
D02*
G37*
G36*
X0032188Y-0003398D02*
Y-0007312D01*
X0031800Y-0007700D01*
X0028200D01*
X0026000Y-0005500D01*
Y-0003017D01*
X0026458Y-0002559D01*
X0031350D01*
X0032188Y-0003398D01*
D02*
G37*
G36*
X0035433Y0042504D02*
X0035742D01*
X0036347Y0042384D01*
X0036918Y0042148D01*
X0037431Y0041805D01*
X0037868Y0041368D01*
X0038211Y0040855D01*
X0038447Y0040284D01*
X0038567Y0039679D01*
X0038567Y0039370D01*
X0038567Y-0008675D01*
X0037867Y-0008888D01*
X0037725Y-0008675D01*
X0037196Y-0008321D01*
X0036572Y-0008197D01*
X0034000D01*
X0033517Y-0008293D01*
X0033115D01*
X0032962Y-0008122D01*
X0032721Y-0007593D01*
X0032838Y-0007312D01*
Y-0003493D01*
X0032838Y-0003398D01*
X0032788Y-0002798D01*
X0032414Y-0002263D01*
Y0000762D01*
X0032788Y0001298D01*
X0032838Y0001898D01*
X0032838Y0001994D01*
Y0004112D01*
X0032788Y0004231D01*
Y0004702D01*
X0032516D01*
X0030438Y0006781D01*
Y0010402D01*
X0030437Y0010404D01*
X0030438Y0010406D01*
X0030388Y0011002D01*
X0029788Y0011052D01*
X0029788Y0011052D01*
X0029785Y0011052D01*
X0029708Y0011051D01*
X0025865Y0011033D01*
X0025783Y0011032D01*
X0025560Y0011014D01*
X0025186Y0010983D01*
X0024614D01*
Y0010983D01*
X0023389D01*
Y0014689D01*
X0024296Y0014932D01*
X0025836Y0015570D01*
X0027280Y0016404D01*
X0028603Y0017418D01*
X0029781Y0018597D01*
X0030796Y0019920D01*
X0031630Y0021363D01*
X0032267Y0022903D01*
X0032699Y0024513D01*
X0032917Y0026166D01*
Y0027833D01*
X0032699Y0029486D01*
X0032267Y0031096D01*
X0031630Y0032636D01*
X0030796Y0034080D01*
X0029781Y0035402D01*
X0028603Y0036581D01*
X0027280Y0037596D01*
X0025836Y0038429D01*
X0024296Y0039067D01*
X0022686Y0039499D01*
X0021034Y0039716D01*
X0019366D01*
X0017714Y0039499D01*
X0016104Y0039067D01*
X0014564Y0038429D01*
X0013120Y0037596D01*
X0011797Y0036581D01*
X0010619Y0035402D01*
X0009604Y0034080D01*
X0008770Y0032636D01*
X0008133Y0031096D01*
X0007701Y0029486D01*
X0007484Y0027833D01*
Y0026166D01*
X0007701Y0024513D01*
X0008133Y0022903D01*
X0008770Y0021363D01*
X0009604Y0019920D01*
X0010619Y0018597D01*
X0011797Y0017418D01*
X0013120Y0016404D01*
X0014564Y0015570D01*
X0016104Y0014932D01*
X0017008Y0014690D01*
Y0011052D01*
X0013712D01*
X0013592Y0011002D01*
X0013112D01*
Y0010522D01*
X0013062Y0010402D01*
Y0006500D01*
X0013248Y0006052D01*
X0013264Y0006036D01*
X0013650Y0005876D01*
X0016424D01*
X0016450Y0005851D01*
X0016549D01*
X0017798Y0004602D01*
X0017811Y0004533D01*
X0018031Y0004205D01*
X0018360Y0003985D01*
X0018747Y0003908D01*
X0019135Y0003985D01*
X0019464Y0004205D01*
X0019999D01*
X0020328Y0003985D01*
X0020716Y0003908D01*
X0021103Y0003985D01*
X0021432Y0004205D01*
X0021968D01*
X0022297Y0003985D01*
X0022684Y0003908D01*
X0023072Y0003985D01*
X0023150Y0004038D01*
X0023496Y0004177D01*
X0024103Y0003996D01*
X0025949Y0002150D01*
X0025905Y0001701D01*
X0025685Y0001372D01*
X0025608Y0000984D01*
X0025685Y0000597D01*
X0025905Y0000268D01*
Y-0000268D01*
X0025685Y-0000597D01*
X0025608Y-0000984D01*
X0025685Y-0001372D01*
X0025738Y-0001450D01*
X0025877Y-0001796D01*
X0025696Y-0002403D01*
X0025541Y-0002558D01*
X0025351Y-0003017D01*
Y-0003415D01*
X0024653Y-0003908D01*
X0024265Y-0003985D01*
X0023936Y-0004205D01*
X0023401D01*
X0023072Y-0003985D01*
X0022684Y-0003908D01*
X0022297Y-0003985D01*
X0021968Y-0004205D01*
X0021432D01*
X0021103Y-0003985D01*
X0020716Y-0003908D01*
X0020328Y-0003985D01*
X0020250Y-0004038D01*
X0019892Y-0004182D01*
X0019370Y-0004068D01*
X0018910Y-0003878D01*
X0018573D01*
X0018522Y-0003899D01*
X0017921Y-0003577D01*
X0017822Y-0003445D01*
Y-0002790D01*
X0017632Y-0002331D01*
X0017401Y-0002100D01*
X0016942Y-0001910D01*
X0014530D01*
X0014071Y-0002100D01*
X0013108Y-0003062D01*
X0008981D01*
X0007390Y-0001471D01*
Y-0000672D01*
X0007340Y-0000552D01*
Y-0000072D01*
X0006859D01*
X0006740Y-0000022D01*
X-0000740D01*
X-0000860Y-0000072D01*
X-0001340D01*
Y-0000552D01*
X-0001390Y-0000672D01*
Y-0007660D01*
X-0001199Y-0008119D01*
X0000503Y-0009822D01*
X0000639Y-0009983D01*
X0000587Y-0010695D01*
X-0000859Y-0012141D01*
X-0001049Y-0012600D01*
Y-0040000D01*
X-0000859Y-0040459D01*
X0000486Y-0041804D01*
X0000196Y-0042504D01*
X-0035433Y-0042504D01*
X-0035742D01*
X-0036347Y-0042384D01*
X-0036918Y-0042148D01*
X-0037431Y-0041805D01*
X-0037868Y-0041368D01*
X-0038211Y-0040855D01*
X-0038447Y-0040284D01*
X-0038567Y-0039679D01*
X-0038567Y-0039370D01*
X-0038567Y0039370D01*
Y0039679D01*
X-0038447Y0040284D01*
X-0038211Y0040855D01*
X-0037868Y0041368D01*
X-0037431Y0041805D01*
X-0036918Y0042148D01*
X-0036347Y0042384D01*
X-0035742Y0042504D01*
X-0035433Y0042504D01*
X0035433Y0042504D01*
D02*
G37*
G36*
X0006740Y-0001740D02*
X0008712Y-0003712D01*
X0013377D01*
X0014530Y-0002559D01*
X0016942D01*
X0017173Y-0002790D01*
Y-0004828D01*
X0013922Y-0008078D01*
X0012510D01*
X0011088Y-0009500D01*
X0001100D01*
X-0000740Y-0007660D01*
Y-0000672D01*
X0006740D01*
Y-0001740D01*
D02*
G37*
G36*
X0025047Y-0005510D02*
X0028479Y-0008942D01*
X0035083D01*
X0035083Y-0010714D01*
X0034709Y-0011088D01*
X0025698D01*
Y-0009041D01*
X0024259Y-0007602D01*
Y-0004921D01*
X0025047D01*
Y-0005510D01*
D02*
G37*
G36*
X0019141Y-0004758D02*
Y-0007559D01*
X0017702Y-0008998D01*
Y-0011088D01*
X0015498D01*
Y-0007602D01*
X0018573Y-0004528D01*
X0018910D01*
X0019141Y-0004758D01*
D02*
G37*
G36*
X0038567Y-0010982D02*
Y-0039370D01*
Y-0039679D01*
X0038447Y-0040284D01*
X0038211Y-0040855D01*
X0037868Y-0041368D01*
X0037431Y-0041805D01*
X0036918Y-0042148D01*
X0036347Y-0042384D01*
X0035742Y-0042504D01*
X0035433Y-0042504D01*
X0021302D01*
X0020643Y-0042405D01*
X0020643Y-0041804D01*
Y-0033331D01*
X0012650D01*
X0012357Y-0033331D01*
X0011949Y-0032799D01*
Y-0026401D01*
X0012357Y-0025869D01*
X0012650Y-0025869D01*
X0020643D01*
Y-0017975D01*
X0020793Y-0017825D01*
X0020793Y-0017825D01*
X0021036Y-0017461D01*
X0021122Y-0017032D01*
X0021122Y-0017032D01*
Y-0014759D01*
X0022278D01*
Y-0017432D01*
X0022278Y-0017432D01*
X0022357Y-0017826D01*
Y-0025869D01*
X0030643D01*
Y-0016795D01*
X0024521D01*
Y-0014759D01*
X0025102D01*
Y-0012127D01*
X0025698Y-0011738D01*
X0031679D01*
X0032317Y-0011886D01*
X0032317Y-0012438D01*
Y-0014857D01*
X0032624D01*
Y-0015540D01*
X0032514Y-0015804D01*
Y-0016396D01*
X0032740Y-0016942D01*
X0033158Y-0017360D01*
X0033705Y-0017586D01*
X0034295D01*
X0034842Y-0017360D01*
X0035260Y-0016942D01*
X0035486Y-0016396D01*
Y-0015804D01*
X0035376Y-0015540D01*
Y-0014857D01*
X0035683D01*
Y-0012160D01*
X0035683Y-0011886D01*
X0036206Y-0011460D01*
X0036572D01*
X0037196Y-0011336D01*
X0037725Y-0010982D01*
X0037867Y-0010769D01*
X0038567Y-0010982D01*
D02*
G37*
G36*
X0011543Y-0010004D02*
X0011829Y-0010116D01*
X0012183Y-0010314D01*
X0012257Y-0010689D01*
X0012611Y-0011218D01*
X0013140Y-0011572D01*
X0013765Y-0011696D01*
X0015397D01*
X0015498Y-0011738D01*
X0017702D01*
X0018298Y-0012127D01*
Y-0014759D01*
X0018879D01*
Y-0016568D01*
X0018651Y-0016795D01*
X0012357D01*
Y-0017876D01*
X0012142Y-0017990D01*
X0011657Y-0018090D01*
X0010643Y-0017077D01*
Y-0016795D01*
X0010163D01*
X0010043Y-0016746D01*
X0008267D01*
X0008138Y-0016617D01*
Y-0011088D01*
X0008039Y-0010849D01*
X0008324Y-0010269D01*
X0008449Y-0010149D01*
X0011088D01*
X0011460Y-0009995D01*
X0011543Y-0010004D01*
D02*
G37*
G36*
X0007488Y-0011088D02*
Y-0016886D01*
X0007998Y-0017395D01*
X0010043D01*
X0011300Y-0018652D01*
Y-0041200D01*
X0010695Y-0041805D01*
X0001405D01*
X-0000400Y-0040000D01*
Y-0012600D01*
X0001400Y-0010800D01*
X0007200D01*
X0007488Y-0011088D01*
D02*
G37*
%LPC*%
G36*
X-0018283Y0033057D02*
X-0019030D01*
X-0019721Y0032771D01*
X-0020250Y0032243D01*
X-0020536Y0031552D01*
Y0030804D01*
Y0008796D01*
Y0007792D01*
X-0020430D01*
X-0020250Y0007357D01*
X-0019721Y0006829D01*
X-0019030Y0006543D01*
X-0018283D01*
X-0017592Y0006829D01*
X-0017063Y0007357D01*
X-0016883Y0007792D01*
X-0016728D01*
Y0008383D01*
X-0014464D01*
Y0008521D01*
X-0010939D01*
X-0009362Y0006943D01*
X-0008902Y0006753D01*
X-0005798D01*
X-0005529Y0006864D01*
X-0005338Y0006943D01*
X-0004816Y0007466D01*
X-0004625Y0007925D01*
Y0011080D01*
X-0004737Y0011349D01*
X-0004816Y0011539D01*
X-0005268Y0011992D01*
X-0005728Y0012182D01*
X-0007117D01*
Y0015014D01*
X-0009883D01*
Y0021986D01*
X-0007117D01*
Y0024958D01*
X-0007117D01*
X-0007101Y0025651D01*
X-0003700D01*
X-0003241Y0025841D01*
X-0002541Y0026541D01*
X-0002351Y0027000D01*
Y0030100D01*
X-0002541Y0030559D01*
X-0002871Y0030889D01*
X-0003330Y0031079D01*
X-0016186D01*
X-0016359Y0031217D01*
X-0016728D01*
Y0031512D01*
X-0016777Y0031552D01*
X-0016849Y0031726D01*
X-0017063Y0032243D01*
X-0017592Y0032771D01*
X-0018283Y0033057D01*
D02*
G37*
G36*
X0014257Y0003183D02*
X0011286D01*
Y-0000183D01*
X0014257D01*
Y-0000035D01*
X0015991D01*
X0016024Y-0000029D01*
X0016779D01*
X0017166Y0000048D01*
X0017495Y0000268D01*
X0017715Y0000597D01*
X0017792Y0000984D01*
X0017715Y0001372D01*
X0017495Y0001701D01*
X0017166Y0001920D01*
X0016779Y0001997D01*
X0016024D01*
X0015991Y0002004D01*
X0014257D01*
Y0003183D01*
D02*
G37*
G36*
X-0019600Y-0005001D02*
X-0023800D01*
X-0023919Y-0005050D01*
X-0024400D01*
Y-0005531D01*
X-0024449Y-0005650D01*
Y-0013000D01*
X-0024259Y-0013459D01*
X-0023549Y-0014169D01*
Y-0018821D01*
X-0023549Y-0018900D01*
X-0023500Y-0019500D01*
X-0023547Y-0020180D01*
X-0027253D01*
X-0027300Y-0019500D01*
X-0027300D01*
Y-0013300D01*
X-0031000D01*
Y-0019500D01*
X-0030170D01*
Y-0020450D01*
X-0030092Y-0020840D01*
X-0029871Y-0021171D01*
X-0029121Y-0021921D01*
X-0028790Y-0022142D01*
X-0028400Y-0022220D01*
X-0022500D01*
X-0022110Y-0022142D01*
X-0021779Y-0021921D01*
X-0020929Y-0021071D01*
X-0020708Y-0020740D01*
X-0020630Y-0020350D01*
Y-0019549D01*
X-0018600D01*
X-0018141Y-0019359D01*
X-0017141Y-0018359D01*
X-0016951Y-0017900D01*
Y-0013614D01*
X-0016511Y-0013321D01*
X-0009292D01*
X-0008833Y-0013130D01*
X-0008642Y-0012671D01*
Y-0006207D01*
X-0008833Y-0005747D01*
X-0009292Y-0005557D01*
X-0016511D01*
X-0016970Y-0005747D01*
X-0017161Y-0006207D01*
Y-0006256D01*
X-0017807Y-0006524D01*
X-0019000Y-0005332D01*
Y-0005050D01*
X-0019481D01*
X-0019600Y-0005001D01*
D02*
G37*
G36*
X-0027300Y-0023300D02*
X-0031000D01*
Y-0029500D01*
X-0027300D01*
Y-0023300D01*
D02*
G37*
G36*
X-0019700Y-0023151D02*
X-0024800D01*
X-0025259Y-0023341D01*
X-0026059Y-0024141D01*
X-0026249Y-0024600D01*
Y-0034650D01*
X-0026059Y-0035109D01*
X-0024700Y-0036468D01*
Y-0036750D01*
X-0024219D01*
X-0024100Y-0036799D01*
X-0019900D01*
X-0019781Y-0036750D01*
X-0019300D01*
Y-0036468D01*
X-0018241Y-0035409D01*
X-0018051Y-0034950D01*
Y-0024800D01*
X-0018241Y-0024341D01*
X-0019241Y-0023341D01*
X-0019700Y-0023151D01*
D02*
G37*
%LPD*%
G36*
X-0003000Y0030100D02*
Y0027000D01*
X-0003700Y0026300D01*
X-0010200D01*
X-0011968Y0028068D01*
X-0016728D01*
Y0030430D01*
X-0003330D01*
X-0003000Y0030100D01*
D02*
G37*
G36*
X-0005275Y0011080D02*
Y0007925D01*
X-0005798Y0007402D01*
X-0008902D01*
X-0010670Y0009170D01*
X-0016728D01*
Y0011532D01*
X-0005728D01*
X-0005275Y0011080D01*
D02*
G37*
G36*
X-0017600Y-0007650D02*
Y-0017900D01*
X-0018600Y-0018900D01*
X-0022900D01*
Y-0013900D01*
X-0023800Y-0013000D01*
Y-0005650D01*
X-0019600D01*
X-0017600Y-0007650D01*
D02*
G37*
G36*
X-0018700Y-0024800D02*
Y-0034950D01*
X-0019900Y-0036150D01*
X-0024100D01*
X-0025600Y-0034650D01*
Y-0024600D01*
X-0024800Y-0023800D01*
X-0019700D01*
X-0018700Y-0024800D01*
D02*
G37*
D11*
X0023400Y-0017432D02*
X0026500Y-0020532D01*
X0023400Y-0017432D02*
Y-0013135D01*
X0016500Y-0020532D02*
X0020000Y-0017032D01*
Y-0013135D01*
D16*
X-0022000Y-0033400D02*
D03*
X-0029000D02*
D03*
X-0021700Y-0008400D02*
D03*
X-0028700D02*
D03*
D17*
X0028765Y0009300D02*
D03*
X0031165Y-0004500D02*
D03*
Y0003000D02*
D03*
X0014735Y0009300D02*
D03*
X0006465Y-0014900D02*
D03*
X0031835Y0009300D02*
D03*
X0034235Y-0004500D02*
D03*
X0011665Y0009300D02*
D03*
X0034235Y0003000D02*
D03*
X0009535Y-0014900D02*
D03*
D18*
X0026672Y0009300D02*
D03*
X0016628D02*
D03*
X0020172D02*
D03*
X0030928Y-0000700D02*
D03*
X0034472D02*
D03*
X0009228Y0001500D02*
D03*
X0023128Y0009300D02*
D03*
X0012772Y0001500D02*
D03*
D19*
X0027409Y0002953D02*
D03*
Y-0002953D02*
D03*
X0015991D02*
D03*
Y0000984D02*
D03*
X0027409D02*
D03*
Y-0000984D02*
D03*
X0015991D02*
D03*
Y0002953D02*
D03*
D20*
X0024653Y0005709D02*
D03*
X0018747D02*
D03*
X0020716D02*
D03*
X0022684D02*
D03*
X0024653Y-0005709D02*
D03*
X0022684D02*
D03*
X0020716D02*
D03*
X0018747D02*
D03*
D21*
X0034000Y-0013372D02*
D03*
X-0008800Y0013528D02*
D03*
Y0023472D02*
D03*
X0030300Y-0013372D02*
D03*
X-0008800Y0019928D02*
D03*
Y0017072D02*
D03*
X0020200Y0015843D02*
D03*
Y0012300D02*
D03*
X0034000Y-0009828D02*
D03*
X0030300Y-0009828D02*
D03*
D22*
X0012200Y-0004735D02*
D03*
X0020200Y0021107D02*
D03*
Y0018036D02*
D03*
X0012200Y-0001665D02*
D03*
X0026800Y-0013135D02*
D03*
X0016600D02*
D03*
X0023400Y-0010065D02*
D03*
Y-0013135D02*
D03*
X0020000Y-0010065D02*
D03*
Y-0013135D02*
D03*
X0016600Y-0010065D02*
D03*
X0026800D02*
D03*
D23*
X0003000Y-0003920D02*
D03*
Y0006120D02*
D03*
D24*
X0006500Y-0021332D02*
D03*
Y-0037868D02*
D03*
X0026500D02*
D03*
X0016500Y-0021332D02*
D03*
X0026500D02*
D03*
X0016500Y-0037868D02*
D03*
D25*
X-0021650Y-0026400D02*
D03*
Y-0016400D02*
D03*
X-0029150D02*
D03*
X-0025450D02*
D03*
X-0029150Y-0026400D02*
D03*
D26*
X0021700Y0000000D02*
D03*
D27*
X-0014464Y0032989D02*
D03*
Y0031808D02*
D03*
Y0029839D02*
D03*
Y0028658D02*
D03*
Y0026690D02*
D03*
Y0024721D02*
D03*
Y0022753D02*
D03*
Y0020784D02*
D03*
Y0018816D02*
D03*
Y0016847D02*
D03*
Y0014879D02*
D03*
Y0012910D02*
D03*
Y0010942D02*
D03*
Y0009761D02*
D03*
Y0007792D02*
D03*
Y0006611D02*
D03*
D44*
X0009228Y-0001665D02*
Y0004357D01*
X0010228Y0007135D02*
X0011665D01*
X0010228D02*
X0010228D01*
X0009228Y0006828D02*
X0009351Y0006706D01*
X0009228Y0004357D02*
X0009351Y0004479D01*
X0009351D02*
Y0006706D01*
X0009228Y0006828D02*
X0009400Y0007000D01*
X0009847Y0006753D02*
X0010228Y0007135D01*
X0032859Y0008535D02*
Y0009300D01*
Y0008535D02*
X0034000Y0007394D01*
X0031835Y0009300D02*
X0032035Y0009500D01*
X0034200D01*
X0034235Y0007394D02*
Y0009465D01*
X0034200Y0009500D02*
X0034235Y0009465D01*
X0034200Y0009325D02*
Y0009500D01*
X0034175Y0009300D02*
X0034200Y0009325D01*
X0031835Y0009300D02*
X0034175D01*
X0034193Y0004993D02*
X0034235Y0004950D01*
X0034235Y0003000D02*
Y0004950D01*
X0034193Y0004993D02*
X0034200Y0005000D01*
X0034200Y0007359D02*
X0034235Y0007394D01*
X0034200Y0005000D02*
Y0007359D01*
X0009535Y-0004735D02*
X0012200D01*
X0012200Y-0007000D02*
Y-0004735D01*
X0009535Y-0007065D02*
X0012135D01*
X0012200Y-0007000D01*
X0009535Y-0007065D02*
Y-0004735D01*
X0006465Y-0011935D02*
X0006500Y-0011900D01*
X0006465Y-0014900D02*
Y-0011935D01*
X0003600Y-0011900D02*
X0006500D01*
X0003600Y-0014900D02*
X0006465D01*
X0003600D02*
Y-0011900D01*
X0026800Y-0015600D02*
Y-0013135D01*
X0031784Y0007218D02*
X0033941D01*
X0031835Y0007270D02*
Y0009300D01*
X0031784Y0007218D02*
X0031835Y0007270D01*
X0013765Y-0010065D02*
X0016600D01*
X0034000Y-0009828D02*
X0036572D01*
X0034235Y-0004500D02*
X0036400D01*
X0034472Y-0000700D02*
X0036636D01*
X0034235Y0003000D02*
X0036400D01*
X0011665Y0005696D02*
Y0007135D01*
X0009400Y0009300D02*
X0011665D01*
X0011665Y0007135D02*
Y0009300D01*
X0009228Y-0001665D02*
X0009400D01*
X0009400D02*
X0012200D01*
D45*
X0012767Y0005065D02*
X0014879Y0002953D01*
X-0021650Y-0020350D02*
Y-0016400D01*
X-0022500Y-0021200D02*
X-0021650Y-0020350D01*
X-0028400Y-0021200D02*
X-0022500D01*
X-0029150Y-0020450D02*
X-0028400Y-0021200D01*
X-0029150Y-0020450D02*
Y-0016400D01*
X0022684Y-0009449D02*
X0023300Y-0010065D01*
X0020000D02*
X0020716Y-0009349D01*
X0020716D02*
Y-0005709D01*
X0022684Y-0009449D02*
Y-0005709D01*
X0030644Y-0000984D02*
X0030928Y-0000700D01*
X0027409Y-0000984D02*
X0030644D01*
X0014879Y0002953D02*
X0016191D01*
X0012200Y-0001665D02*
X0012880Y-0000984D01*
X0012880D02*
X0015991D01*
X0012200Y-0001489D02*
X0012507Y-0001183D01*
X0012200Y-0001665D02*
Y-0001489D01*
X0012772Y0000984D02*
Y0001500D01*
Y0000984D02*
X0015991D01*
D46*
X0028994Y-0004468D02*
X0029027Y-0004500D01*
X0029027D02*
X0031165D01*
X0014600Y0007600D02*
X0014735Y0007735D01*
X0014735D02*
Y0009300D01*
X0016628Y0007672D02*
Y0009300D01*
Y0007672D02*
X0016800Y0007500D01*
X0026672Y0007272D02*
Y0009300D01*
X0026400Y0007000D02*
X0026672Y0007272D01*
X0028765Y0007035D02*
Y0009300D01*
X0031165Y-0006765D02*
Y-0004500D01*
D47*
X0034000Y-0016100D02*
Y-0013372D01*
D48*
X-0008800Y0019928D02*
X-0005928D01*
X-0008800Y0017072D02*
X-0005928D01*
X0009535Y-0014900D02*
Y-0012135D01*
X0014035Y-0013135D02*
X0016600D01*
X0016600Y-0015800D02*
Y-0013135D01*
X0009535Y-0014900D02*
X0012300D01*
X0030300Y-0015881D02*
X0030313Y-0015895D01*
X0030300Y-0015881D02*
Y-0013372D01*
D49*
X-0009418Y0012910D02*
X-0008800Y0013528D01*
X-0014464Y0012910D02*
X-0009418D01*
X-0010050Y0024721D02*
X-0008800Y0023472D01*
X-0014464Y0024721D02*
X-0010050D01*
D50*
X0020253Y0009335D02*
X0020553D01*
X0022689D02*
X0023210D01*
X0022689Y0007610D02*
Y0009335D01*
X0022684Y0007606D02*
X0022689Y0007610D01*
X0022684Y0005735D02*
Y0007606D01*
X0020716Y0007337D02*
Y0009335D01*
X0020253D02*
X0020716D01*
Y0005735D02*
Y0007337D01*
D51*
X-0012901Y-0009439D02*
D03*
D52*
X0010444Y0006972D02*
D03*
D53*
X0020172Y0010702D02*
D03*
D54*
X0020200Y0023527D02*
D03*
D55*
Y0017009D02*
D03*
D56*
X0015613Y0008451D02*
D03*
D57*
X0010868Y-0005868D02*
D03*
D58*
X-0033145Y0002792D02*
D03*
Y0036808D02*
D03*
D59*
X-0016688Y0002792D02*
D03*
Y0036808D02*
D03*
D60*
X0030200Y0036972D02*
D03*
X0010200D02*
D03*
Y0016972D02*
D03*
X0030200D02*
D03*
D61*
X0020200Y0026971D02*
D03*
D62*
X-0025500Y-0017900D02*
D03*
X0028994Y-0004468D02*
D03*
X0028648Y-0006667D02*
D03*
X0009351Y0004479D02*
D03*
X0012840Y0004685D02*
D03*
X0009400Y0007000D02*
D03*
X0015700Y0004800D02*
D03*
X0014600Y0007600D02*
D03*
X0016800Y0007500D02*
D03*
X0026400Y0007000D02*
D03*
X0034200Y0009500D02*
D03*
Y0005000D02*
D03*
X-0027900Y-0031900D02*
D03*
X-0030180D02*
D03*
X-0027900Y-0034800D02*
D03*
X-0020900D02*
D03*
X-0030180D02*
D03*
X-0020900Y-0031900D02*
D03*
X-0023180Y-0034800D02*
D03*
Y-0031900D02*
D03*
X-0020500Y-0007400D02*
D03*
X-0022780D02*
D03*
X-0029780D02*
D03*
X-0027500D02*
D03*
X-0010500Y0005700D02*
D03*
X-0008205D02*
D03*
Y0003420D02*
D03*
X-0010500D02*
D03*
X-0008495Y0008300D02*
D03*
X-0006200D02*
D03*
Y0010580D02*
D03*
X-0008495D02*
D03*
X-0015600Y-0031524D02*
D03*
X-0012900D02*
D03*
X-0010200D02*
D03*
Y-0033805D02*
D03*
X-0012900D02*
D03*
X-0015600D02*
D03*
X-0010200Y-0036085D02*
D03*
X-0012900D02*
D03*
X-0015600D02*
D03*
Y-0007115D02*
D03*
X-0012900D02*
D03*
X-0010200D02*
D03*
Y-0009395D02*
D03*
X-0012900D02*
D03*
X-0015600D02*
D03*
X-0010200Y-0011676D02*
D03*
X-0012900D02*
D03*
X-0015600D02*
D03*
X0003800Y-0031880D02*
D03*
X0006500D02*
D03*
X0009200D02*
D03*
X0003800Y-0029600D02*
D03*
X0006500D02*
D03*
X0009200D02*
D03*
Y-0027320D02*
D03*
X0006500D02*
D03*
X0003800D02*
D03*
X0000300Y-0001639D02*
D03*
X0003000D02*
D03*
X0005700D02*
D03*
Y-0003920D02*
D03*
X0003000D02*
D03*
X0000300D02*
D03*
X0005700Y-0006200D02*
D03*
X0003000D02*
D03*
X0000300D02*
D03*
X0028765Y0007035D02*
D03*
X0034000Y-0016100D02*
D03*
X0031165Y-0006765D02*
D03*
X0009535Y-0004735D02*
D03*
X0012200Y-0007000D02*
D03*
X0009535Y-0007065D02*
D03*
X0006500Y-0011900D02*
D03*
X0003600Y-0014900D02*
D03*
Y-0011900D02*
D03*
X-0025400Y-0015400D02*
D03*
X-0029780Y-0010300D02*
D03*
X-0027500D02*
D03*
X-0020500D02*
D03*
X-0022780D02*
D03*
X-0006800Y0027220D02*
D03*
X-0009500D02*
D03*
X-0006800Y0029500D02*
D03*
X-0009500D02*
D03*
X-0004100Y0027220D02*
D03*
Y0029500D02*
D03*
X-0009500Y0035200D02*
D03*
X-0004100Y0032920D02*
D03*
X-0009500D02*
D03*
X-0006800Y0037480D02*
D03*
X-0004100D02*
D03*
Y0035200D02*
D03*
X-0006800Y0032920D02*
D03*
X-0009500Y0037480D02*
D03*
X-0006800Y0035200D02*
D03*
X-0005928Y0019928D02*
D03*
Y0017072D02*
D03*
X0028780Y-0040568D02*
D03*
Y-0037868D02*
D03*
X0026500Y-0040568D02*
D03*
Y-0037868D02*
D03*
X0024220Y-0035168D02*
D03*
Y-0037868D02*
D03*
Y-0040568D02*
D03*
X0028200Y-0033480D02*
D03*
X0030900D02*
D03*
X0033600D02*
D03*
X0028200Y-0031200D02*
D03*
X0030900D02*
D03*
X0033600D02*
D03*
Y-0028920D02*
D03*
X0030900D02*
D03*
X0028200D02*
D03*
X0000300Y0003839D02*
D03*
X0003000D02*
D03*
X0005700D02*
D03*
X0000300Y0006120D02*
D03*
X0003000D02*
D03*
X0005700D02*
D03*
Y0008400D02*
D03*
X0003000D02*
D03*
X0000300D02*
D03*
X0009535Y-0012135D02*
D03*
X0014035Y-0013135D02*
D03*
X0016600Y-0015800D02*
D03*
X0012300Y-0014900D02*
D03*
X0030313Y-0015895D02*
D03*
X0026800Y-0015600D02*
D03*
X0031784Y0007218D02*
D03*
X0034141Y0007253D02*
D03*
X0013765Y-0010065D02*
D03*
X0036572Y-0009828D02*
D03*
X0036400Y-0004500D02*
D03*
X0036636Y-0000700D02*
D03*
X0036400Y0003000D02*
D03*
X0011665Y0007135D02*
D03*
X0020200Y-0001700D02*
D03*
X0023400D02*
D03*
Y0001700D02*
D03*
X0020100Y0001800D02*
D03*
X0009400Y-0001665D02*
D03*
X0016123Y0013578D02*
D03*
X0024276D02*
D03*
X0021591Y0040902D02*
D03*
X0024276Y0040364D02*
D03*
X0016123D02*
D03*
X0018808Y0040902D02*
D03*
X0034130Y0025580D02*
D03*
X0033593Y0022895D02*
D03*
Y0031048D02*
D03*
X0034130Y0028363D02*
D03*
X0006269Y0025580D02*
D03*
X0006807Y0022895D02*
D03*
Y0031048D02*
D03*
X0006269Y0028363D02*
D03*
M02*
