G04*
G04 #@! TF.GenerationSoftware,Altium Limited,Altium Designer,26.5.0 (11)*
G04*
G04 Layer_Physical_Order=3*
G04 Layer_Color=16440176*
G04 Board_Origin=43966378|46889134*
%FSAX25Y25*%
%MOIN*%
G70*
G04*
G04 #@! TF.SameCoordinates,952CCCF2-D507-46FF-8A43-938F49AE31E8*
G04*
G04*
G04 #@! TF.FilePolarity,Positive*
G04*
G01*
G75*
%ADD46C,0.02000*%
%ADD62C,0.09843*%
%ADD63C,0.01772*%
%ADD64R,0.04135X0.04111*%
%ADD65R,0.04070X0.04705*%
%ADD66R,0.04099X0.04207*%
%ADD67R,0.07355X0.04155*%
%ADD68R,0.07344X0.06357*%
%ADD69R,0.07293X0.06406*%
%ADD70R,0.04186X0.04742*%
%ADD71R,0.04152X0.04795*%
%ADD72R,0.05130X0.05338*%
%ADD73R,0.06608X0.04411*%
%ADD74R,0.07179X0.06387*%
G36*
X0035433Y0042504D02*
X0035742D01*
X0036347Y0042384D01*
X0036918Y0042148D01*
X0037431Y0041805D01*
X0037868Y0041368D01*
X0038211Y0040855D01*
X0038447Y0040284D01*
X0038567Y0039679D01*
X0038567Y0039370D01*
Y0012050D01*
X0021572D01*
Y0014354D01*
X0022686Y0014501D01*
X0024296Y0014932D01*
X0025836Y0015570D01*
X0027280Y0016404D01*
X0028603Y0017418D01*
X0029781Y0018597D01*
X0030796Y0019920D01*
X0031630Y0021363D01*
X0032267Y0022903D01*
X0032699Y0024513D01*
X0032917Y0026166D01*
Y0027000D01*
Y0027833D01*
X0032699Y0029486D01*
X0032267Y0031096D01*
X0031630Y0032636D01*
X0030796Y0034080D01*
X0029781Y0035402D01*
X0028603Y0036581D01*
X0027280Y0037596D01*
X0025836Y0038429D01*
X0024296Y0039067D01*
X0022686Y0039499D01*
X0021034Y0039716D01*
X0019366D01*
X0017714Y0039499D01*
X0016104Y0039067D01*
X0014564Y0038429D01*
X0013120Y0037596D01*
X0011797Y0036581D01*
X0010619Y0035402D01*
X0009604Y0034080D01*
X0008770Y0032636D01*
X0008133Y0031096D01*
X0007701Y0029486D01*
X0007484Y0027833D01*
Y0027000D01*
Y0026166D01*
X0007701Y0024513D01*
X0008133Y0022903D01*
X0008770Y0021363D01*
X0009604Y0019920D01*
X0010619Y0018597D01*
X0011797Y0017418D01*
X0013120Y0016404D01*
X0014564Y0015570D01*
X0016104Y0014932D01*
X0017714Y0014501D01*
X0018712Y0014369D01*
Y0012050D01*
X0009570D01*
X0007733Y0012416D01*
X0006003Y0013132D01*
X0004446Y0014173D01*
X0003122Y0015497D01*
X0002082Y0017054D01*
X0001365Y0018784D01*
X0001000Y0020620D01*
X0001000Y0021557D01*
Y0021557D01*
Y0042504D01*
X0035433D01*
D02*
G37*
G36*
X-0000649Y0042504D02*
X0000351Y0042504D01*
Y0021557D01*
X0000351Y0020620D01*
X0000376Y0020559D01*
X0000363Y0020494D01*
X0000728Y0018657D01*
X0000765Y0018602D01*
Y0018535D01*
X0001482Y0016805D01*
X0001529Y0016758D01*
X0001542Y0016693D01*
X0002582Y0015136D01*
X0002638Y0015099D01*
X0002663Y0015037D01*
X0003987Y0013713D01*
X0004049Y0013688D01*
X0004086Y0013633D01*
X0005643Y0012592D01*
X0005708Y0012579D01*
X0005755Y0012532D01*
X0007485Y0011816D01*
X0007551D01*
X0007607Y0011779D01*
X0009443Y0011413D01*
X0009509Y0011426D01*
X0009570Y0011401D01*
X0018712D01*
Y0007955D01*
X0021572D01*
Y0011401D01*
X0032585D01*
X0033000Y0010401D01*
X0032940Y0010342D01*
X0032714Y0009796D01*
Y0009523D01*
X0032271Y0008951D01*
X0031839Y0008704D01*
X0031488D01*
X0030942Y0008477D01*
X0030524Y0008059D01*
X0030298Y0007513D01*
Y0006922D01*
X0030524Y0006376D01*
X0030942Y0005958D01*
X0031488Y0005732D01*
X0031813D01*
X0032239Y0005525D01*
X0032714Y0004913D01*
Y0004704D01*
X0032940Y0004158D01*
X0033358Y0003740D01*
X0033904Y0003514D01*
X0033990D01*
X0034566Y0003378D01*
X0034914Y0002704D01*
X0035140Y0002158D01*
X0035558Y0001740D01*
X0035795Y0001642D01*
X0035869Y0000590D01*
X0035794Y0000560D01*
X0035377Y0000142D01*
X0035150Y-0000404D01*
Y-0000996D01*
X0035377Y-0001542D01*
X0035794Y-0001960D01*
X0036015Y-0002051D01*
X0036048Y-0002408D01*
X0035916Y-0003092D01*
X0035558Y-0003240D01*
X0035140Y-0003658D01*
X0034914Y-0004204D01*
Y-0004796D01*
X0035140Y-0005342D01*
X0035558Y-0005760D01*
X0036105Y-0005986D01*
X0036696D01*
X0037242Y-0005760D01*
X0037567Y-0005434D01*
X0037997Y-0005490D01*
X0038567Y-0005740D01*
Y-0008349D01*
X0037567Y-0008723D01*
X0037413Y-0008569D01*
X0036867Y-0008343D01*
X0036276D01*
X0035730Y-0008569D01*
X0035312Y-0008987D01*
X0035086Y-0009533D01*
Y-0010124D01*
X0035312Y-0010670D01*
X0035730Y-0011088D01*
X0036276Y-0011314D01*
X0036867D01*
X0037413Y-0011088D01*
X0037567Y-0010934D01*
X0038567Y-0011307D01*
Y-0039370D01*
Y-0039679D01*
X0038447Y-0040284D01*
X0038211Y-0040855D01*
X0037868Y-0041368D01*
X0037431Y-0041805D01*
X0036918Y-0042148D01*
X0036347Y-0042384D01*
X0035742Y-0042504D01*
X0035433Y-0042504D01*
X0030359D01*
X0029945Y-0041504D01*
X0030040Y-0041409D01*
X0030266Y-0040863D01*
Y-0040272D01*
X0030040Y-0039726D01*
X0029685Y-0039218D01*
X0030040Y-0038709D01*
X0030266Y-0038163D01*
Y-0037572D01*
X0030040Y-0037026D01*
X0029622Y-0036608D01*
X0029076Y-0036382D01*
X0028485D01*
X0027939Y-0036608D01*
X0027640Y-0036907D01*
X0027342Y-0036608D01*
X0026796Y-0036382D01*
X0026407D01*
X0025897Y-0035869D01*
X0025684Y-0035515D01*
X0025706Y-0035463D01*
Y-0034872D01*
X0025479Y-0034326D01*
X0025061Y-0033908D01*
X0024515Y-0033682D01*
X0023924D01*
X0023378Y-0033908D01*
X0022960Y-0034326D01*
X0022734Y-0034872D01*
Y-0035463D01*
X0022960Y-0036009D01*
X0023315Y-0036518D01*
X0022960Y-0037026D01*
X0022734Y-0037572D01*
Y-0038163D01*
X0022960Y-0038709D01*
X0023315Y-0039218D01*
X0022960Y-0039726D01*
X0022734Y-0040272D01*
Y-0040863D01*
X0022960Y-0041409D01*
X0023055Y-0041504D01*
X0022641Y-0042504D01*
X-0035433Y-0042504D01*
X-0035742D01*
X-0036347Y-0042384D01*
X-0036918Y-0042148D01*
X-0037431Y-0041805D01*
X-0037868Y-0041368D01*
X-0038211Y-0040855D01*
X-0038447Y-0040284D01*
X-0038567Y-0039679D01*
X-0038567Y-0039370D01*
X-0038567Y0039370D01*
Y0039679D01*
X-0038447Y0040284D01*
X-0038211Y0040855D01*
X-0037868Y0041368D01*
X-0037431Y0041805D01*
X-0036918Y0042148D01*
X-0036347Y0042384D01*
X-0035742Y0042504D01*
X-0035433Y0042504D01*
X-0000649D01*
D02*
G37*
%LPC*%
G36*
X-0031570Y0039399D02*
X-0034720D01*
X-0035390Y0039310D01*
X-0036015Y0039051D01*
X-0036551Y0038640D01*
X-0036963Y0038103D01*
X-0037222Y0037478D01*
X-0037310Y0036808D01*
X-0037222Y0036137D01*
X-0036963Y0035513D01*
X-0036551Y0034976D01*
X-0036015Y0034564D01*
X-0035390Y0034306D01*
X-0034720Y0034217D01*
X-0031570D01*
X-0030900Y0034306D01*
X-0030275Y0034564D01*
X-0029738Y0034976D01*
X-0029327Y0035513D01*
X-0029068Y0036137D01*
X-0028979Y0036808D01*
X-0029068Y0037478D01*
X-0029327Y0038103D01*
X-0029738Y0038640D01*
X-0030275Y0039051D01*
X-0030900Y0039310D01*
X-0031570Y0039399D01*
D02*
G37*
G36*
X-0018283Y0033057D02*
X-0019030D01*
X-0019721Y0032771D01*
X-0020250Y0032243D01*
X-0020536Y0031552D01*
Y0030804D01*
X-0020250Y0030113D01*
X-0019721Y0029585D01*
X-0019030Y0029298D01*
X-0018283D01*
X-0017592Y0029585D01*
X-0017063Y0030113D01*
X-0016777Y0030804D01*
Y0031552D01*
X-0017063Y0032243D01*
X-0017592Y0032771D01*
X-0018283Y0033057D01*
D02*
G37*
G36*
X-0014523Y0039399D02*
X-0018854D01*
X-0019524Y0039310D01*
X-0020149Y0039051D01*
X-0020685Y0038640D01*
X-0021097Y0038103D01*
X-0021356Y0037478D01*
X-0021444Y0036808D01*
X-0021356Y0036137D01*
X-0021097Y0035513D01*
X-0020685Y0034976D01*
X-0020149Y0034564D01*
X-0019524Y0034306D01*
X-0018854Y0034217D01*
X-0014523D01*
X-0013852Y0034306D01*
X-0013228Y0034564D01*
X-0012691Y0034976D01*
X-0012279Y0035513D01*
X-0012020Y0036137D01*
X-0011090Y0035900D01*
Y0032035D01*
X-0011007Y0031834D01*
X-0010929Y0031269D01*
X-0010986Y0030652D01*
X-0011069Y0030451D01*
Y0026296D01*
X-0010879Y0025837D01*
X-0010419Y0025647D01*
X-0003065D01*
X-0002606Y0025837D01*
X-0002415Y0026296D01*
Y0030451D01*
X-0002499Y0030652D01*
X-0002582Y0031203D01*
X-0002531Y0031834D01*
X-0002448Y0032035D01*
Y0038391D01*
X-0002638Y0038851D01*
X-0003097Y0039041D01*
X-0010441D01*
X-0010900Y0038851D01*
X-0011090Y0038391D01*
Y0037715D01*
X-0012020Y0037478D01*
X-0012279Y0038103D01*
X-0012691Y0038640D01*
X-0013228Y0039051D01*
X-0013852Y0039310D01*
X-0014523Y0039399D01*
D02*
G37*
G36*
X-0005633Y0021414D02*
X-0006224D01*
X-0006770Y0021188D01*
X-0007188Y0020770D01*
X-0007414Y0020224D01*
Y0019633D01*
X-0007188Y0019087D01*
X-0006863Y0018500D01*
X-0007188Y0017913D01*
X-0007414Y0017367D01*
Y0016776D01*
X-0007188Y0016230D01*
X-0006770Y0015812D01*
X-0006224Y0015586D01*
X-0005633D01*
X-0005087Y0015812D01*
X-0004669Y0016230D01*
X-0004442Y0016776D01*
Y0017367D01*
X-0004669Y0017913D01*
X-0004993Y0018500D01*
X-0004669Y0019087D01*
X-0004442Y0019633D01*
Y0020224D01*
X-0004669Y0020770D01*
X-0005087Y0021188D01*
X-0005633Y0021414D01*
D02*
G37*
G36*
X-0018283Y0010302D02*
X-0019030D01*
X-0019721Y0010015D01*
X-0020250Y0009487D01*
X-0020536Y0008796D01*
Y0008048D01*
X-0020250Y0007357D01*
X-0019721Y0006829D01*
X-0019030Y0006543D01*
X-0018283D01*
X-0017592Y0006829D01*
X-0017063Y0007357D01*
X-0016777Y0008048D01*
Y0008796D01*
X-0017063Y0009487D01*
X-0017592Y0010015D01*
X-0018283Y0010302D01*
D02*
G37*
G36*
X-0005237Y0012151D02*
X-0009336D01*
X-0009796Y0011961D01*
X-0009986Y0011502D01*
Y0007295D01*
X-0010007Y0007263D01*
X-0011404D01*
X-0011863Y0007073D01*
X-0012053Y0006614D01*
Y0005367D01*
X-0013053Y0004902D01*
X-0013228Y0005036D01*
X-0013852Y0005294D01*
X-0014523Y0005383D01*
X-0018854D01*
X-0019524Y0005294D01*
X-0020149Y0005036D01*
X-0020685Y0004624D01*
X-0021097Y0004087D01*
X-0021356Y0003463D01*
X-0021444Y0002792D01*
X-0021356Y0002122D01*
X-0021097Y0001497D01*
X-0020685Y0000960D01*
X-0020149Y0000549D01*
X-0019524Y0000290D01*
X-0018854Y0000201D01*
X-0014523D01*
X-0013852Y0000290D01*
X-0013228Y0000549D01*
X-0012691Y0000960D01*
X-0012279Y0001497D01*
X-0011404Y0001853D01*
X-0007269D01*
X-0006810Y0002043D01*
X-0006620Y0002503D01*
Y0006614D01*
X-0006598Y0006645D01*
X-0005237D01*
X-0004778Y0006836D01*
X-0004588Y0007295D01*
Y0011502D01*
X-0004778Y0011961D01*
X-0005237Y0012151D01*
D02*
G37*
G36*
X0006608Y0009939D02*
X-0000570D01*
X-0001030Y0009749D01*
X-0001220Y0009290D01*
Y0002903D01*
X-0001030Y0002444D01*
X-0000570Y0002254D01*
X0006608D01*
X0007067Y0002444D01*
X0007258Y0002903D01*
Y0002943D01*
X0012484D01*
X0012943Y0003134D01*
X0012958Y0003169D01*
X0015700D01*
X0016324Y0003293D01*
X0016853Y0003647D01*
X0017207Y0004176D01*
X0017331Y0004800D01*
X0017207Y0005424D01*
X0016853Y0005954D01*
X0016324Y0006307D01*
X0015700Y0006431D01*
X0014064D01*
X0013150Y0006840D01*
Y0007431D01*
X0013133Y0007472D01*
Y0008004D01*
X0012943Y0008463D01*
X0012484Y0008653D01*
X0007258D01*
Y0009290D01*
X0007067Y0009749D01*
X0006608Y0009939D01*
D02*
G37*
G36*
X-0031570Y0005383D02*
X-0034720D01*
X-0035390Y0005294D01*
X-0036015Y0005036D01*
X-0036551Y0004624D01*
X-0036963Y0004087D01*
X-0037222Y0003463D01*
X-0037310Y0002792D01*
X-0037222Y0002122D01*
X-0036963Y0001497D01*
X-0036551Y0000960D01*
X-0036015Y0000549D01*
X-0035390Y0000290D01*
X-0034720Y0000201D01*
X-0031570D01*
X-0030900Y0000290D01*
X-0030275Y0000549D01*
X-0029738Y0000960D01*
X-0029327Y0001497D01*
X-0029068Y0002122D01*
X-0028979Y0002792D01*
X-0029068Y0003463D01*
X-0029327Y0004087D01*
X-0029738Y0004624D01*
X-0030275Y0005036D01*
X-0030900Y0005294D01*
X-0031570Y0005383D01*
D02*
G37*
G36*
X0009696Y-0000179D02*
X0009104D01*
X0008558Y-0000405D01*
X0008140Y-0000823D01*
X0007914Y-0001369D01*
Y-0001960D01*
X0008140Y-0002506D01*
X0008558Y-0002924D01*
X0009104Y-0003150D01*
X0009696D01*
X0010242Y-0002924D01*
X0010660Y-0002506D01*
X0010886Y-0001960D01*
Y-0001369D01*
X0010660Y-0000823D01*
X0010242Y-0000405D01*
X0009696Y-0000179D01*
D02*
G37*
G36*
X0024363Y0003368D02*
X0019233D01*
X0018774Y0003178D01*
X0018583Y0002719D01*
Y-0002619D01*
X0018774Y-0003078D01*
X0019233Y-0003268D01*
X0024363D01*
X0024822Y-0003078D01*
X0025012Y-0002619D01*
Y0002719D01*
X0024822Y0003178D01*
X0024363Y0003368D01*
D02*
G37*
G36*
X-0005869Y-0005437D02*
X-0010004D01*
X-0010463Y-0005627D01*
X-0010653Y-0006086D01*
Y-0010197D01*
X-0010463Y-0010656D01*
X-0010004Y-0010847D01*
X-0005869D01*
X-0005410Y-0010656D01*
X-0005220Y-0010197D01*
Y-0006086D01*
X-0005410Y-0005627D01*
X-0005869Y-0005437D01*
D02*
G37*
G36*
X-0019561Y-0005818D02*
X-0023631D01*
X-0024090Y-0006008D01*
X-0024281Y-0006468D01*
Y-0011173D01*
X-0024090Y-0011632D01*
X-0023631Y-0011822D01*
X-0023229D01*
X-0023076Y-0011886D01*
X-0022485D01*
X-0022332Y-0011822D01*
X-0020949D01*
X-0020796Y-0011886D01*
X-0020204D01*
X-0020051Y-0011822D01*
X-0019561D01*
X-0019102Y-0011632D01*
X-0018911Y-0011173D01*
Y-0006468D01*
X-0019102Y-0006008D01*
X-0019561Y-0005818D01*
D02*
G37*
G36*
X-0026554Y-0005843D02*
X-0030705D01*
X-0031165Y-0006033D01*
X-0031355Y-0006492D01*
Y-0011287D01*
X-0031165Y-0011746D01*
X-0030705Y-0011936D01*
X-0026554D01*
X-0026094Y-0011746D01*
X-0025904Y-0011287D01*
Y-0006492D01*
X-0026094Y-0006033D01*
X-0026554Y-0005843D01*
D02*
G37*
G36*
X0014060Y-0008579D02*
X0013469D01*
X0012923Y-0008805D01*
X0012505Y-0009223D01*
X0012279Y-0009769D01*
Y-0010360D01*
X0012505Y-0010906D01*
X0012681Y-0011082D01*
X0012907Y-0011432D01*
X0012776Y-0012294D01*
X0012776Y-0012294D01*
X0012757Y-0012338D01*
X0012550Y-0012840D01*
Y-0013414D01*
X0012004D01*
X0011458Y-0013640D01*
X0010795Y-0012977D01*
X0011021Y-0012431D01*
Y-0011840D01*
X0010795Y-0011294D01*
X0010377Y-0010876D01*
X0009831Y-0010650D01*
X0009240D01*
X0008694Y-0010876D01*
X0008276Y-0011294D01*
X0008050Y-0011840D01*
Y-0012431D01*
X0008276Y-0012977D01*
X0008694Y-0013395D01*
X0009240Y-0013621D01*
X0009831D01*
X0010377Y-0013395D01*
X0011040Y-0014058D01*
X0010814Y-0014604D01*
Y-0015196D01*
X0011040Y-0015742D01*
X0011458Y-0016160D01*
X0012004Y-0016386D01*
X0012596D01*
X0013142Y-0016160D01*
X0013560Y-0015742D01*
X0013733Y-0015324D01*
X0014192Y-0015118D01*
X0014444Y-0015224D01*
X0015114Y-0015864D01*
Y-0016096D01*
X0015340Y-0016642D01*
X0015758Y-0017060D01*
X0016304Y-0017286D01*
X0016896D01*
X0017442Y-0017060D01*
X0017860Y-0016642D01*
X0018086Y-0016096D01*
Y-0015504D01*
X0017860Y-0014958D01*
X0017442Y-0014540D01*
X0016896Y-0014314D01*
X0016304D01*
X0016224Y-0014347D01*
X0015459Y-0013582D01*
X0015521Y-0013431D01*
Y-0012840D01*
X0015295Y-0012294D01*
X0015119Y-0012118D01*
X0014893Y-0011768D01*
X0015024Y-0010906D01*
X0015024Y-0010906D01*
X0015043Y-0010862D01*
X0015250Y-0010360D01*
Y-0009769D01*
X0015024Y-0009223D01*
X0014606Y-0008805D01*
X0014060Y-0008579D01*
D02*
G37*
G36*
X0027095Y-0014114D02*
X0026504D01*
X0025958Y-0014340D01*
X0025540Y-0014758D01*
X0025314Y-0015304D01*
Y-0015896D01*
X0025540Y-0016442D01*
X0025958Y-0016860D01*
X0026504Y-0017086D01*
X0027095D01*
X0027642Y-0016860D01*
X0027911Y-0016590D01*
X0028647Y-0016594D01*
X0029037Y-0016696D01*
X0029054Y-0016736D01*
X0029472Y-0017154D01*
X0030018Y-0017380D01*
X0030609D01*
X0031155Y-0017154D01*
X0031573Y-0016736D01*
X0031799Y-0016190D01*
Y-0015599D01*
X0031573Y-0015053D01*
X0031155Y-0014635D01*
X0030609Y-0014409D01*
X0030018D01*
X0029472Y-0014635D01*
X0029202Y-0014904D01*
X0028466Y-0014900D01*
X0028076Y-0014799D01*
X0028060Y-0014758D01*
X0027642Y-0014340D01*
X0027095Y-0014114D01*
D02*
G37*
G36*
X-0010310Y-0012459D02*
X-0014380D01*
X-0014840Y-0012649D01*
X-0015030Y-0013109D01*
Y-0017814D01*
X-0014840Y-0018273D01*
X-0014380Y-0018463D01*
X-0010310D01*
X-0009851Y-0018273D01*
X-0009661Y-0017814D01*
Y-0013109D01*
X-0009851Y-0012649D01*
X-0010310Y-0012459D01*
D02*
G37*
G36*
X-0025104Y-0013914D02*
X-0025695D01*
X-0026242Y-0014140D01*
X-0026660Y-0014558D01*
X-0026886Y-0015104D01*
Y-0015696D01*
X-0026660Y-0016242D01*
X-0026760Y-0017058D01*
X-0026986Y-0017604D01*
Y-0018196D01*
X-0026760Y-0018742D01*
X-0026342Y-0019160D01*
X-0025796Y-0019386D01*
X-0025204D01*
X-0024658Y-0019160D01*
X-0024240Y-0018742D01*
X-0024014Y-0018196D01*
Y-0017604D01*
X-0024240Y-0017058D01*
X-0024140Y-0016242D01*
X-0023914Y-0015696D01*
Y-0015104D01*
X-0024140Y-0014558D01*
X-0024558Y-0014140D01*
X-0025104Y-0013914D01*
D02*
G37*
G36*
X0034554Y-0027368D02*
X0027260D01*
X0026801Y-0027558D01*
X0026611Y-0028018D01*
Y-0034424D01*
X0026801Y-0034883D01*
X0027260Y-0035073D01*
X0034554D01*
X0035013Y-0034883D01*
X0035203Y-0034424D01*
Y-0028018D01*
X0035013Y-0027558D01*
X0034554Y-0027368D01*
D02*
G37*
G36*
X-0026993Y-0030330D02*
X-0031179D01*
X-0031639Y-0030520D01*
X-0031829Y-0030979D01*
Y-0035722D01*
X-0031639Y-0036181D01*
X-0031179Y-0036371D01*
X-0026993D01*
X-0026534Y-0036181D01*
X-0026344Y-0035722D01*
Y-0030979D01*
X-0026534Y-0030520D01*
X-0026993Y-0030330D01*
D02*
G37*
%LPD*%
D46*
X0009400Y0007000D02*
G03*
X0011600Y0004800I0002200J0000000D01*
G01*
X0015700D01*
D62*
X0030200Y0016972D02*
D03*
X0010200D02*
D03*
Y0036972D02*
D03*
X0030200D02*
D03*
D63*
X-0006794Y-0009292D02*
D03*
X-0009068Y-0009302D02*
D03*
X-0009105Y-0006995D02*
D03*
X-0006780Y-0006990D02*
D03*
X-0013530Y-0016941D02*
D03*
X-0011249D02*
D03*
X-0013530Y-0014041D02*
D03*
X-0011249D02*
D03*
X0001100Y-0012500D02*
D03*
X0000700Y-0014900D02*
D03*
X0028994Y-0004468D02*
D03*
X0028648Y-0006667D02*
D03*
X0009351Y0004479D02*
D03*
X0012840Y0004685D02*
D03*
X0009400Y0007000D02*
D03*
X0015700Y0004800D02*
D03*
X0014600Y0007600D02*
D03*
X0016800Y0007500D02*
D03*
X0026400Y0007000D02*
D03*
X-0027900Y-0031900D02*
D03*
X-0030180D02*
D03*
X-0027900Y-0034800D02*
D03*
X-0020900D02*
D03*
X-0030180D02*
D03*
X-0020900Y-0031900D02*
D03*
X-0023180Y-0034800D02*
D03*
Y-0031900D02*
D03*
X-0020500Y-0007500D02*
D03*
X-0022780D02*
D03*
X-0029780Y-0007400D02*
D03*
X-0027500D02*
D03*
X-0010500Y0005700D02*
D03*
X-0008205D02*
D03*
Y0003420D02*
D03*
X-0010500D02*
D03*
X-0008495Y0008300D02*
D03*
X-0006200D02*
D03*
Y0010580D02*
D03*
X-0008495D02*
D03*
X0000300Y-0001639D02*
D03*
X0003000D02*
D03*
X0005700D02*
D03*
Y-0003920D02*
D03*
X0003000D02*
D03*
X0000300D02*
D03*
X0005700Y-0006200D02*
D03*
X0003000D02*
D03*
X0000300D02*
D03*
X0028765Y0007035D02*
D03*
X0034000Y-0016100D02*
D03*
X0031165Y-0006765D02*
D03*
X0009535Y-0004735D02*
D03*
X0012200Y-0007000D02*
D03*
X0009535Y-0007065D02*
D03*
X0006500Y-0011900D02*
D03*
X0003600Y-0014900D02*
D03*
Y-0011900D02*
D03*
X-0029780Y-0010300D02*
D03*
X-0027500D02*
D03*
X-0020500Y-0010400D02*
D03*
X-0022780D02*
D03*
X-0006800Y0027220D02*
D03*
X-0009500D02*
D03*
X-0006800Y0029500D02*
D03*
X-0009500D02*
D03*
X-0004100Y0027220D02*
D03*
Y0029500D02*
D03*
X-0009500Y0035200D02*
D03*
X-0004100Y0032920D02*
D03*
X-0009500D02*
D03*
X-0006800Y0037480D02*
D03*
X-0004100D02*
D03*
Y0035200D02*
D03*
X-0006800Y0032920D02*
D03*
X-0009500Y0037480D02*
D03*
X-0006800Y0035200D02*
D03*
X0028200Y-0033480D02*
D03*
X0030900D02*
D03*
X0033600D02*
D03*
X0028200Y-0031200D02*
D03*
X0030900D02*
D03*
X0033600D02*
D03*
Y-0028920D02*
D03*
X0030900D02*
D03*
X0028200D02*
D03*
X0000300Y0003839D02*
D03*
X0003000D02*
D03*
X0005700D02*
D03*
X0000300Y0006120D02*
D03*
X0003000D02*
D03*
X0005700D02*
D03*
Y0008400D02*
D03*
X0003000D02*
D03*
X0000300D02*
D03*
X0011665Y0007135D02*
D03*
X0020200Y-0001700D02*
D03*
X0023400D02*
D03*
Y0001700D02*
D03*
X0020100Y0001800D02*
D03*
X0016123Y0013578D02*
D03*
X0024276D02*
D03*
X0021591Y0040902D02*
D03*
X0024276Y0040364D02*
D03*
X0016123D02*
D03*
X0018808Y0040902D02*
D03*
X0034130Y0025580D02*
D03*
X0033593Y0022895D02*
D03*
Y0031048D02*
D03*
X0034130Y0028363D02*
D03*
X0006269Y0025580D02*
D03*
X0006807Y0022895D02*
D03*
Y0031048D02*
D03*
X0006269Y0028363D02*
D03*
D64*
X-0007937Y-0008142D02*
D03*
X-0009336Y0004558D02*
D03*
D65*
X-0012345Y-0015461D02*
D03*
X-0021596Y-0008820D02*
D03*
D66*
X-0007287Y0009398D02*
D03*
D67*
X-0006742Y0028374D02*
D03*
D68*
X-0006769Y0035213D02*
D03*
D69*
X0030907Y-0031220D02*
D03*
D70*
X-0029086Y-0033350D02*
D03*
D71*
X-0028630Y-0008890D02*
D03*
D72*
X0021798Y0000050D02*
D03*
D73*
X0009180Y0005798D02*
D03*
D74*
X0003019Y0006096D02*
D03*
M02*
