G04*
G04 #@! TF.GenerationSoftware,Altium Limited,Altium Designer,26.5.0 (11)*
G04*
G04 Layer_Physical_Order=2*
G04 Layer_Color=36540*
G04 Board_Origin=43966378|46889134*
%FSAX25Y25*%
%MOIN*%
G70*
G04*
G04 #@! TF.SameCoordinates,952CCCF2-D507-46FF-8A43-938F49AE31E8*
G04*
G04*
G04 #@! TF.FilePolarity,Positive*
G04*
G01*
G75*
%ADD59O,0.08268X0.03937*%
%ADD60O,0.07087X0.03937*%
%ADD62C,0.09843*%
%ADD63C,0.01772*%
%ADD64R,0.04135X0.04111*%
G36*
X0035433Y0042504D02*
X0035742D01*
X0036347Y0042384D01*
X0036918Y0042148D01*
X0037431Y0041805D01*
X0037868Y0041368D01*
X0038211Y0040855D01*
X0038447Y0040284D01*
X0038567Y0039679D01*
X0038567Y0039370D01*
X0038567Y-0008349D01*
X0037567Y-0008723D01*
X0037413Y-0008569D01*
X0036867Y-0008343D01*
X0036276D01*
X0035730Y-0008569D01*
X0035312Y-0008987D01*
X0035086Y-0009533D01*
Y-0010124D01*
X0035312Y-0010670D01*
X0035730Y-0011088D01*
X0036276Y-0011314D01*
X0036867D01*
X0037413Y-0011088D01*
X0037567Y-0010934D01*
X0038567Y-0011307D01*
Y-0039370D01*
Y-0039679D01*
X0038447Y-0040284D01*
X0038211Y-0040855D01*
X0037868Y-0041368D01*
X0037431Y-0041805D01*
X0036918Y-0042148D01*
X0036347Y-0042384D01*
X0035742Y-0042504D01*
X0035433Y-0042504D01*
X-0035433Y-0042504D01*
X-0035742D01*
X-0036347Y-0042384D01*
X-0036918Y-0042148D01*
X-0037431Y-0041805D01*
X-0037868Y-0041368D01*
X-0038211Y-0040855D01*
X-0038447Y-0040284D01*
X-0038567Y-0039679D01*
X-0038567Y-0039370D01*
X-0038567Y0039370D01*
Y0039679D01*
X-0038447Y0040284D01*
X-0038211Y0040855D01*
X-0037868Y0041368D01*
X-0037431Y0041805D01*
X-0036918Y0042148D01*
X-0036347Y0042384D01*
X-0035742Y0042504D01*
X-0035433Y0042504D01*
X0035433Y0042504D01*
D02*
G37*
%LPC*%
G36*
X-0003804Y0030986D02*
X-0004396D01*
X-0004942Y0030760D01*
X-0005450Y0030405D01*
X-0005958Y0030760D01*
X-0006504Y0030986D01*
X-0007096D01*
X-0007642Y0030760D01*
X-0008150Y0030405D01*
X-0008658Y0030760D01*
X-0009204Y0030986D01*
X-0009796D01*
X-0010342Y0030760D01*
X-0010760Y0030342D01*
X-0010986Y0029796D01*
Y0029204D01*
X-0010760Y0028658D01*
X-0010461Y0028360D01*
X-0010760Y0028061D01*
X-0010986Y0027515D01*
Y0026924D01*
X-0010760Y0026378D01*
X-0010342Y0025960D01*
X-0009796Y0025734D01*
X-0009204D01*
X-0008658Y0025960D01*
X-0008150Y0026315D01*
X-0007642Y0025960D01*
X-0007096Y0025734D01*
X-0006504D01*
X-0005958Y0025960D01*
X-0005450Y0026315D01*
X-0004942Y0025960D01*
X-0004396Y0025734D01*
X-0003804D01*
X-0003258Y0025960D01*
X-0002840Y0026378D01*
X-0002614Y0026924D01*
Y0027515D01*
X-0002840Y0028061D01*
X-0003139Y0028360D01*
X-0002840Y0028658D01*
X-0002614Y0029204D01*
Y0029796D01*
X-0002840Y0030342D01*
X-0003258Y0030760D01*
X-0003804Y0030986D01*
D02*
G37*
G36*
X-0018283Y0033057D02*
X-0019030D01*
X-0019721Y0032771D01*
X-0020250Y0032243D01*
X-0020536Y0031552D01*
Y0030804D01*
X-0020250Y0030113D01*
X-0019721Y0029585D01*
X-0019030Y0029298D01*
X-0018283D01*
X-0017592Y0029585D01*
X-0017063Y0030113D01*
X-0016777Y0030804D01*
Y0031552D01*
X-0017063Y0032243D01*
X-0017592Y0032771D01*
X-0018283Y0033057D01*
D02*
G37*
G36*
X-0005904Y0012066D02*
X-0006496D01*
X-0007042Y0011840D01*
X-0007348Y0011534D01*
X-0007654Y0011840D01*
X-0008200Y0012066D01*
X-0008791D01*
X-0009337Y0011840D01*
X-0009755Y0011422D01*
X-0009981Y0010876D01*
Y0010285D01*
X-0009755Y0009739D01*
X-0009456Y0009440D01*
X-0009755Y0009142D01*
X-0009981Y0008596D01*
Y0008004D01*
X-0009755Y0007458D01*
X-0009337Y0007040D01*
X-0008791Y0006814D01*
X-0008200D01*
X-0007654Y0007040D01*
X-0007348Y0007346D01*
X-0007042Y0007040D01*
X-0006496Y0006814D01*
X-0005904D01*
X-0005358Y0007040D01*
X-0004940Y0007458D01*
X-0004714Y0008004D01*
Y0008596D01*
X-0004940Y0009142D01*
X-0005239Y0009440D01*
X-0004940Y0009739D01*
X-0004714Y0010285D01*
Y0010876D01*
X-0004940Y0011422D01*
X-0005358Y0011840D01*
X-0005904Y0012066D01*
D02*
G37*
G36*
X0021034Y0039716D02*
X0019366D01*
X0017714Y0039499D01*
X0016104Y0039067D01*
X0014564Y0038429D01*
X0013120Y0037596D01*
X0011797Y0036581D01*
X0010619Y0035402D01*
X0009604Y0034080D01*
X0008770Y0032636D01*
X0008133Y0031096D01*
X0007701Y0029486D01*
X0007484Y0027833D01*
Y0026166D01*
X0007701Y0024513D01*
X0008133Y0022903D01*
X0008770Y0021363D01*
X0009604Y0019920D01*
X0010619Y0018597D01*
X0011797Y0017418D01*
X0013120Y0016404D01*
X0014564Y0015570D01*
X0016104Y0014932D01*
X0017714Y0014501D01*
X0018712Y0014369D01*
Y0009104D01*
X0017712Y0008690D01*
X0017642Y0008760D01*
X0017096Y0008986D01*
X0016504D01*
X0015958Y0008760D01*
X0015750Y0008551D01*
X0015442Y0008860D01*
X0014896Y0009086D01*
X0014304D01*
X0013758Y0008860D01*
X0013340Y0008442D01*
X0013114Y0007896D01*
Y0007304D01*
X0013340Y0006758D01*
X0013758Y0006340D01*
X0014304Y0006114D01*
X0014896D01*
X0015442Y0006340D01*
X0015650Y0006549D01*
X0015958Y0006240D01*
X0016504Y0006014D01*
X0017096D01*
X0017642Y0006240D01*
X0018060Y0006658D01*
X0018260Y0007142D01*
X0018321Y0007252D01*
X0018787Y0007881D01*
X0019220Y0007955D01*
X0021572D01*
Y0014354D01*
X0022686Y0014501D01*
X0024296Y0014932D01*
X0025836Y0015570D01*
X0027280Y0016404D01*
X0028603Y0017418D01*
X0029781Y0018597D01*
X0030796Y0019920D01*
X0031630Y0021363D01*
X0032267Y0022903D01*
X0032699Y0024513D01*
X0032917Y0026166D01*
Y0027833D01*
X0032699Y0029486D01*
X0032267Y0031096D01*
X0031630Y0032636D01*
X0030796Y0034080D01*
X0029781Y0035402D01*
X0028603Y0036581D01*
X0027280Y0037596D01*
X0025836Y0038429D01*
X0024296Y0039067D01*
X0022686Y0039499D01*
X0021034Y0039716D01*
D02*
G37*
G36*
X0029060Y0008521D02*
X0028469D01*
X0027923Y0008295D01*
X0027565Y0007937D01*
X0027242Y0008260D01*
X0026695Y0008486D01*
X0026105D01*
X0025558Y0008260D01*
X0025140Y0007842D01*
X0024914Y0007296D01*
Y0006704D01*
X0025140Y0006158D01*
X0025558Y0005740D01*
X0026105Y0005514D01*
X0026695D01*
X0027242Y0005740D01*
X0027600Y0006099D01*
X0027923Y0005776D01*
X0028469Y0005550D01*
X0029060D01*
X0029606Y0005776D01*
X0030024Y0006194D01*
X0030250Y0006740D01*
Y0007331D01*
X0030024Y0007877D01*
X0029606Y0008295D01*
X0029060Y0008521D01*
D02*
G37*
G36*
X-0018283Y0010302D02*
X-0019030D01*
X-0019721Y0010015D01*
X-0020250Y0009487D01*
X-0020536Y0008796D01*
Y0008048D01*
X-0020250Y0007357D01*
X-0019721Y0006829D01*
X-0019030Y0006543D01*
X-0018283D01*
X-0017592Y0006829D01*
X-0017063Y0007357D01*
X-0016777Y0008048D01*
Y0008796D01*
X-0017063Y0009487D01*
X-0017592Y0010015D01*
X-0018283Y0010302D01*
D02*
G37*
G36*
X0005996Y-0000154D02*
X0005404D01*
X0004858Y-0000380D01*
X0004350Y-0000735D01*
X0003842Y-0000380D01*
X0003296Y-0000154D01*
X0002704D01*
X0002158Y-0000380D01*
X0001650Y-0000735D01*
X0001142Y-0000380D01*
X0000595Y-0000154D01*
X0000004D01*
X-0000542Y-0000380D01*
X-0000960Y-0000798D01*
X-0001186Y-0001344D01*
Y-0001935D01*
X-0000960Y-0002481D01*
X-0000661Y-0002780D01*
X-0000960Y-0003078D01*
X-0001186Y-0003624D01*
Y-0004215D01*
X-0000960Y-0004761D01*
X-0000661Y-0005060D01*
X-0000960Y-0005358D01*
X-0001186Y-0005904D01*
Y-0006496D01*
X-0000960Y-0007042D01*
X-0000542Y-0007460D01*
X0000004Y-0007686D01*
X0000595D01*
X0001142Y-0007460D01*
X0001650Y-0007105D01*
X0002158Y-0007460D01*
X0002704Y-0007686D01*
X0003296D01*
X0003842Y-0007460D01*
X0004350Y-0007105D01*
X0004858Y-0007460D01*
X0005404Y-0007686D01*
X0005996D01*
X0006542Y-0007460D01*
X0006864Y-0007137D01*
X0006960Y-0007042D01*
X0006960Y-0007042D01*
X0007100Y-0006902D01*
X0008006Y-0007095D01*
X0008050Y-0007180D01*
X0008050Y-0007360D01*
X0008050Y-0007360D01*
X0008068Y-0007406D01*
X0008276Y-0007906D01*
X0008694Y-0008324D01*
X0009240Y-0008550D01*
X0009831D01*
X0010377Y-0008324D01*
X0010835Y-0007932D01*
X0011358Y-0008260D01*
X0011904Y-0008486D01*
X0011976Y-0008574D01*
X0012396Y-0009486D01*
X0012279Y-0009769D01*
Y-0010360D01*
X0012505Y-0010906D01*
X0012923Y-0011324D01*
X0013469Y-0011550D01*
X0014060D01*
X0014606Y-0011324D01*
X0015024Y-0010906D01*
X0015250Y-0010360D01*
Y-0009769D01*
X0015024Y-0009223D01*
X0014606Y-0008805D01*
X0014060Y-0008579D01*
X0013989Y-0008491D01*
X0013568Y-0007579D01*
X0013686Y-0007296D01*
Y-0006704D01*
X0013460Y-0006158D01*
X0013042Y-0005740D01*
X0012496Y-0005514D01*
X0011904D01*
X0011903Y-0005515D01*
X0011576Y-0005335D01*
X0011021Y-0004798D01*
Y-0004440D01*
X0010795Y-0003894D01*
X0010377Y-0003476D01*
X0009831Y-0003250D01*
X0009240D01*
X0008694Y-0003476D01*
X0008342Y-0003827D01*
X0008276Y-0003894D01*
X0008262Y-0003917D01*
X0008120Y-0004098D01*
X0007244Y-0003923D01*
X0007186Y-0003823D01*
Y-0003868D01*
Y-0003868D01*
X0007186Y-0003624D01*
X0007186Y-0003624D01*
X0007167Y-0003579D01*
X0006960Y-0003078D01*
X0006661Y-0002780D01*
X0006960Y-0002481D01*
X0007186Y-0001935D01*
Y-0001344D01*
X0006960Y-0000798D01*
X0006542Y-0000380D01*
X0005996Y-0000154D01*
D02*
G37*
G36*
X-0020204Y-0006014D02*
X-0020796D01*
X-0021342Y-0006240D01*
X-0021640Y-0006539D01*
X-0021939Y-0006240D01*
X-0022485Y-0006014D01*
X-0023076D01*
X-0023622Y-0006240D01*
X-0024040Y-0006658D01*
X-0024266Y-0007204D01*
Y-0007796D01*
X-0024040Y-0008342D01*
X-0023722Y-0008950D01*
X-0024040Y-0009558D01*
X-0024266Y-0010104D01*
Y-0010696D01*
X-0024040Y-0011242D01*
X-0023622Y-0011660D01*
X-0023076Y-0011886D01*
X-0022485D01*
X-0021939Y-0011660D01*
X-0021640Y-0011361D01*
X-0021342Y-0011660D01*
X-0020796Y-0011886D01*
X-0020204D01*
X-0019658Y-0011660D01*
X-0019240Y-0011242D01*
X-0019014Y-0010696D01*
Y-0010104D01*
X-0019240Y-0009558D01*
X-0019559Y-0008950D01*
X-0019240Y-0008342D01*
X-0019014Y-0007796D01*
Y-0007204D01*
X-0019240Y-0006658D01*
X-0019658Y-0006240D01*
X-0020204Y-0006014D01*
D02*
G37*
G36*
X0029290Y-0002982D02*
X0028699D01*
X0028152Y-0003208D01*
X0027735Y-0003626D01*
X0027508Y-0004172D01*
Y-0004763D01*
X0027735Y-0005309D01*
X0027389Y-0005826D01*
X0027163Y-0006372D01*
Y-0006963D01*
X0027389Y-0007509D01*
X0027807Y-0007927D01*
X0028353Y-0008153D01*
X0028944D01*
X0029490Y-0007927D01*
X0030323Y-0008024D01*
X0030869Y-0008250D01*
X0031460D01*
X0032006Y-0008024D01*
X0032424Y-0007606D01*
X0032650Y-0007060D01*
Y-0006469D01*
X0032424Y-0005923D01*
X0032006Y-0005505D01*
X0031460Y-0005279D01*
X0031349D01*
X0030709Y-0004899D01*
X0030480Y-0004358D01*
Y-0004172D01*
X0030254Y-0003626D01*
X0029836Y-0003208D01*
X0029290Y-0002982D01*
D02*
G37*
G36*
X-0005869Y-0005437D02*
X-0010004D01*
X-0010463Y-0005627D01*
X-0010653Y-0006086D01*
Y-0010197D01*
X-0010463Y-0010656D01*
X-0010004Y-0010847D01*
X-0005869D01*
X-0005410Y-0010656D01*
X-0005220Y-0010197D01*
Y-0006086D01*
X-0005410Y-0005627D01*
X-0005869Y-0005437D01*
D02*
G37*
G36*
X0006796Y-0010414D02*
X0006204D01*
X0005658Y-0010640D01*
X0005050Y-0010959D01*
X0004442Y-0010640D01*
X0003896Y-0010414D01*
X0003304D01*
X0002758Y-0010640D01*
X0002340Y-0011058D01*
X0002294Y-0011170D01*
X0001942Y-0011240D01*
X0001396Y-0011014D01*
X0000804D01*
X0000258Y-0011240D01*
X-0000160Y-0011658D01*
X-0000386Y-0012204D01*
Y-0012796D01*
X-0000142Y-0013640D01*
X-0000560Y-0014058D01*
X-0000786Y-0014604D01*
Y-0015196D01*
X-0000560Y-0015742D01*
X-0000142Y-0016160D01*
X0000404Y-0016386D01*
X0000996D01*
X0001542Y-0016160D01*
X0002150Y-0015841D01*
X0002758Y-0016160D01*
X0003304Y-0016386D01*
X0003896D01*
X0004442Y-0016160D01*
X0004860Y-0015742D01*
X0005086Y-0015196D01*
Y-0014604D01*
X0004860Y-0014058D01*
X0004902Y-0013985D01*
X0005447Y-0013203D01*
X0005653Y-0013157D01*
X0005658Y-0013160D01*
X0006204Y-0013386D01*
X0006796D01*
X0007342Y-0013160D01*
X0007760Y-0012742D01*
X0007986Y-0012196D01*
Y-0011604D01*
X0007760Y-0011058D01*
X0007342Y-0010640D01*
X0006796Y-0010414D01*
D02*
G37*
G36*
X-0010954Y-0012555D02*
X-0011545D01*
X-0012091Y-0012781D01*
X-0012389Y-0013080D01*
X-0012688Y-0012781D01*
X-0013234Y-0012555D01*
X-0013825D01*
X-0014371Y-0012781D01*
X-0014789Y-0013199D01*
X-0015015Y-0013745D01*
Y-0014336D01*
X-0014789Y-0014883D01*
X-0014471Y-0015491D01*
X-0014789Y-0016099D01*
X-0015015Y-0016645D01*
Y-0017236D01*
X-0014789Y-0017783D01*
X-0014371Y-0018201D01*
X-0013825Y-0018427D01*
X-0013234D01*
X-0012688Y-0018201D01*
X-0012389Y-0017902D01*
X-0012091Y-0018201D01*
X-0011545Y-0018427D01*
X-0010954D01*
X-0010408Y-0018201D01*
X-0009990Y-0017783D01*
X-0009764Y-0017236D01*
Y-0016645D01*
X-0009990Y-0016099D01*
X-0010308Y-0015491D01*
X-0009990Y-0014883D01*
X-0009764Y-0014336D01*
Y-0013745D01*
X-0009990Y-0013199D01*
X-0010408Y-0012781D01*
X-0010954Y-0012555D01*
D02*
G37*
G36*
X0034295Y-0014614D02*
X0033705D01*
X0033158Y-0014840D01*
X0032740Y-0015258D01*
X0032514Y-0015804D01*
Y-0016396D01*
X0032740Y-0016942D01*
X0033158Y-0017360D01*
X0033705Y-0017586D01*
X0034295D01*
X0034842Y-0017360D01*
X0035260Y-0016942D01*
X0035486Y-0016396D01*
Y-0015804D01*
X0035260Y-0015258D01*
X0034842Y-0014840D01*
X0034295Y-0014614D01*
D02*
G37*
G36*
X-0020604Y-0030414D02*
X-0021196D01*
X-0021742Y-0030640D01*
X-0022040Y-0030939D01*
X-0022339Y-0030640D01*
X-0022885Y-0030414D01*
X-0023476D01*
X-0024022Y-0030640D01*
X-0024440Y-0031058D01*
X-0024666Y-0031604D01*
Y-0032195D01*
X-0024440Y-0032742D01*
X-0024122Y-0033350D01*
X-0024440Y-0033958D01*
X-0024666Y-0034505D01*
Y-0035096D01*
X-0024440Y-0035642D01*
X-0024022Y-0036060D01*
X-0023476Y-0036286D01*
X-0022885D01*
X-0022339Y-0036060D01*
X-0022040Y-0035761D01*
X-0021742Y-0036060D01*
X-0021196Y-0036286D01*
X-0020604D01*
X-0020058Y-0036060D01*
X-0019640Y-0035642D01*
X-0019414Y-0035096D01*
Y-0034505D01*
X-0019640Y-0033958D01*
X-0019959Y-0033350D01*
X-0019640Y-0032742D01*
X-0019414Y-0032195D01*
Y-0031604D01*
X-0019640Y-0031058D01*
X-0020058Y-0030640D01*
X-0020604Y-0030414D01*
D02*
G37*
%LPD*%
D59*
X-0016688Y0036808D02*
D03*
Y0002792D02*
D03*
D60*
X-0033145Y0036808D02*
D03*
Y0002792D02*
D03*
D62*
X0030200Y0016972D02*
D03*
X0010200D02*
D03*
Y0036972D02*
D03*
X0030200D02*
D03*
D63*
X-0006794Y-0009292D02*
D03*
X-0009068Y-0009302D02*
D03*
X-0009105Y-0006995D02*
D03*
X-0006780Y-0006990D02*
D03*
X-0025500Y-0017900D02*
D03*
X0009351Y0004479D02*
D03*
X0012840Y0004685D02*
D03*
X0009400Y0007000D02*
D03*
X0015700Y0004800D02*
D03*
X0034200Y0009500D02*
D03*
Y0005000D02*
D03*
X-0027900Y-0031900D02*
D03*
X-0030180D02*
D03*
X-0027900Y-0034800D02*
D03*
X-0030180D02*
D03*
X-0029780Y-0007400D02*
D03*
X-0027500D02*
D03*
X-0010500Y0005700D02*
D03*
X-0008205D02*
D03*
Y0003420D02*
D03*
X-0010500D02*
D03*
X-0025400Y-0015400D02*
D03*
X-0029780Y-0010300D02*
D03*
X-0027500D02*
D03*
X-0009500Y0035200D02*
D03*
X-0004100Y0032920D02*
D03*
X-0009500D02*
D03*
X-0006800Y0037480D02*
D03*
X-0004100D02*
D03*
Y0035200D02*
D03*
X-0006800Y0032920D02*
D03*
X-0009500Y0037480D02*
D03*
X-0006800Y0035200D02*
D03*
X-0005928Y0019928D02*
D03*
Y0017072D02*
D03*
X0028780Y-0040568D02*
D03*
Y-0037868D02*
D03*
X0026500Y-0040568D02*
D03*
Y-0037868D02*
D03*
X0024220Y-0035168D02*
D03*
Y-0037868D02*
D03*
Y-0040568D02*
D03*
X0028200Y-0033480D02*
D03*
X0030900D02*
D03*
X0033600D02*
D03*
X0028200Y-0031200D02*
D03*
X0030900D02*
D03*
X0033600D02*
D03*
Y-0028920D02*
D03*
X0030900D02*
D03*
X0028200D02*
D03*
X0000300Y0003839D02*
D03*
X0003000D02*
D03*
X0005700D02*
D03*
X0000300Y0006120D02*
D03*
X0003000D02*
D03*
X0005700D02*
D03*
Y0008400D02*
D03*
X0003000D02*
D03*
X0000300D02*
D03*
X0009535Y-0012135D02*
D03*
X0014035Y-0013135D02*
D03*
X0016600Y-0015800D02*
D03*
X0012300Y-0014900D02*
D03*
X0030313Y-0015895D02*
D03*
X0026800Y-0015600D02*
D03*
X0031784Y0007218D02*
D03*
X0034141Y0007253D02*
D03*
X0036400Y-0004500D02*
D03*
X0036636Y-0000700D02*
D03*
X0036400Y0003000D02*
D03*
X0011665Y0007135D02*
D03*
X0020200Y-0001700D02*
D03*
X0023400D02*
D03*
Y0001700D02*
D03*
X0020100Y0001800D02*
D03*
X0009400Y-0001665D02*
D03*
X0016123Y0013578D02*
D03*
X0024276D02*
D03*
X0021591Y0040902D02*
D03*
X0024276Y0040364D02*
D03*
X0016123D02*
D03*
X0018808Y0040902D02*
D03*
X0034130Y0025580D02*
D03*
X0033593Y0022895D02*
D03*
Y0031048D02*
D03*
X0034130Y0028363D02*
D03*
X0006269Y0025580D02*
D03*
X0006807Y0022895D02*
D03*
Y0031048D02*
D03*
X0006269Y0028363D02*
D03*
D64*
X-0007937Y-0008142D02*
D03*
M02*
