G04*
G04 #@! TF.GenerationSoftware,Altium Limited,Altium Designer,26.5.0 (11)*
G04*
G04 Layer_Color=8388736*
G04 Board_Origin=43966378|46889134*
%FSAX25Y25*%
%MOIN*%
G70*
G04*
G04 #@! TF.SameCoordinates,57F83437-8FD5-4720-90E9-F1E7D8C2B116*
G04*
G04*
G04 #@! TF.FilePolarity,Negative*
G04*
G01*
G75*
%ADD24R,0.07087X0.07874*%
%ADD28R,0.05000X0.06300*%
%ADD29R,0.02847X0.03005*%
%ADD30R,0.02572X0.02965*%
%ADD31O,0.03162X0.01587*%
%ADD32O,0.01587X0.03162*%
%ADD33R,0.02965X0.02572*%
%ADD34R,0.03005X0.02847*%
%ADD35R,0.08280X0.07296*%
%ADD36R,0.03300X0.05800*%
%ADD37R,0.06706X0.06706*%
%ADD38R,0.05328X0.01981*%
%ADD39O,0.07887X0.04737*%
%ADD40O,0.09068X0.04737*%
%ADD41C,0.00800*%
%ADD42C,0.10642*%
%ADD43C,0.09855*%
D24*
X0006500Y-0021332D02*
D03*
Y-0037868D02*
D03*
X0026500D02*
D03*
X0016500Y-0021332D02*
D03*
X0026500D02*
D03*
X0016500Y-0037868D02*
D03*
D28*
X-0022000Y-0033400D02*
D03*
X-0029000D02*
D03*
X-0021700Y-0008400D02*
D03*
X-0028700D02*
D03*
D29*
X0028765Y0009300D02*
D03*
X0031165Y-0004500D02*
D03*
Y0003000D02*
D03*
X0014735Y0009300D02*
D03*
X0006465Y-0014900D02*
D03*
X0031835Y0009300D02*
D03*
X0034235Y-0004500D02*
D03*
X0011665Y0009300D02*
D03*
X0034235Y0003000D02*
D03*
X0009535Y-0014900D02*
D03*
D30*
X0026672Y0009300D02*
D03*
X0016628D02*
D03*
X0020172D02*
D03*
X0030928Y-0000700D02*
D03*
X0034472D02*
D03*
X0009228Y0001500D02*
D03*
X0023128Y0009300D02*
D03*
X0012772Y0001500D02*
D03*
D31*
X0027409Y0002953D02*
D03*
Y-0002953D02*
D03*
X0015991D02*
D03*
Y0000984D02*
D03*
X0027409D02*
D03*
Y-0000984D02*
D03*
X0015991D02*
D03*
Y0002953D02*
D03*
D32*
X0024653Y0005709D02*
D03*
X0018747D02*
D03*
X0020716D02*
D03*
X0022684D02*
D03*
X0024653Y-0005709D02*
D03*
X0022684D02*
D03*
X0020716D02*
D03*
X0018747D02*
D03*
D33*
X0034000Y-0013372D02*
D03*
X-0008800Y0013528D02*
D03*
Y0023472D02*
D03*
X0030300Y-0013372D02*
D03*
X-0008800Y0019928D02*
D03*
Y0017072D02*
D03*
X0020200Y0015843D02*
D03*
Y0012300D02*
D03*
X0034000Y-0009828D02*
D03*
X0030300Y-0009828D02*
D03*
D34*
X0012200Y-0004735D02*
D03*
X0020200Y0021107D02*
D03*
Y0018036D02*
D03*
X0012200Y-0001665D02*
D03*
X0026800Y-0013135D02*
D03*
X0016600D02*
D03*
X0023400Y-0010065D02*
D03*
Y-0013135D02*
D03*
X0020000Y-0010065D02*
D03*
Y-0013135D02*
D03*
X0016600Y-0010065D02*
D03*
X0026800D02*
D03*
D35*
X0003000Y-0003920D02*
D03*
Y0006120D02*
D03*
D36*
X-0021650Y-0026400D02*
D03*
Y-0016400D02*
D03*
X-0029150D02*
D03*
X-0025450D02*
D03*
X-0029150Y-0026400D02*
D03*
D37*
X0021700Y0000000D02*
D03*
D38*
X-0014464Y0032989D02*
D03*
Y0031808D02*
D03*
Y0029839D02*
D03*
Y0028658D02*
D03*
Y0026690D02*
D03*
Y0024721D02*
D03*
Y0022753D02*
D03*
Y0020784D02*
D03*
Y0018816D02*
D03*
Y0016847D02*
D03*
Y0014879D02*
D03*
Y0012910D02*
D03*
Y0010942D02*
D03*
Y0009761D02*
D03*
Y0007792D02*
D03*
Y0006611D02*
D03*
D39*
X-0033145Y0002792D02*
D03*
Y0036808D02*
D03*
D40*
X-0016688Y0002792D02*
D03*
Y0036808D02*
D03*
D41*
X-0018657Y0008422D02*
D03*
Y0031178D02*
D03*
D42*
X0030200Y0036972D02*
D03*
X0010200D02*
D03*
Y0016972D02*
D03*
X0030200D02*
D03*
D43*
X0020200Y0026971D02*
D03*
M02*
