G04*
G04 #@! TF.GenerationSoftware,Altium Limited,Altium Designer,26.5.0 (11)*
G04*
G04 Layer_Color=32896*
G04 Board_Origin=43966378|46889134*
%FSAX25Y25*%
%MOIN*%
G70*
G04*
G04 #@! TF.SameCoordinates,57F83437-8FD5-4720-90E9-F1E7D8C2B116*
G04*
G04*
G04 #@! TF.FilePolarity,Positive*
G04*
G01*
G75*
%ADD12C,0.00600*%
%ADD13C,0.00787*%
G36*
X-0004027Y-0017663D02*
Y-0015685D01*
X-0021758D01*
Y-0017663D01*
X-0004027D01*
D02*
G37*
G36*
X0014768Y-0020727D02*
X0012789D01*
Y-0038458D01*
X0014768D01*
Y-0020727D01*
D02*
G37*
G36*
X0018251Y-0010778D02*
X0018339Y-0010782D01*
X0018509Y-0010810D01*
X0018671Y-0010851D01*
X0018745Y-0010875D01*
X0018810Y-0010898D01*
X0018875Y-0010921D01*
X0018930Y-0010944D01*
X0018981Y-0010962D01*
X0019022Y-0010985D01*
X0019055Y-0010999D01*
X0019082Y-0011013D01*
X0019096Y-0011018D01*
X0019101Y-0011022D01*
X0019161Y-0011055D01*
X0019221Y-0011096D01*
X0019350Y-0011179D01*
X0019470Y-0011272D01*
X0019586Y-0011360D01*
X0019641Y-0011401D01*
X0019688Y-0011438D01*
X0019734Y-0011475D01*
X0019771Y-0011507D01*
X0019798Y-0011530D01*
X0019822Y-0011549D01*
X0019836Y-0011563D01*
X0019840Y-0011568D01*
X0019895Y-0011627D01*
X0019937Y-0011688D01*
X0019970Y-0011752D01*
X0019988Y-0011808D01*
X0020002Y-0011858D01*
X0020006Y-0011900D01*
X0020011Y-0011928D01*
Y-0011932D01*
Y-0011937D01*
X0020002Y-0012006D01*
X0019983Y-0012071D01*
X0019956Y-0012122D01*
X0019923Y-0012168D01*
X0019895Y-0012200D01*
X0019868Y-0012228D01*
X0019849Y-0012242D01*
X0019840Y-0012247D01*
X0019785Y-0012274D01*
X0019729Y-0012297D01*
X0019674Y-0012311D01*
X0019623Y-0012325D01*
X0019577Y-0012330D01*
X0019544Y-0012334D01*
X0019512D01*
X0019480Y-0012330D01*
X0019443Y-0012320D01*
X0019401Y-0012302D01*
X0019360Y-0012284D01*
X0019267Y-0012233D01*
X0019175Y-0012168D01*
X0019087Y-0012108D01*
X0019050Y-0012080D01*
X0019013Y-0012057D01*
X0018985Y-0012039D01*
X0018967Y-0012020D01*
X0018953Y-0012011D01*
X0018948Y-0012006D01*
X0018870Y-0011946D01*
X0018796Y-0011896D01*
X0018722Y-0011854D01*
X0018648Y-0011812D01*
X0018579Y-0011780D01*
X0018514Y-0011757D01*
X0018454Y-0011734D01*
X0018399Y-0011715D01*
X0018343Y-0011701D01*
X0018297Y-0011692D01*
X0018260Y-0011683D01*
X0018223Y-0011678D01*
X0018195Y-0011674D01*
X0018158D01*
X0018080Y-0011678D01*
X0018001Y-0011692D01*
X0017932Y-0011715D01*
X0017867Y-0011738D01*
X0017812Y-0011766D01*
X0017766Y-0011785D01*
X0017738Y-0011803D01*
X0017733Y-0011808D01*
X0017729D01*
X0017692Y-0011831D01*
X0017655Y-0011854D01*
X0017599Y-0011905D01*
X0017562Y-0011946D01*
X0017535Y-0011988D01*
X0017516Y-0012020D01*
X0017512Y-0012048D01*
X0017507Y-0012066D01*
Y-0012071D01*
X0017512Y-0012163D01*
X0017530Y-0012256D01*
X0017558Y-0012344D01*
X0017595Y-0012431D01*
X0017636Y-0012510D01*
X0017683Y-0012584D01*
X0017733Y-0012658D01*
X0017784Y-0012722D01*
X0017835Y-0012778D01*
X0017886Y-0012833D01*
X0017932Y-0012875D01*
X0017974Y-0012916D01*
X0018011Y-0012944D01*
X0018038Y-0012967D01*
X0018057Y-0012981D01*
X0018061Y-0012986D01*
X0018237Y-0013101D01*
X0018408Y-0013212D01*
X0018565Y-0013314D01*
X0018639Y-0013365D01*
X0018708Y-0013411D01*
X0018773Y-0013452D01*
X0018828Y-0013489D01*
X0018879Y-0013522D01*
X0018921Y-0013550D01*
X0018958Y-0013573D01*
X0018981Y-0013591D01*
X0018999Y-0013600D01*
X0019004Y-0013605D01*
X0019096Y-0013670D01*
X0019179Y-0013730D01*
X0019258Y-0013794D01*
X0019327Y-0013854D01*
X0019392Y-0013910D01*
X0019452Y-0013970D01*
X0019508Y-0014021D01*
X0019554Y-0014072D01*
X0019595Y-0014118D01*
X0019632Y-0014159D01*
X0019660Y-0014196D01*
X0019688Y-0014224D01*
X0019706Y-0014252D01*
X0019720Y-0014270D01*
X0019725Y-0014279D01*
X0019729Y-0014284D01*
X0019780Y-0014367D01*
X0019822Y-0014455D01*
X0019863Y-0014547D01*
X0019895Y-0014640D01*
X0019923Y-0014732D01*
X0019946Y-0014825D01*
X0019965Y-0014912D01*
X0019979Y-0014996D01*
X0019993Y-0015074D01*
X0020002Y-0015148D01*
X0020006Y-0015213D01*
X0020011Y-0015268D01*
X0020016Y-0015314D01*
Y-0015351D01*
Y-0015370D01*
Y-0015379D01*
X0020011Y-0015495D01*
X0020006Y-0015596D01*
X0019993Y-0015679D01*
X0019979Y-0015749D01*
X0019970Y-0015804D01*
X0019956Y-0015841D01*
X0019951Y-0015864D01*
X0019946Y-0015873D01*
X0019923Y-0015920D01*
X0019895Y-0015957D01*
X0019868Y-0015989D01*
X0019831Y-0016021D01*
X0019762Y-0016067D01*
X0019692Y-0016095D01*
X0019628Y-0016114D01*
X0019572Y-0016123D01*
X0019549Y-0016127D01*
X0019489D01*
X0019452Y-0016132D01*
X0019424Y-0016137D01*
X0019415Y-0016141D01*
X0019410D01*
X0019360Y-0016150D01*
X0019323Y-0016155D01*
X0019240D01*
X0019175Y-0016150D01*
X0019110Y-0016146D01*
X0019046Y-0016141D01*
X0018985Y-0016137D01*
X0018935Y-0016132D01*
X0018921D01*
X0018907Y-0016127D01*
X0018893D01*
X0018796Y-0016118D01*
X0018713Y-0016109D01*
X0018648Y-0016104D01*
X0018588Y-0016100D01*
X0018546Y-0016095D01*
X0018491D01*
X0017461Y-0016100D01*
X0017424D01*
X0017382Y-0016104D01*
X0017299Y-0016114D01*
X0017257Y-0016118D01*
X0017225Y-0016123D01*
X0017207Y-0016127D01*
X0017198D01*
X0017133Y-0016137D01*
X0017077Y-0016141D01*
X0017031Y-0016150D01*
X0016990D01*
X0016962Y-0016155D01*
X0016925D01*
X0016851Y-0016150D01*
X0016786Y-0016132D01*
X0016731Y-0016109D01*
X0016680Y-0016081D01*
X0016638Y-0016058D01*
X0016611Y-0016035D01*
X0016592Y-0016016D01*
X0016588Y-0016012D01*
X0016541Y-0015957D01*
X0016509Y-0015906D01*
X0016486Y-0015850D01*
X0016472Y-0015799D01*
X0016458Y-0015758D01*
X0016454Y-0015725D01*
Y-0015702D01*
Y-0015693D01*
X0016458Y-0015647D01*
X0016467Y-0015601D01*
X0016486Y-0015559D01*
X0016509Y-0015522D01*
X0016569Y-0015448D01*
X0016634Y-0015388D01*
X0016703Y-0015342D01*
X0016763Y-0015305D01*
X0016786Y-0015296D01*
X0016805Y-0015287D01*
X0016814Y-0015277D01*
X0016819D01*
X0016929Y-0015236D01*
X0017036Y-0015203D01*
X0017137Y-0015180D01*
X0017225Y-0015162D01*
X0017304Y-0015153D01*
X0017336D01*
X0017364Y-0015148D01*
X0017553D01*
X0017632Y-0015153D01*
X0017719D01*
X0017895Y-0015162D01*
X0018071Y-0015167D01*
X0018154Y-0015171D01*
X0018228Y-0015176D01*
X0018297Y-0015180D01*
X0018362Y-0015185D01*
X0018413D01*
X0018450Y-0015190D01*
X0018482D01*
X0018611Y-0015199D01*
X0018727Y-0015208D01*
X0018824Y-0015217D01*
X0018902Y-0015226D01*
X0018967Y-0015231D01*
X0019008Y-0015236D01*
X0019036Y-0015240D01*
X0019046D01*
X0019032Y-0015139D01*
X0018999Y-0015037D01*
X0018962Y-0014945D01*
X0018916Y-0014852D01*
X0018861Y-0014764D01*
X0018801Y-0014686D01*
X0018736Y-0014607D01*
X0018671Y-0014538D01*
X0018607Y-0014473D01*
X0018546Y-0014418D01*
X0018491Y-0014367D01*
X0018440Y-0014330D01*
X0018394Y-0014293D01*
X0018362Y-0014270D01*
X0018343Y-0014256D01*
X0018334Y-0014252D01*
X0018172Y-0014150D01*
X0018011Y-0014048D01*
X0017863Y-0013956D01*
X0017798Y-0013914D01*
X0017733Y-0013873D01*
X0017673Y-0013836D01*
X0017623Y-0013804D01*
X0017576Y-0013776D01*
X0017535Y-0013748D01*
X0017502Y-0013730D01*
X0017479Y-0013716D01*
X0017465Y-0013706D01*
X0017461Y-0013702D01*
X0017378Y-0013642D01*
X0017299Y-0013582D01*
X0017225Y-0013526D01*
X0017161Y-0013466D01*
X0017100Y-0013411D01*
X0017045Y-0013360D01*
X0016994Y-0013309D01*
X0016948Y-0013258D01*
X0016911Y-0013217D01*
X0016879Y-0013175D01*
X0016851Y-0013143D01*
X0016828Y-0013111D01*
X0016809Y-0013088D01*
X0016795Y-0013069D01*
X0016791Y-0013060D01*
X0016786Y-0013055D01*
X0016736Y-0012977D01*
X0016694Y-0012893D01*
X0016657Y-0012806D01*
X0016625Y-0012722D01*
X0016597Y-0012635D01*
X0016578Y-0012551D01*
X0016560Y-0012473D01*
X0016541Y-0012394D01*
X0016532Y-0012320D01*
X0016523Y-0012256D01*
X0016518Y-0012196D01*
X0016514Y-0012145D01*
X0016509Y-0012099D01*
Y-0012071D01*
Y-0012048D01*
Y-0012043D01*
X0016514Y-0011937D01*
X0016532Y-0011835D01*
X0016560Y-0011738D01*
X0016597Y-0011646D01*
X0016638Y-0011563D01*
X0016685Y-0011484D01*
X0016736Y-0011410D01*
X0016786Y-0011346D01*
X0016842Y-0011290D01*
X0016893Y-0011240D01*
X0016939Y-0011193D01*
X0016980Y-0011156D01*
X0017017Y-0011129D01*
X0017045Y-0011110D01*
X0017063Y-0011096D01*
X0017068Y-0011092D01*
X0017161Y-0011036D01*
X0017253Y-0010985D01*
X0017350Y-0010944D01*
X0017442Y-0010907D01*
X0017535Y-0010875D01*
X0017627Y-0010851D01*
X0017715Y-0010828D01*
X0017793Y-0010814D01*
X0017872Y-0010801D01*
X0017941Y-0010791D01*
X0018001Y-0010782D01*
X0018057Y-0010778D01*
X0018098Y-0010773D01*
X0018158D01*
X0018251Y-0010778D01*
D02*
G37*
G36*
X0009510D02*
X0009598Y-0010782D01*
X0009769Y-0010810D01*
X0009930Y-0010851D01*
X0010004Y-0010875D01*
X0010069Y-0010898D01*
X0010133Y-0010921D01*
X0010189Y-0010944D01*
X0010240Y-0010962D01*
X0010281Y-0010985D01*
X0010314Y-0010999D01*
X0010341Y-0011013D01*
X0010355Y-0011018D01*
X0010360Y-0011022D01*
X0010420Y-0011055D01*
X0010480Y-0011096D01*
X0010609Y-0011179D01*
X0010729Y-0011272D01*
X0010845Y-0011360D01*
X0010900Y-0011401D01*
X0010947Y-0011438D01*
X0010993Y-0011475D01*
X0011030Y-0011507D01*
X0011057Y-0011530D01*
X0011081Y-0011549D01*
X0011094Y-0011563D01*
X0011099Y-0011568D01*
X0011154Y-0011627D01*
X0011196Y-0011688D01*
X0011228Y-0011752D01*
X0011247Y-0011808D01*
X0011261Y-0011858D01*
X0011265Y-0011900D01*
X0011270Y-0011928D01*
Y-0011932D01*
Y-0011937D01*
X0011261Y-0012006D01*
X0011242Y-0012071D01*
X0011215Y-0012122D01*
X0011182Y-0012168D01*
X0011154Y-0012200D01*
X0011127Y-0012228D01*
X0011108Y-0012242D01*
X0011099Y-0012247D01*
X0011044Y-0012274D01*
X0010988Y-0012297D01*
X0010933Y-0012311D01*
X0010882Y-0012325D01*
X0010836Y-0012330D01*
X0010803Y-0012334D01*
X0010771D01*
X0010739Y-0012330D01*
X0010702Y-0012320D01*
X0010660Y-0012302D01*
X0010619Y-0012284D01*
X0010526Y-0012233D01*
X0010434Y-0012168D01*
X0010346Y-0012108D01*
X0010309Y-0012080D01*
X0010272Y-0012057D01*
X0010244Y-0012039D01*
X0010226Y-0012020D01*
X0010212Y-0012011D01*
X0010207Y-0012006D01*
X0010129Y-0011946D01*
X0010055Y-0011896D01*
X0009981Y-0011854D01*
X0009907Y-0011812D01*
X0009838Y-0011780D01*
X0009773Y-0011757D01*
X0009713Y-0011734D01*
X0009658Y-0011715D01*
X0009602Y-0011701D01*
X0009556Y-0011692D01*
X0009519Y-0011683D01*
X0009482Y-0011678D01*
X0009454Y-0011674D01*
X0009417D01*
X0009339Y-0011678D01*
X0009260Y-0011692D01*
X0009191Y-0011715D01*
X0009126Y-0011738D01*
X0009071Y-0011766D01*
X0009025Y-0011785D01*
X0008997Y-0011803D01*
X0008992Y-0011808D01*
X0008988D01*
X0008951Y-0011831D01*
X0008914Y-0011854D01*
X0008858Y-0011905D01*
X0008821Y-0011946D01*
X0008794Y-0011988D01*
X0008775Y-0012020D01*
X0008771Y-0012048D01*
X0008766Y-0012066D01*
Y-0012071D01*
X0008771Y-0012163D01*
X0008789Y-0012256D01*
X0008817Y-0012344D01*
X0008854Y-0012431D01*
X0008895Y-0012510D01*
X0008941Y-0012584D01*
X0008992Y-0012658D01*
X0009043Y-0012722D01*
X0009094Y-0012778D01*
X0009145Y-0012833D01*
X0009191Y-0012875D01*
X0009233Y-0012916D01*
X0009269Y-0012944D01*
X0009297Y-0012967D01*
X0009316Y-0012981D01*
X0009320Y-0012986D01*
X0009496Y-0013101D01*
X0009667Y-0013212D01*
X0009824Y-0013314D01*
X0009898Y-0013365D01*
X0009967Y-0013411D01*
X0010032Y-0013452D01*
X0010087Y-0013489D01*
X0010138Y-0013522D01*
X0010180Y-0013550D01*
X0010217Y-0013573D01*
X0010240Y-0013591D01*
X0010258Y-0013600D01*
X0010263Y-0013605D01*
X0010355Y-0013670D01*
X0010438Y-0013730D01*
X0010517Y-0013794D01*
X0010586Y-0013854D01*
X0010651Y-0013910D01*
X0010711Y-0013970D01*
X0010766Y-0014021D01*
X0010813Y-0014072D01*
X0010854Y-0014118D01*
X0010891Y-0014159D01*
X0010919Y-0014196D01*
X0010947Y-0014224D01*
X0010965Y-0014252D01*
X0010979Y-0014270D01*
X0010984Y-0014279D01*
X0010988Y-0014284D01*
X0011039Y-0014367D01*
X0011081Y-0014455D01*
X0011122Y-0014547D01*
X0011154Y-0014640D01*
X0011182Y-0014732D01*
X0011205Y-0014825D01*
X0011224Y-0014912D01*
X0011238Y-0014996D01*
X0011252Y-0015074D01*
X0011261Y-0015148D01*
X0011265Y-0015213D01*
X0011270Y-0015268D01*
X0011275Y-0015314D01*
Y-0015351D01*
Y-0015370D01*
Y-0015379D01*
X0011270Y-0015495D01*
X0011265Y-0015596D01*
X0011252Y-0015679D01*
X0011238Y-0015749D01*
X0011228Y-0015804D01*
X0011215Y-0015841D01*
X0011210Y-0015864D01*
X0011205Y-0015873D01*
X0011182Y-0015920D01*
X0011154Y-0015957D01*
X0011127Y-0015989D01*
X0011090Y-0016021D01*
X0011021Y-0016067D01*
X0010951Y-0016095D01*
X0010887Y-0016114D01*
X0010831Y-0016123D01*
X0010808Y-0016127D01*
X0010748D01*
X0010711Y-0016132D01*
X0010683Y-0016137D01*
X0010674Y-0016141D01*
X0010669D01*
X0010619Y-0016150D01*
X0010582Y-0016155D01*
X0010498D01*
X0010434Y-0016150D01*
X0010369Y-0016146D01*
X0010304Y-0016141D01*
X0010244Y-0016137D01*
X0010193Y-0016132D01*
X0010180D01*
X0010166Y-0016127D01*
X0010152D01*
X0010055Y-0016118D01*
X0009972Y-0016109D01*
X0009907Y-0016104D01*
X0009847Y-0016100D01*
X0009805Y-0016095D01*
X0009750D01*
X0008720Y-0016100D01*
X0008683D01*
X0008641Y-0016104D01*
X0008558Y-0016114D01*
X0008517Y-0016118D01*
X0008484Y-0016123D01*
X0008466Y-0016127D01*
X0008456D01*
X0008392Y-0016137D01*
X0008336Y-0016141D01*
X0008290Y-0016150D01*
X0008248D01*
X0008221Y-0016155D01*
X0008184D01*
X0008110Y-0016150D01*
X0008045Y-0016132D01*
X0007990Y-0016109D01*
X0007939Y-0016081D01*
X0007897Y-0016058D01*
X0007870Y-0016035D01*
X0007851Y-0016016D01*
X0007847Y-0016012D01*
X0007800Y-0015957D01*
X0007768Y-0015906D01*
X0007745Y-0015850D01*
X0007731Y-0015799D01*
X0007717Y-0015758D01*
X0007713Y-0015725D01*
Y-0015702D01*
Y-0015693D01*
X0007717Y-0015647D01*
X0007727Y-0015601D01*
X0007745Y-0015559D01*
X0007768Y-0015522D01*
X0007828Y-0015448D01*
X0007893Y-0015388D01*
X0007962Y-0015342D01*
X0008022Y-0015305D01*
X0008045Y-0015296D01*
X0008064Y-0015287D01*
X0008073Y-0015277D01*
X0008078D01*
X0008189Y-0015236D01*
X0008295Y-0015203D01*
X0008396Y-0015180D01*
X0008484Y-0015162D01*
X0008563Y-0015153D01*
X0008595D01*
X0008623Y-0015148D01*
X0008812D01*
X0008891Y-0015153D01*
X0008979D01*
X0009154Y-0015162D01*
X0009330Y-0015167D01*
X0009413Y-0015171D01*
X0009487Y-0015176D01*
X0009556Y-0015180D01*
X0009621Y-0015185D01*
X0009672D01*
X0009708Y-0015190D01*
X0009741D01*
X0009870Y-0015199D01*
X0009986Y-0015208D01*
X0010083Y-0015217D01*
X0010161Y-0015226D01*
X0010226Y-0015231D01*
X0010267Y-0015236D01*
X0010295Y-0015240D01*
X0010304D01*
X0010291Y-0015139D01*
X0010258Y-0015037D01*
X0010221Y-0014945D01*
X0010175Y-0014852D01*
X0010120Y-0014764D01*
X0010060Y-0014686D01*
X0009995Y-0014607D01*
X0009930Y-0014538D01*
X0009866Y-0014473D01*
X0009805Y-0014418D01*
X0009750Y-0014367D01*
X0009699Y-0014330D01*
X0009653Y-0014293D01*
X0009621Y-0014270D01*
X0009602Y-0014256D01*
X0009593Y-0014252D01*
X0009431Y-0014150D01*
X0009269Y-0014048D01*
X0009122Y-0013956D01*
X0009057Y-0013914D01*
X0008992Y-0013873D01*
X0008932Y-0013836D01*
X0008882Y-0013804D01*
X0008835Y-0013776D01*
X0008794Y-0013748D01*
X0008761Y-0013730D01*
X0008738Y-0013716D01*
X0008724Y-0013706D01*
X0008720Y-0013702D01*
X0008637Y-0013642D01*
X0008558Y-0013582D01*
X0008484Y-0013526D01*
X0008420Y-0013466D01*
X0008359Y-0013411D01*
X0008304Y-0013360D01*
X0008253Y-0013309D01*
X0008207Y-0013258D01*
X0008170Y-0013217D01*
X0008138Y-0013175D01*
X0008110Y-0013143D01*
X0008087Y-0013111D01*
X0008068Y-0013088D01*
X0008055Y-0013069D01*
X0008050Y-0013060D01*
X0008045Y-0013055D01*
X0007994Y-0012977D01*
X0007953Y-0012893D01*
X0007916Y-0012806D01*
X0007884Y-0012722D01*
X0007856Y-0012635D01*
X0007837Y-0012551D01*
X0007819Y-0012473D01*
X0007800Y-0012394D01*
X0007791Y-0012320D01*
X0007782Y-0012256D01*
X0007777Y-0012196D01*
X0007773Y-0012145D01*
X0007768Y-0012099D01*
Y-0012071D01*
Y-0012048D01*
Y-0012043D01*
X0007773Y-0011937D01*
X0007791Y-0011835D01*
X0007819Y-0011738D01*
X0007856Y-0011646D01*
X0007897Y-0011563D01*
X0007944Y-0011484D01*
X0007994Y-0011410D01*
X0008045Y-0011346D01*
X0008101Y-0011290D01*
X0008151Y-0011240D01*
X0008198Y-0011193D01*
X0008239Y-0011156D01*
X0008276Y-0011129D01*
X0008304Y-0011110D01*
X0008322Y-0011096D01*
X0008327Y-0011092D01*
X0008420Y-0011036D01*
X0008512Y-0010985D01*
X0008609Y-0010944D01*
X0008701Y-0010907D01*
X0008794Y-0010875D01*
X0008886Y-0010851D01*
X0008974Y-0010828D01*
X0009052Y-0010814D01*
X0009131Y-0010801D01*
X0009200Y-0010791D01*
X0009260Y-0010782D01*
X0009316Y-0010778D01*
X0009357Y-0010773D01*
X0009417D01*
X0009510Y-0010778D01*
D02*
G37*
G36*
X0004820Y-0010708D02*
X0004853Y-0010713D01*
X0004927Y-0010740D01*
X0004996Y-0010778D01*
X0005061Y-0010819D01*
X0005121Y-0010861D01*
X0005172Y-0010898D01*
X0005190Y-0010911D01*
X0005199Y-0010925D01*
X0005209Y-0010930D01*
X0005213Y-0010934D01*
X0005347Y-0011059D01*
X0005407Y-0011119D01*
X0005463Y-0011170D01*
X0005509Y-0011216D01*
X0005541Y-0011249D01*
X0005564Y-0011272D01*
X0005573Y-0011281D01*
X0005703Y-0011401D01*
X0005828Y-0011521D01*
X0005943Y-0011641D01*
X0006049Y-0011766D01*
X0006151Y-0011891D01*
X0006243Y-0012016D01*
X0006331Y-0012140D01*
X0006410Y-0012270D01*
X0006484Y-0012394D01*
X0006548Y-0012519D01*
X0006613Y-0012639D01*
X0006668Y-0012764D01*
X0006715Y-0012884D01*
X0006761Y-0013000D01*
X0006803Y-0013115D01*
X0006839Y-0013226D01*
X0006899Y-0013434D01*
X0006923Y-0013536D01*
X0006941Y-0013628D01*
X0006960Y-0013716D01*
X0006973Y-0013799D01*
X0006987Y-0013878D01*
X0006996Y-0013947D01*
X0007006Y-0014011D01*
X0007010Y-0014067D01*
X0007015Y-0014118D01*
Y-0014159D01*
X0007020Y-0014192D01*
Y-0014215D01*
Y-0014229D01*
Y-0014233D01*
X0007015Y-0014400D01*
X0007001Y-0014557D01*
X0006983Y-0014705D01*
X0006960Y-0014848D01*
X0006932Y-0014977D01*
X0006899Y-0015097D01*
X0006867Y-0015208D01*
X0006830Y-0015310D01*
X0006798Y-0015397D01*
X0006765Y-0015476D01*
X0006733Y-0015545D01*
X0006705Y-0015601D01*
X0006678Y-0015647D01*
X0006659Y-0015675D01*
X0006650Y-0015698D01*
X0006645Y-0015702D01*
X0006553Y-0015827D01*
X0006447Y-0015933D01*
X0006336Y-0016026D01*
X0006216Y-0016104D01*
X0006096Y-0016174D01*
X0005976Y-0016229D01*
X0005855Y-0016275D01*
X0005735Y-0016312D01*
X0005624Y-0016340D01*
X0005518Y-0016363D01*
X0005426Y-0016377D01*
X0005342Y-0016391D01*
X0005273Y-0016395D01*
X0005246D01*
X0005222Y-0016400D01*
X0005181D01*
X0005019Y-0016395D01*
X0004867Y-0016377D01*
X0004719Y-0016349D01*
X0004585Y-0016312D01*
X0004456Y-0016271D01*
X0004340Y-0016220D01*
X0004234Y-0016169D01*
X0004137Y-0016118D01*
X0004049Y-0016067D01*
X0003975Y-0016017D01*
X0003910Y-0015966D01*
X0003855Y-0015924D01*
X0003813Y-0015887D01*
X0003781Y-0015859D01*
X0003762Y-0015841D01*
X0003758Y-0015836D01*
X0003670Y-0015730D01*
X0003592Y-0015619D01*
X0003522Y-0015508D01*
X0003462Y-0015393D01*
X0003416Y-0015273D01*
X0003374Y-0015157D01*
X0003342Y-0015046D01*
X0003314Y-0014940D01*
X0003291Y-0014839D01*
X0003277Y-0014741D01*
X0003263Y-0014658D01*
X0003259Y-0014589D01*
X0003254Y-0014529D01*
X0003250Y-0014483D01*
Y-0014455D01*
Y-0014450D01*
Y-0014446D01*
X0003254Y-0014298D01*
X0003268Y-0014159D01*
X0003296Y-0014025D01*
X0003324Y-0013905D01*
X0003361Y-0013790D01*
X0003402Y-0013688D01*
X0003444Y-0013591D01*
X0003490Y-0013503D01*
X0003536Y-0013429D01*
X0003578Y-0013365D01*
X0003619Y-0013305D01*
X0003656Y-0013258D01*
X0003684Y-0013221D01*
X0003707Y-0013198D01*
X0003726Y-0013180D01*
X0003730Y-0013175D01*
X0003823Y-0013097D01*
X0003924Y-0013023D01*
X0004035Y-0012963D01*
X0004146Y-0012912D01*
X0004257Y-0012866D01*
X0004368Y-0012829D01*
X0004479Y-0012801D01*
X0004585Y-0012773D01*
X0004687Y-0012755D01*
X0004783Y-0012741D01*
X0004867Y-0012732D01*
X0004941Y-0012727D01*
X0005001Y-0012722D01*
X0005047Y-0012718D01*
X0005084D01*
X0005190Y-0012722D01*
X0005241Y-0012727D01*
X0005287Y-0012736D01*
X0005324Y-0012741D01*
X0005356Y-0012750D01*
X0005375Y-0012755D01*
X0005384D01*
X0005509Y-0012787D01*
X0005564Y-0012806D01*
X0005620Y-0012824D01*
X0005666Y-0012838D01*
X0005703Y-0012852D01*
X0005726Y-0012861D01*
X0005735Y-0012866D01*
X0005675Y-0012750D01*
X0005601Y-0012639D01*
X0005527Y-0012538D01*
X0005449Y-0012441D01*
X0005379Y-0012362D01*
X0005352Y-0012330D01*
X0005324Y-0012302D01*
X0005306Y-0012279D01*
X0005287Y-0012261D01*
X0005278Y-0012251D01*
X0005273Y-0012247D01*
X0005167Y-0012150D01*
X0005061Y-0012053D01*
X0004964Y-0011965D01*
X0004876Y-0011886D01*
X0004802Y-0011817D01*
X0004770Y-0011789D01*
X0004747Y-0011766D01*
X0004724Y-0011748D01*
X0004710Y-0011734D01*
X0004700Y-0011725D01*
X0004696Y-0011720D01*
X0004622Y-0011651D01*
X0004562Y-0011581D01*
X0004506Y-0011521D01*
X0004460Y-0011466D01*
X0004423Y-0011415D01*
X0004391Y-0011369D01*
X0004363Y-0011327D01*
X0004340Y-0011290D01*
X0004326Y-0011258D01*
X0004312Y-0011230D01*
X0004298Y-0011189D01*
X0004294Y-0011166D01*
Y-0011156D01*
X0004303Y-0011087D01*
X0004321Y-0011027D01*
X0004349Y-0010971D01*
X0004377Y-0010925D01*
X0004405Y-0010888D01*
X0004428Y-0010861D01*
X0004446Y-0010842D01*
X0004451Y-0010837D01*
X0004506Y-0010791D01*
X0004566Y-0010759D01*
X0004622Y-0010736D01*
X0004673Y-0010722D01*
X0004719Y-0010708D01*
X0004756Y-0010704D01*
X0004788D01*
X0004820Y-0010708D01*
D02*
G37*
G36*
X0030642Y-0010657D02*
X0030743Y-0010671D01*
X0030840Y-0010690D01*
X0030937Y-0010717D01*
X0031025Y-0010750D01*
X0031113Y-0010782D01*
X0031191Y-0010819D01*
X0031265Y-0010856D01*
X0031335Y-0010898D01*
X0031395Y-0010934D01*
X0031450Y-0010967D01*
X0031496Y-0010999D01*
X0031529Y-0011027D01*
X0031556Y-0011045D01*
X0031575Y-0011059D01*
X0031580Y-0011064D01*
X0031704Y-0011175D01*
X0031829Y-0011295D01*
X0031940Y-0011420D01*
X0032051Y-0011549D01*
X0032148Y-0011674D01*
X0032240Y-0011803D01*
X0032328Y-0011928D01*
X0032406Y-0012043D01*
X0032476Y-0012154D01*
X0032536Y-0012261D01*
X0032587Y-0012353D01*
X0032633Y-0012431D01*
X0032665Y-0012496D01*
X0032693Y-0012547D01*
X0032698Y-0012565D01*
X0032707Y-0012579D01*
X0032711Y-0012584D01*
Y-0012588D01*
X0032790Y-0012764D01*
X0032855Y-0012940D01*
X0032915Y-0013106D01*
X0032965Y-0013272D01*
X0033007Y-0013429D01*
X0033044Y-0013582D01*
X0033072Y-0013725D01*
X0033095Y-0013859D01*
X0033113Y-0013979D01*
X0033127Y-0014090D01*
X0033136Y-0014187D01*
X0033141Y-0014270D01*
X0033146Y-0014335D01*
X0033150Y-0014381D01*
Y-0014400D01*
Y-0014413D01*
Y-0014418D01*
Y-0014423D01*
X0033146Y-0014603D01*
X0033132Y-0014769D01*
X0033109Y-0014926D01*
X0033076Y-0015069D01*
X0033044Y-0015199D01*
X0033002Y-0015324D01*
X0032961Y-0015430D01*
X0032919Y-0015527D01*
X0032878Y-0015615D01*
X0032836Y-0015688D01*
X0032795Y-0015753D01*
X0032762Y-0015804D01*
X0032730Y-0015846D01*
X0032707Y-0015873D01*
X0032693Y-0015892D01*
X0032688Y-0015896D01*
X0032596Y-0015984D01*
X0032494Y-0016058D01*
X0032388Y-0016123D01*
X0032272Y-0016178D01*
X0032157Y-0016229D01*
X0032041Y-0016266D01*
X0031926Y-0016298D01*
X0031815Y-0016326D01*
X0031709Y-0016345D01*
X0031612Y-0016358D01*
X0031524Y-0016372D01*
X0031446Y-0016377D01*
X0031381Y-0016382D01*
X0031335Y-0016386D01*
X0031293D01*
X0031113Y-0016377D01*
X0030937Y-0016358D01*
X0030771Y-0016326D01*
X0030609Y-0016289D01*
X0030461Y-0016238D01*
X0030318Y-0016187D01*
X0030189Y-0016132D01*
X0030069Y-0016072D01*
X0029958Y-0016012D01*
X0029861Y-0015957D01*
X0029778Y-0015906D01*
X0029708Y-0015855D01*
X0029653Y-0015818D01*
X0029611Y-0015786D01*
X0029588Y-0015762D01*
X0029579Y-0015758D01*
X0029450Y-0015638D01*
X0029330Y-0015508D01*
X0029223Y-0015374D01*
X0029126Y-0015236D01*
X0029039Y-0015092D01*
X0028960Y-0014954D01*
X0028891Y-0014820D01*
X0028826Y-0014691D01*
X0028775Y-0014566D01*
X0028734Y-0014455D01*
X0028697Y-0014353D01*
X0028669Y-0014261D01*
X0028646Y-0014192D01*
X0028637Y-0014159D01*
X0028632Y-0014136D01*
X0028623Y-0014118D01*
Y-0014104D01*
X0028618Y-0014095D01*
Y-0014090D01*
X0028581Y-0014062D01*
X0028549Y-0014035D01*
X0028498Y-0013970D01*
X0028461Y-0013905D01*
X0028438Y-0013840D01*
X0028419Y-0013785D01*
X0028415Y-0013739D01*
X0028410Y-0013720D01*
Y-0013706D01*
Y-0013702D01*
Y-0013697D01*
X0028415Y-0013623D01*
X0028433Y-0013559D01*
X0028456Y-0013503D01*
X0028479Y-0013452D01*
X0028507Y-0013416D01*
X0028530Y-0013383D01*
X0028549Y-0013365D01*
X0028553Y-0013360D01*
X0028609Y-0013314D01*
X0028669Y-0013282D01*
X0028729Y-0013254D01*
X0028784Y-0013240D01*
X0028831Y-0013231D01*
X0028868Y-0013221D01*
X0029080D01*
X0029251Y-0013226D01*
X0029413Y-0013231D01*
X0029565Y-0013240D01*
X0029713Y-0013249D01*
X0029847Y-0013258D01*
X0029976Y-0013272D01*
X0030092Y-0013282D01*
X0030198Y-0013291D01*
X0030290Y-0013305D01*
X0030374Y-0013314D01*
X0030443Y-0013323D01*
X0030494Y-0013332D01*
X0030535Y-0013337D01*
X0030558Y-0013342D01*
X0030568D01*
X0030683Y-0013360D01*
X0030790Y-0013383D01*
X0030891Y-0013411D01*
X0030983Y-0013434D01*
X0031071Y-0013462D01*
X0031155Y-0013489D01*
X0031228Y-0013517D01*
X0031298Y-0013550D01*
X0031362Y-0013577D01*
X0031422Y-0013610D01*
X0031478Y-0013637D01*
X0031524Y-0013670D01*
X0031570Y-0013702D01*
X0031607Y-0013734D01*
X0031677Y-0013794D01*
X0031727Y-0013850D01*
X0031769Y-0013905D01*
X0031797Y-0013956D01*
X0031815Y-0013998D01*
X0031824Y-0014035D01*
X0031829Y-0014062D01*
X0031834Y-0014081D01*
Y-0014085D01*
X0031829Y-0014150D01*
X0031815Y-0014210D01*
X0031792Y-0014266D01*
X0031769Y-0014316D01*
X0031746Y-0014353D01*
X0031723Y-0014386D01*
X0031709Y-0014404D01*
X0031704Y-0014409D01*
X0031649Y-0014464D01*
X0031589Y-0014501D01*
X0031529Y-0014529D01*
X0031469Y-0014552D01*
X0031418Y-0014561D01*
X0031381Y-0014566D01*
X0031353Y-0014570D01*
X0031344D01*
X0031302Y-0014566D01*
X0031265Y-0014561D01*
X0031228Y-0014552D01*
X0031196Y-0014543D01*
X0031168Y-0014534D01*
X0031145Y-0014529D01*
X0031131Y-0014520D01*
X0031127D01*
X0031011Y-0014473D01*
X0030891Y-0014432D01*
X0030651Y-0014358D01*
X0030415Y-0014298D01*
X0030304Y-0014275D01*
X0030193Y-0014256D01*
X0030092Y-0014238D01*
X0030004Y-0014224D01*
X0029921Y-0014215D01*
X0029847Y-0014206D01*
X0029792Y-0014201D01*
X0029750Y-0014196D01*
X0029722Y-0014192D01*
X0029713D01*
X0029755Y-0014302D01*
X0029801Y-0014409D01*
X0029847Y-0014510D01*
X0029902Y-0014598D01*
X0029953Y-0014686D01*
X0030004Y-0014760D01*
X0030059Y-0014834D01*
X0030110Y-0014894D01*
X0030157Y-0014949D01*
X0030203Y-0015000D01*
X0030244Y-0015042D01*
X0030281Y-0015074D01*
X0030309Y-0015102D01*
X0030332Y-0015120D01*
X0030346Y-0015130D01*
X0030351Y-0015134D01*
X0030429Y-0015185D01*
X0030508Y-0015231D01*
X0030586Y-0015273D01*
X0030669Y-0015310D01*
X0030748Y-0015337D01*
X0030827Y-0015360D01*
X0030900Y-0015379D01*
X0030974Y-0015397D01*
X0031039Y-0015411D01*
X0031104Y-0015421D01*
X0031155Y-0015425D01*
X0031201Y-0015430D01*
X0031242Y-0015434D01*
X0031293D01*
X0031385Y-0015430D01*
X0031473Y-0015425D01*
X0031552Y-0015416D01*
X0031621Y-0015402D01*
X0031686Y-0015384D01*
X0031746Y-0015365D01*
X0031797Y-0015347D01*
X0031838Y-0015324D01*
X0031880Y-0015305D01*
X0031912Y-0015287D01*
X0031935Y-0015268D01*
X0031958Y-0015250D01*
X0031977Y-0015236D01*
X0031986Y-0015226D01*
X0031995Y-0015217D01*
X0032023Y-0015171D01*
X0032051Y-0015120D01*
X0032074Y-0015065D01*
X0032092Y-0015005D01*
X0032125Y-0014871D01*
X0032143Y-0014741D01*
X0032152Y-0014677D01*
X0032157Y-0014617D01*
X0032162Y-0014566D01*
Y-0014515D01*
X0032166Y-0014478D01*
Y-0014446D01*
Y-0014427D01*
Y-0014423D01*
X0032157Y-0014210D01*
X0032134Y-0014002D01*
X0032092Y-0013799D01*
X0032046Y-0013605D01*
X0031986Y-0013416D01*
X0031921Y-0013240D01*
X0031852Y-0013078D01*
X0031778Y-0012926D01*
X0031704Y-0012783D01*
X0031635Y-0012658D01*
X0031570Y-0012551D01*
X0031510Y-0012459D01*
X0031487Y-0012422D01*
X0031459Y-0012385D01*
X0031441Y-0012358D01*
X0031422Y-0012334D01*
X0031409Y-0012311D01*
X0031399Y-0012297D01*
X0031390Y-0012293D01*
Y-0012288D01*
X0031293Y-0012168D01*
X0031201Y-0012062D01*
X0031113Y-0011974D01*
X0031030Y-0011896D01*
X0030956Y-0011831D01*
X0030887Y-0011775D01*
X0030822Y-0011729D01*
X0030762Y-0011692D01*
X0030711Y-0011665D01*
X0030669Y-0011646D01*
X0030628Y-0011627D01*
X0030595Y-0011618D01*
X0030572Y-0011614D01*
X0030554Y-0011609D01*
X0030485D01*
X0030429Y-0011618D01*
X0030314Y-0011641D01*
X0030203Y-0011674D01*
X0030101Y-0011706D01*
X0030059Y-0011725D01*
X0030018Y-0011743D01*
X0029981Y-0011761D01*
X0029949Y-0011775D01*
X0029921Y-0011789D01*
X0029902Y-0011799D01*
X0029893Y-0011803D01*
X0029889Y-0011808D01*
X0029824Y-0011845D01*
X0029764Y-0011872D01*
X0029713Y-0011900D01*
X0029662Y-0011923D01*
X0029621Y-0011942D01*
X0029584Y-0011956D01*
X0029547Y-0011969D01*
X0029519Y-0011983D01*
X0029473Y-0011997D01*
X0029445Y-0012002D01*
X0029427Y-0012006D01*
X0029422D01*
X0029348Y-0012002D01*
X0029279Y-0011983D01*
X0029219Y-0011960D01*
X0029168Y-0011932D01*
X0029126Y-0011905D01*
X0029099Y-0011882D01*
X0029076Y-0011863D01*
X0029071Y-0011858D01*
X0029020Y-0011803D01*
X0028983Y-0011743D01*
X0028960Y-0011688D01*
X0028942Y-0011632D01*
X0028932Y-0011591D01*
X0028923Y-0011554D01*
Y-0011530D01*
Y-0011521D01*
X0028932Y-0011461D01*
X0028951Y-0011401D01*
X0028988Y-0011341D01*
X0029029Y-0011286D01*
X0029085Y-0011230D01*
X0029140Y-0011179D01*
X0029269Y-0011087D01*
X0029399Y-0011013D01*
X0029454Y-0010981D01*
X0029510Y-0010953D01*
X0029551Y-0010930D01*
X0029588Y-0010916D01*
X0029607Y-0010907D01*
X0029616Y-0010902D01*
X0029722Y-0010856D01*
X0029824Y-0010819D01*
X0029921Y-0010787D01*
X0030009Y-0010759D01*
X0030092Y-0010736D01*
X0030166Y-0010713D01*
X0030235Y-0010699D01*
X0030300Y-0010685D01*
X0030355Y-0010671D01*
X0030401Y-0010667D01*
X0030443Y-0010662D01*
X0030480Y-0010657D01*
X0030503Y-0010653D01*
X0030540D01*
X0030642Y-0010657D01*
D02*
G37*
G36*
X0025772D02*
X0025874Y-0010671D01*
X0025971Y-0010690D01*
X0026068Y-0010717D01*
X0026156Y-0010750D01*
X0026243Y-0010782D01*
X0026322Y-0010819D01*
X0026396Y-0010856D01*
X0026465Y-0010898D01*
X0026525Y-0010934D01*
X0026581Y-0010967D01*
X0026627Y-0010999D01*
X0026659Y-0011027D01*
X0026687Y-0011045D01*
X0026705Y-0011059D01*
X0026710Y-0011064D01*
X0026835Y-0011175D01*
X0026959Y-0011295D01*
X0027070Y-0011420D01*
X0027181Y-0011549D01*
X0027278Y-0011674D01*
X0027371Y-0011803D01*
X0027459Y-0011928D01*
X0027537Y-0012043D01*
X0027606Y-0012154D01*
X0027666Y-0012261D01*
X0027717Y-0012353D01*
X0027763Y-0012431D01*
X0027796Y-0012496D01*
X0027823Y-0012547D01*
X0027828Y-0012565D01*
X0027837Y-0012579D01*
X0027842Y-0012584D01*
Y-0012588D01*
X0027920Y-0012764D01*
X0027985Y-0012940D01*
X0028045Y-0013106D01*
X0028096Y-0013272D01*
X0028138Y-0013429D01*
X0028175Y-0013582D01*
X0028202Y-0013725D01*
X0028225Y-0013859D01*
X0028244Y-0013979D01*
X0028258Y-0014090D01*
X0028267Y-0014187D01*
X0028272Y-0014270D01*
X0028276Y-0014335D01*
X0028281Y-0014381D01*
Y-0014400D01*
Y-0014413D01*
Y-0014418D01*
Y-0014423D01*
X0028276Y-0014603D01*
X0028262Y-0014769D01*
X0028239Y-0014926D01*
X0028207Y-0015069D01*
X0028175Y-0015199D01*
X0028133Y-0015324D01*
X0028091Y-0015430D01*
X0028050Y-0015527D01*
X0028008Y-0015615D01*
X0027967Y-0015688D01*
X0027925Y-0015753D01*
X0027893Y-0015804D01*
X0027860Y-0015846D01*
X0027837Y-0015873D01*
X0027823Y-0015892D01*
X0027819Y-0015896D01*
X0027726Y-0015984D01*
X0027625Y-0016058D01*
X0027518Y-0016123D01*
X0027403Y-0016178D01*
X0027288Y-0016229D01*
X0027172Y-0016266D01*
X0027057Y-0016298D01*
X0026946Y-0016326D01*
X0026839Y-0016345D01*
X0026742Y-0016358D01*
X0026655Y-0016372D01*
X0026576Y-0016377D01*
X0026511Y-0016382D01*
X0026465Y-0016386D01*
X0026424D01*
X0026243Y-0016377D01*
X0026068Y-0016358D01*
X0025901Y-0016326D01*
X0025740Y-0016289D01*
X0025592Y-0016238D01*
X0025449Y-0016187D01*
X0025319Y-0016132D01*
X0025199Y-0016072D01*
X0025088Y-0016012D01*
X0024991Y-0015957D01*
X0024908Y-0015906D01*
X0024839Y-0015855D01*
X0024783Y-0015818D01*
X0024742Y-0015786D01*
X0024719Y-0015762D01*
X0024710Y-0015758D01*
X0024580Y-0015638D01*
X0024460Y-0015508D01*
X0024354Y-0015374D01*
X0024257Y-0015236D01*
X0024169Y-0015092D01*
X0024091Y-0014954D01*
X0024021Y-0014820D01*
X0023956Y-0014691D01*
X0023906Y-0014566D01*
X0023864Y-0014455D01*
X0023827Y-0014353D01*
X0023799Y-0014261D01*
X0023776Y-0014192D01*
X0023767Y-0014159D01*
X0023763Y-0014136D01*
X0023753Y-0014118D01*
Y-0014104D01*
X0023749Y-0014095D01*
Y-0014090D01*
X0023712Y-0014062D01*
X0023679Y-0014035D01*
X0023629Y-0013970D01*
X0023592Y-0013905D01*
X0023568Y-0013840D01*
X0023550Y-0013785D01*
X0023545Y-0013739D01*
X0023541Y-0013720D01*
Y-0013706D01*
Y-0013702D01*
Y-0013697D01*
X0023545Y-0013623D01*
X0023564Y-0013559D01*
X0023587Y-0013503D01*
X0023610Y-0013452D01*
X0023638Y-0013416D01*
X0023661Y-0013383D01*
X0023679Y-0013365D01*
X0023684Y-0013360D01*
X0023739Y-0013314D01*
X0023799Y-0013282D01*
X0023859Y-0013254D01*
X0023915Y-0013240D01*
X0023961Y-0013231D01*
X0023998Y-0013221D01*
X0024211D01*
X0024382Y-0013226D01*
X0024543Y-0013231D01*
X0024696Y-0013240D01*
X0024844Y-0013249D01*
X0024978Y-0013258D01*
X0025107Y-0013272D01*
X0025222Y-0013282D01*
X0025329Y-0013291D01*
X0025421Y-0013305D01*
X0025504Y-0013314D01*
X0025574Y-0013323D01*
X0025624Y-0013332D01*
X0025666Y-0013337D01*
X0025689Y-0013342D01*
X0025698D01*
X0025814Y-0013360D01*
X0025920Y-0013383D01*
X0026022Y-0013411D01*
X0026114Y-0013434D01*
X0026202Y-0013462D01*
X0026285Y-0013489D01*
X0026359Y-0013517D01*
X0026428Y-0013550D01*
X0026493Y-0013577D01*
X0026553Y-0013610D01*
X0026608Y-0013637D01*
X0026655Y-0013670D01*
X0026701Y-0013702D01*
X0026738Y-0013734D01*
X0026807Y-0013794D01*
X0026858Y-0013850D01*
X0026899Y-0013905D01*
X0026927Y-0013956D01*
X0026946Y-0013998D01*
X0026955Y-0014035D01*
X0026959Y-0014062D01*
X0026964Y-0014081D01*
Y-0014085D01*
X0026959Y-0014150D01*
X0026946Y-0014210D01*
X0026923Y-0014266D01*
X0026899Y-0014316D01*
X0026876Y-0014353D01*
X0026853Y-0014386D01*
X0026839Y-0014404D01*
X0026835Y-0014409D01*
X0026779Y-0014464D01*
X0026719Y-0014501D01*
X0026659Y-0014529D01*
X0026599Y-0014552D01*
X0026548Y-0014561D01*
X0026511Y-0014566D01*
X0026484Y-0014570D01*
X0026474D01*
X0026433Y-0014566D01*
X0026396Y-0014561D01*
X0026359Y-0014552D01*
X0026327Y-0014543D01*
X0026299Y-0014534D01*
X0026276Y-0014529D01*
X0026262Y-0014520D01*
X0026257D01*
X0026142Y-0014473D01*
X0026022Y-0014432D01*
X0025781Y-0014358D01*
X0025546Y-0014298D01*
X0025435Y-0014275D01*
X0025324Y-0014256D01*
X0025222Y-0014238D01*
X0025135Y-0014224D01*
X0025052Y-0014215D01*
X0024978Y-0014206D01*
X0024922Y-0014201D01*
X0024881Y-0014196D01*
X0024853Y-0014192D01*
X0024844D01*
X0024885Y-0014302D01*
X0024931Y-0014409D01*
X0024978Y-0014510D01*
X0025033Y-0014598D01*
X0025084Y-0014686D01*
X0025135Y-0014760D01*
X0025190Y-0014834D01*
X0025241Y-0014894D01*
X0025287Y-0014949D01*
X0025333Y-0015000D01*
X0025375Y-0015042D01*
X0025412Y-0015074D01*
X0025440Y-0015102D01*
X0025463Y-0015120D01*
X0025477Y-0015130D01*
X0025481Y-0015134D01*
X0025560Y-0015185D01*
X0025638Y-0015231D01*
X0025717Y-0015273D01*
X0025800Y-0015310D01*
X0025878Y-0015337D01*
X0025957Y-0015360D01*
X0026031Y-0015379D01*
X0026105Y-0015397D01*
X0026169Y-0015411D01*
X0026234Y-0015421D01*
X0026285Y-0015425D01*
X0026331Y-0015430D01*
X0026373Y-0015434D01*
X0026424D01*
X0026516Y-0015430D01*
X0026604Y-0015425D01*
X0026682Y-0015416D01*
X0026752Y-0015402D01*
X0026816Y-0015384D01*
X0026876Y-0015365D01*
X0026927Y-0015347D01*
X0026969Y-0015324D01*
X0027010Y-0015305D01*
X0027043Y-0015287D01*
X0027066Y-0015268D01*
X0027089Y-0015250D01*
X0027107Y-0015236D01*
X0027117Y-0015226D01*
X0027126Y-0015217D01*
X0027154Y-0015171D01*
X0027181Y-0015120D01*
X0027204Y-0015065D01*
X0027223Y-0015005D01*
X0027255Y-0014871D01*
X0027274Y-0014741D01*
X0027283Y-0014677D01*
X0027288Y-0014617D01*
X0027292Y-0014566D01*
Y-0014515D01*
X0027297Y-0014478D01*
Y-0014446D01*
Y-0014427D01*
Y-0014423D01*
X0027288Y-0014210D01*
X0027264Y-0014002D01*
X0027223Y-0013799D01*
X0027177Y-0013605D01*
X0027117Y-0013416D01*
X0027052Y-0013240D01*
X0026983Y-0013078D01*
X0026909Y-0012926D01*
X0026835Y-0012783D01*
X0026765Y-0012658D01*
X0026701Y-0012551D01*
X0026641Y-0012459D01*
X0026618Y-0012422D01*
X0026590Y-0012385D01*
X0026571Y-0012358D01*
X0026553Y-0012334D01*
X0026539Y-0012311D01*
X0026530Y-0012297D01*
X0026521Y-0012293D01*
Y-0012288D01*
X0026424Y-0012168D01*
X0026331Y-0012062D01*
X0026243Y-0011974D01*
X0026160Y-0011896D01*
X0026086Y-0011831D01*
X0026017Y-0011775D01*
X0025952Y-0011729D01*
X0025892Y-0011692D01*
X0025842Y-0011665D01*
X0025800Y-0011646D01*
X0025758Y-0011627D01*
X0025726Y-0011618D01*
X0025703Y-0011614D01*
X0025684Y-0011609D01*
X0025615D01*
X0025560Y-0011618D01*
X0025444Y-0011641D01*
X0025333Y-0011674D01*
X0025232Y-0011706D01*
X0025190Y-0011725D01*
X0025148Y-0011743D01*
X0025111Y-0011761D01*
X0025079Y-0011775D01*
X0025052Y-0011789D01*
X0025033Y-0011799D01*
X0025024Y-0011803D01*
X0025019Y-0011808D01*
X0024954Y-0011845D01*
X0024894Y-0011872D01*
X0024844Y-0011900D01*
X0024793Y-0011923D01*
X0024751Y-0011942D01*
X0024714Y-0011956D01*
X0024677Y-0011969D01*
X0024649Y-0011983D01*
X0024603Y-0011997D01*
X0024576Y-0012002D01*
X0024557Y-0012006D01*
X0024553D01*
X0024479Y-0012002D01*
X0024409Y-0011983D01*
X0024349Y-0011960D01*
X0024298Y-0011932D01*
X0024257Y-0011905D01*
X0024229Y-0011882D01*
X0024206Y-0011863D01*
X0024201Y-0011858D01*
X0024151Y-0011803D01*
X0024114Y-0011743D01*
X0024091Y-0011688D01*
X0024072Y-0011632D01*
X0024063Y-0011591D01*
X0024054Y-0011554D01*
Y-0011530D01*
Y-0011521D01*
X0024063Y-0011461D01*
X0024081Y-0011401D01*
X0024118Y-0011341D01*
X0024160Y-0011286D01*
X0024215Y-0011230D01*
X0024271Y-0011179D01*
X0024400Y-0011087D01*
X0024529Y-0011013D01*
X0024585Y-0010981D01*
X0024640Y-0010953D01*
X0024682Y-0010930D01*
X0024719Y-0010916D01*
X0024737Y-0010907D01*
X0024746Y-0010902D01*
X0024853Y-0010856D01*
X0024954Y-0010819D01*
X0025052Y-0010787D01*
X0025139Y-0010759D01*
X0025222Y-0010736D01*
X0025296Y-0010713D01*
X0025366Y-0010699D01*
X0025430Y-0010685D01*
X0025486Y-0010671D01*
X0025532Y-0010667D01*
X0025574Y-0010662D01*
X0025611Y-0010657D01*
X0025634Y-0010653D01*
X0025670D01*
X0025772Y-0010657D01*
D02*
G37*
G36*
X0013927Y-0010713D02*
X0014024Y-0010717D01*
X0014116Y-0010731D01*
X0014204Y-0010745D01*
X0014375Y-0010791D01*
X0014536Y-0010851D01*
X0014684Y-0010921D01*
X0014823Y-0010995D01*
X0014947Y-0011078D01*
X0015058Y-0011161D01*
X0015160Y-0011249D01*
X0015248Y-0011332D01*
X0015322Y-0011406D01*
X0015386Y-0011475D01*
X0015433Y-0011535D01*
X0015470Y-0011581D01*
X0015483Y-0011595D01*
X0015488Y-0011609D01*
X0015497Y-0011614D01*
Y-0011618D01*
X0015585Y-0011761D01*
X0015664Y-0011909D01*
X0015733Y-0012062D01*
X0015788Y-0012210D01*
X0015839Y-0012358D01*
X0015876Y-0012505D01*
X0015913Y-0012644D01*
X0015936Y-0012778D01*
X0015959Y-0012903D01*
X0015973Y-0013018D01*
X0015987Y-0013120D01*
X0015992Y-0013208D01*
X0015996Y-0013277D01*
X0016001Y-0013305D01*
Y-0013328D01*
Y-0013346D01*
Y-0013360D01*
Y-0013369D01*
Y-0013374D01*
X0015996Y-0013586D01*
X0015982Y-0013790D01*
X0015964Y-0013984D01*
X0015941Y-0014164D01*
X0015913Y-0014335D01*
X0015881Y-0014492D01*
X0015844Y-0014635D01*
X0015807Y-0014769D01*
X0015775Y-0014885D01*
X0015737Y-0014991D01*
X0015705Y-0015079D01*
X0015677Y-0015153D01*
X0015654Y-0015208D01*
X0015636Y-0015254D01*
X0015622Y-0015277D01*
X0015617Y-0015287D01*
X0015567Y-0015379D01*
X0015511Y-0015462D01*
X0015456Y-0015541D01*
X0015396Y-0015615D01*
X0015331Y-0015684D01*
X0015271Y-0015749D01*
X0015202Y-0015809D01*
X0015137Y-0015864D01*
X0014998Y-0015961D01*
X0014855Y-0016040D01*
X0014717Y-0016109D01*
X0014582Y-0016160D01*
X0014453Y-0016201D01*
X0014333Y-0016234D01*
X0014222Y-0016252D01*
X0014130Y-0016271D01*
X0014088Y-0016275D01*
X0014051Y-0016280D01*
X0014019D01*
X0013991Y-0016285D01*
X0013940D01*
X0013746Y-0016275D01*
X0013566Y-0016252D01*
X0013400Y-0016211D01*
X0013243Y-0016164D01*
X0013100Y-0016104D01*
X0012970Y-0016040D01*
X0012850Y-0015970D01*
X0012744Y-0015896D01*
X0012651Y-0015822D01*
X0012568Y-0015753D01*
X0012504Y-0015688D01*
X0012448Y-0015629D01*
X0012402Y-0015578D01*
X0012370Y-0015541D01*
X0012351Y-0015518D01*
X0012347Y-0015508D01*
X0012254Y-0015351D01*
X0012171Y-0015185D01*
X0012097Y-0015000D01*
X0012037Y-0014811D01*
X0011986Y-0014617D01*
X0011940Y-0014423D01*
X0011908Y-0014233D01*
X0011875Y-0014044D01*
X0011857Y-0013868D01*
X0011838Y-0013702D01*
X0011834Y-0013623D01*
X0011829Y-0013554D01*
X0011824Y-0013485D01*
X0011820Y-0013420D01*
X0011815Y-0013365D01*
Y-0013314D01*
X0011811Y-0013272D01*
Y-0013235D01*
Y-0013203D01*
Y-0013184D01*
Y-0013171D01*
Y-0013166D01*
X0011815Y-0012990D01*
X0011829Y-0012820D01*
X0011852Y-0012653D01*
X0011885Y-0012501D01*
X0011917Y-0012358D01*
X0011958Y-0012219D01*
X0012000Y-0012094D01*
X0012042Y-0011979D01*
X0012088Y-0011877D01*
X0012129Y-0011785D01*
X0012171Y-0011706D01*
X0012203Y-0011637D01*
X0012236Y-0011586D01*
X0012259Y-0011549D01*
X0012273Y-0011526D01*
X0012277Y-0011517D01*
X0012328Y-0011443D01*
X0012388Y-0011373D01*
X0012504Y-0011249D01*
X0012628Y-0011142D01*
X0012753Y-0011050D01*
X0012882Y-0010971D01*
X0013012Y-0010907D01*
X0013137Y-0010851D01*
X0013261Y-0010810D01*
X0013377Y-0010778D01*
X0013483Y-0010750D01*
X0013580Y-0010731D01*
X0013663Y-0010722D01*
X0013733Y-0010713D01*
X0013760D01*
X0013783Y-0010708D01*
X0013829D01*
X0013927Y-0010713D01*
D02*
G37*
G36*
X-0033625Y0015476D02*
X-0033537Y0015471D01*
X-0033367Y0015443D01*
X-0033205Y0015402D01*
X-0033131Y0015379D01*
X-0033066Y0015355D01*
X-0033002Y0015332D01*
X-0032946Y0015309D01*
X-0032895Y0015291D01*
X-0032854Y0015268D01*
X-0032821Y0015254D01*
X-0032794Y0015240D01*
X-0032780Y0015235D01*
X-0032775Y0015231D01*
X-0032715Y0015198D01*
X-0032655Y0015157D01*
X-0032526Y0015074D01*
X-0032405Y0014981D01*
X-0032290Y0014893D01*
X-0032235Y0014852D01*
X-0032188Y0014815D01*
X-0032142Y0014778D01*
X-0032105Y0014746D01*
X-0032078Y0014723D01*
X-0032054Y0014704D01*
X-0032041Y0014690D01*
X-0032036Y0014685D01*
X-0031980Y0014626D01*
X-0031939Y0014565D01*
X-0031907Y0014501D01*
X-0031888Y0014445D01*
X-0031874Y0014394D01*
X-0031870Y0014353D01*
X-0031865Y0014325D01*
Y0014321D01*
Y0014316D01*
X-0031874Y0014247D01*
X-0031893Y0014182D01*
X-0031920Y0014131D01*
X-0031953Y0014085D01*
X-0031980Y0014053D01*
X-0032008Y0014025D01*
X-0032027Y0014011D01*
X-0032036Y0014006D01*
X-0032091Y0013979D01*
X-0032147Y0013956D01*
X-0032202Y0013942D01*
X-0032253Y0013928D01*
X-0032299Y0013923D01*
X-0032332Y0013919D01*
X-0032364D01*
X-0032396Y0013923D01*
X-0032433Y0013932D01*
X-0032475Y0013951D01*
X-0032516Y0013969D01*
X-0032609Y0014020D01*
X-0032701Y0014085D01*
X-0032789Y0014145D01*
X-0032826Y0014173D01*
X-0032863Y0014196D01*
X-0032891Y0014214D01*
X-0032909Y0014233D01*
X-0032923Y0014242D01*
X-0032928Y0014247D01*
X-0033006Y0014307D01*
X-0033080Y0014357D01*
X-0033154Y0014399D01*
X-0033228Y0014441D01*
X-0033297Y0014473D01*
X-0033362Y0014496D01*
X-0033422Y0014519D01*
X-0033477Y0014538D01*
X-0033533Y0014552D01*
X-0033579Y0014561D01*
X-0033616Y0014570D01*
X-0033653Y0014575D01*
X-0033681Y0014579D01*
X-0033718D01*
X-0033796Y0014575D01*
X-0033875Y0014561D01*
X-0033944Y0014538D01*
X-0034009Y0014515D01*
X-0034064Y0014487D01*
X-0034110Y0014468D01*
X-0034138Y0014450D01*
X-0034143Y0014445D01*
X-0034147D01*
X-0034184Y0014422D01*
X-0034221Y0014399D01*
X-0034277Y0014348D01*
X-0034314Y0014307D01*
X-0034341Y0014265D01*
X-0034360Y0014233D01*
X-0034364Y0014205D01*
X-0034369Y0014187D01*
Y0014182D01*
X-0034364Y0014090D01*
X-0034346Y0013997D01*
X-0034318Y0013909D01*
X-0034281Y0013822D01*
X-0034240Y0013743D01*
X-0034194Y0013669D01*
X-0034143Y0013595D01*
X-0034092Y0013531D01*
X-0034041Y0013475D01*
X-0033990Y0013420D01*
X-0033944Y0013378D01*
X-0033902Y0013337D01*
X-0033865Y0013309D01*
X-0033838Y0013286D01*
X-0033819Y0013272D01*
X-0033815Y0013267D01*
X-0033639Y0013152D01*
X-0033468Y0013041D01*
X-0033311Y0012939D01*
X-0033237Y0012888D01*
X-0033168Y0012842D01*
X-0033103Y0012801D01*
X-0033048Y0012764D01*
X-0032997Y0012731D01*
X-0032955Y0012704D01*
X-0032918Y0012680D01*
X-0032895Y0012662D01*
X-0032877Y0012653D01*
X-0032872Y0012648D01*
X-0032780Y0012583D01*
X-0032697Y0012523D01*
X-0032618Y0012459D01*
X-0032549Y0012399D01*
X-0032484Y0012343D01*
X-0032424Y0012283D01*
X-0032369Y0012232D01*
X-0032322Y0012182D01*
X-0032281Y0012135D01*
X-0032244Y0012094D01*
X-0032216Y0012057D01*
X-0032188Y0012029D01*
X-0032170Y0012001D01*
X-0032156Y0011983D01*
X-0032151Y0011974D01*
X-0032147Y0011969D01*
X-0032096Y0011886D01*
X-0032054Y0011798D01*
X-0032013Y0011706D01*
X-0031980Y0011613D01*
X-0031953Y0011521D01*
X-0031930Y0011428D01*
X-0031911Y0011341D01*
X-0031897Y0011258D01*
X-0031883Y0011179D01*
X-0031874Y0011105D01*
X-0031870Y0011040D01*
X-0031865Y0010985D01*
X-0031860Y0010939D01*
Y0010902D01*
Y0010883D01*
Y0010874D01*
X-0031865Y0010758D01*
X-0031870Y0010657D01*
X-0031883Y0010574D01*
X-0031897Y0010504D01*
X-0031907Y0010449D01*
X-0031920Y0010412D01*
X-0031925Y0010389D01*
X-0031930Y0010380D01*
X-0031953Y0010334D01*
X-0031980Y0010296D01*
X-0032008Y0010264D01*
X-0032045Y0010232D01*
X-0032114Y0010186D01*
X-0032184Y0010158D01*
X-0032248Y0010140D01*
X-0032304Y0010130D01*
X-0032327Y0010126D01*
X-0032387D01*
X-0032424Y0010121D01*
X-0032452Y0010116D01*
X-0032461Y0010112D01*
X-0032466D01*
X-0032516Y0010103D01*
X-0032553Y0010098D01*
X-0032636D01*
X-0032701Y0010103D01*
X-0032766Y0010107D01*
X-0032831Y0010112D01*
X-0032891Y0010116D01*
X-0032941Y0010121D01*
X-0032955D01*
X-0032969Y0010126D01*
X-0032983D01*
X-0033080Y0010135D01*
X-0033163Y0010144D01*
X-0033228Y0010149D01*
X-0033288Y0010153D01*
X-0033329Y0010158D01*
X-0033385D01*
X-0034415Y0010153D01*
X-0034452D01*
X-0034494Y0010149D01*
X-0034577Y0010140D01*
X-0034618Y0010135D01*
X-0034651Y0010130D01*
X-0034669Y0010126D01*
X-0034679D01*
X-0034743Y0010116D01*
X-0034799Y0010112D01*
X-0034845Y0010103D01*
X-0034887D01*
X-0034914Y0010098D01*
X-0034951D01*
X-0035025Y0010103D01*
X-0035090Y0010121D01*
X-0035145Y0010144D01*
X-0035196Y0010172D01*
X-0035238Y0010195D01*
X-0035265Y0010218D01*
X-0035284Y0010237D01*
X-0035288Y0010241D01*
X-0035335Y0010296D01*
X-0035367Y0010347D01*
X-0035390Y0010403D01*
X-0035404Y0010454D01*
X-0035418Y0010495D01*
X-0035422Y0010527D01*
Y0010551D01*
Y0010560D01*
X-0035418Y0010606D01*
X-0035408Y0010652D01*
X-0035390Y0010694D01*
X-0035367Y0010731D01*
X-0035307Y0010805D01*
X-0035242Y0010865D01*
X-0035173Y0010911D01*
X-0035113Y0010948D01*
X-0035090Y0010957D01*
X-0035071Y0010966D01*
X-0035062Y0010976D01*
X-0035057D01*
X-0034947Y0011017D01*
X-0034840Y0011050D01*
X-0034739Y0011073D01*
X-0034651Y0011091D01*
X-0034572Y0011100D01*
X-0034540D01*
X-0034512Y0011105D01*
X-0034323D01*
X-0034244Y0011100D01*
X-0034157D01*
X-0033981Y0011091D01*
X-0033805Y0011087D01*
X-0033722Y0011082D01*
X-0033648Y0011077D01*
X-0033579Y0011073D01*
X-0033514Y0011068D01*
X-0033463D01*
X-0033426Y0011063D01*
X-0033394D01*
X-0033265Y0011054D01*
X-0033149Y0011045D01*
X-0033052Y0011036D01*
X-0032974Y0011027D01*
X-0032909Y0011022D01*
X-0032868Y0011017D01*
X-0032840Y0011013D01*
X-0032831D01*
X-0032844Y0011114D01*
X-0032877Y0011216D01*
X-0032914Y0011308D01*
X-0032960Y0011401D01*
X-0033015Y0011489D01*
X-0033075Y0011567D01*
X-0033140Y0011646D01*
X-0033205Y0011715D01*
X-0033270Y0011780D01*
X-0033329Y0011835D01*
X-0033385Y0011886D01*
X-0033436Y0011923D01*
X-0033482Y0011960D01*
X-0033514Y0011983D01*
X-0033533Y0011997D01*
X-0033542Y0012001D01*
X-0033704Y0012103D01*
X-0033865Y0012205D01*
X-0034013Y0012297D01*
X-0034078Y0012339D01*
X-0034143Y0012380D01*
X-0034203Y0012417D01*
X-0034253Y0012449D01*
X-0034300Y0012477D01*
X-0034341Y0012505D01*
X-0034374Y0012523D01*
X-0034397Y0012537D01*
X-0034411Y0012547D01*
X-0034415Y0012551D01*
X-0034498Y0012611D01*
X-0034577Y0012671D01*
X-0034651Y0012727D01*
X-0034716Y0012787D01*
X-0034776Y0012842D01*
X-0034831Y0012893D01*
X-0034882Y0012944D01*
X-0034928Y0012995D01*
X-0034965Y0013036D01*
X-0034997Y0013078D01*
X-0035025Y0013110D01*
X-0035048Y0013142D01*
X-0035067Y0013166D01*
X-0035081Y0013184D01*
X-0035085Y0013193D01*
X-0035090Y0013198D01*
X-0035141Y0013276D01*
X-0035182Y0013360D01*
X-0035219Y0013447D01*
X-0035251Y0013531D01*
X-0035279Y0013618D01*
X-0035298Y0013701D01*
X-0035316Y0013780D01*
X-0035335Y0013859D01*
X-0035344Y0013932D01*
X-0035353Y0013997D01*
X-0035358Y0014057D01*
X-0035362Y0014108D01*
X-0035367Y0014154D01*
Y0014182D01*
Y0014205D01*
Y0014210D01*
X-0035362Y0014316D01*
X-0035344Y0014418D01*
X-0035316Y0014515D01*
X-0035279Y0014607D01*
X-0035238Y0014690D01*
X-0035191Y0014769D01*
X-0035141Y0014843D01*
X-0035090Y0014907D01*
X-0035034Y0014963D01*
X-0034984Y0015014D01*
X-0034937Y0015060D01*
X-0034896Y0015097D01*
X-0034859Y0015124D01*
X-0034831Y0015143D01*
X-0034813Y0015157D01*
X-0034808Y0015161D01*
X-0034716Y0015217D01*
X-0034623Y0015268D01*
X-0034526Y0015309D01*
X-0034434Y0015346D01*
X-0034341Y0015379D01*
X-0034249Y0015402D01*
X-0034161Y0015425D01*
X-0034083Y0015439D01*
X-0034004Y0015452D01*
X-0033935Y0015462D01*
X-0033875Y0015471D01*
X-0033819Y0015476D01*
X-0033778Y0015480D01*
X-0033718D01*
X-0033625Y0015476D01*
D02*
G37*
G36*
X-0026173Y0015476D02*
X-0026127Y0015471D01*
X-0026081D01*
X-0026039Y0015466D01*
X-0026002Y0015462D01*
X-0025979Y0015457D01*
X-0025970D01*
X-0025901Y0015452D01*
X-0025840Y0015448D01*
X-0025794Y0015443D01*
X-0025762D01*
X-0025734Y0015439D01*
X-0023997D01*
X-0023965Y0015443D01*
X-0023891Y0015448D01*
X-0023863D01*
X-0023835Y0015452D01*
X-0023812D01*
X-0023762Y0015457D01*
X-0023720Y0015462D01*
X-0023683D01*
X-0023651Y0015466D01*
X-0023600D01*
X-0023530Y0015462D01*
X-0023470Y0015457D01*
X-0023415Y0015443D01*
X-0023364Y0015429D01*
X-0023327Y0015416D01*
X-0023295Y0015406D01*
X-0023276Y0015397D01*
X-0023272Y0015392D01*
X-0023212Y0015355D01*
X-0023170Y0015314D01*
X-0023138Y0015272D01*
X-0023119Y0015226D01*
X-0023106Y0015189D01*
X-0023101Y0015157D01*
X-0023096Y0015138D01*
Y0015129D01*
X-0023101Y0015097D01*
X-0023106Y0015060D01*
X-0023129Y0014981D01*
X-0023138Y0014949D01*
X-0023147Y0014921D01*
X-0023152Y0014903D01*
X-0023156Y0014898D01*
X-0023175Y0014847D01*
X-0023193Y0014801D01*
X-0023202Y0014760D01*
X-0023207Y0014727D01*
X-0023212Y0014699D01*
X-0023216Y0014681D01*
Y0014672D01*
Y0014667D01*
Y0014598D01*
X-0023212Y0014510D01*
X-0023207Y0014418D01*
X-0023198Y0014311D01*
X-0023189Y0014200D01*
X-0023179Y0014090D01*
X-0023156Y0013859D01*
X-0023147Y0013748D01*
X-0023133Y0013646D01*
X-0023124Y0013554D01*
X-0023115Y0013471D01*
X-0023106Y0013401D01*
Y0013374D01*
X-0023101Y0013350D01*
Y0013332D01*
X-0023096Y0013318D01*
Y0013309D01*
Y0013304D01*
X-0023087Y0013212D01*
X-0023078Y0013129D01*
X-0023068Y0013055D01*
X-0023064Y0012985D01*
X-0023059Y0012930D01*
X-0023055Y0012879D01*
X-0023050Y0012837D01*
Y0012805D01*
X-0023045Y0012773D01*
Y0012750D01*
X-0023041Y0012731D01*
Y0012717D01*
Y0012704D01*
Y0012699D01*
X-0023045Y0012630D01*
X-0023064Y0012570D01*
X-0023082Y0012514D01*
X-0023110Y0012468D01*
X-0023133Y0012426D01*
X-0023156Y0012399D01*
X-0023170Y0012380D01*
X-0023175Y0012376D01*
X-0023230Y0012329D01*
X-0023286Y0012297D01*
X-0023341Y0012274D01*
X-0023396Y0012260D01*
X-0023443Y0012251D01*
X-0023480Y0012242D01*
X-0023512D01*
X-0023591Y0012251D01*
X-0023669Y0012269D01*
X-0023738Y0012297D01*
X-0023799Y0012329D01*
X-0023849Y0012362D01*
X-0023886Y0012389D01*
X-0023909Y0012408D01*
X-0023919Y0012417D01*
X-0024029Y0012537D01*
X-0024076Y0012593D01*
X-0024122Y0012643D01*
X-0024159Y0012685D01*
X-0024191Y0012722D01*
X-0024210Y0012741D01*
X-0024214Y0012750D01*
X-0024288Y0012819D01*
X-0024362Y0012879D01*
X-0024445Y0012935D01*
X-0024528Y0012981D01*
X-0024612Y0013018D01*
X-0024690Y0013050D01*
X-0024773Y0013078D01*
X-0024847Y0013096D01*
X-0024921Y0013115D01*
X-0024990Y0013124D01*
X-0025051Y0013133D01*
X-0025101Y0013142D01*
X-0025143D01*
X-0025175Y0013147D01*
X-0025203D01*
X-0025268Y0013142D01*
X-0025328Y0013138D01*
X-0025434Y0013105D01*
X-0025522Y0013064D01*
X-0025596Y0013018D01*
X-0025651Y0012971D01*
X-0025693Y0012930D01*
X-0025716Y0012898D01*
X-0025725Y0012893D01*
Y0012888D01*
X-0025757Y0012837D01*
X-0025785Y0012782D01*
X-0025827Y0012657D01*
X-0025859Y0012528D01*
X-0025877Y0012403D01*
X-0025887Y0012343D01*
X-0025891Y0012288D01*
X-0025896Y0012237D01*
Y0012195D01*
X-0025901Y0012158D01*
Y0012131D01*
Y0012112D01*
Y0012108D01*
X-0025896Y0012006D01*
X-0025887Y0011913D01*
X-0025868Y0011821D01*
X-0025845Y0011733D01*
X-0025822Y0011650D01*
X-0025790Y0011576D01*
X-0025762Y0011507D01*
X-0025730Y0011442D01*
X-0025697Y0011382D01*
X-0025665Y0011331D01*
X-0025633Y0011290D01*
X-0025609Y0011253D01*
X-0025586Y0011221D01*
X-0025568Y0011202D01*
X-0025559Y0011188D01*
X-0025554Y0011184D01*
X-0025485Y0011114D01*
X-0025411Y0011054D01*
X-0025337Y0011003D01*
X-0025263Y0010957D01*
X-0025185Y0010920D01*
X-0025111Y0010888D01*
X-0025037Y0010860D01*
X-0024967Y0010842D01*
X-0024903Y0010823D01*
X-0024843Y0010814D01*
X-0024792Y0010805D01*
X-0024746Y0010796D01*
X-0024704D01*
X-0024676Y0010791D01*
X-0024653D01*
X-0024524Y0010796D01*
X-0024408Y0010814D01*
X-0024311Y0010837D01*
X-0024233Y0010865D01*
X-0024168Y0010888D01*
X-0024122Y0010911D01*
X-0024108Y0010920D01*
X-0024094Y0010930D01*
X-0024090Y0010934D01*
X-0024085D01*
X-0024080Y0010939D01*
X-0024066Y0010953D01*
X-0024034Y0010985D01*
X-0023988Y0011031D01*
X-0023942Y0011082D01*
X-0023896Y0011128D01*
X-0023854Y0011170D01*
X-0023826Y0011202D01*
X-0023822Y0011207D01*
X-0023817Y0011211D01*
X-0023762Y0011262D01*
X-0023706Y0011299D01*
X-0023651Y0011322D01*
X-0023595Y0011341D01*
X-0023549Y0011350D01*
X-0023512Y0011359D01*
X-0023480D01*
X-0023410Y0011355D01*
X-0023346Y0011341D01*
X-0023290Y0011318D01*
X-0023239Y0011294D01*
X-0023198Y0011267D01*
X-0023166Y0011248D01*
X-0023147Y0011230D01*
X-0023138Y0011225D01*
X-0023087Y0011174D01*
X-0023055Y0011119D01*
X-0023027Y0011063D01*
X-0023008Y0011013D01*
X-0022999Y0010971D01*
X-0022995Y0010934D01*
X-0022990Y0010911D01*
Y0010902D01*
X-0022995Y0010856D01*
X-0023004Y0010809D01*
X-0023018Y0010768D01*
X-0023031Y0010726D01*
X-0023045Y0010694D01*
X-0023059Y0010671D01*
X-0023068Y0010652D01*
X-0023073Y0010648D01*
X-0023175Y0010514D01*
X-0023286Y0010398D01*
X-0023406Y0010297D01*
X-0023535Y0010209D01*
X-0023664Y0010135D01*
X-0023799Y0010070D01*
X-0023928Y0010019D01*
X-0024053Y0009982D01*
X-0024173Y0009950D01*
X-0024288Y0009927D01*
X-0024390Y0009909D01*
X-0024478Y0009899D01*
X-0024552Y0009890D01*
X-0024579D01*
X-0024607Y0009885D01*
X-0024653D01*
X-0024838Y0009895D01*
X-0025014Y0009913D01*
X-0025175Y0009945D01*
X-0025332Y0009987D01*
X-0025475Y0010038D01*
X-0025609Y0010089D01*
X-0025730Y0010149D01*
X-0025840Y0010209D01*
X-0025938Y0010269D01*
X-0026025Y0010329D01*
X-0026099Y0010384D01*
X-0026159Y0010430D01*
X-0026206Y0010472D01*
X-0026243Y0010504D01*
X-0026261Y0010523D01*
X-0026270Y0010532D01*
X-0026376Y0010652D01*
X-0026464Y0010777D01*
X-0026543Y0010911D01*
X-0026612Y0011040D01*
X-0026667Y0011174D01*
X-0026718Y0011304D01*
X-0026755Y0011433D01*
X-0026788Y0011553D01*
X-0026811Y0011669D01*
X-0026829Y0011775D01*
X-0026843Y0011867D01*
X-0026852Y0011951D01*
X-0026857Y0012015D01*
X-0026862Y0012043D01*
Y0012066D01*
Y0012084D01*
Y0012098D01*
Y0012103D01*
Y0012108D01*
X-0026857Y0012251D01*
X-0026848Y0012389D01*
X-0026829Y0012523D01*
X-0026806Y0012648D01*
X-0026774Y0012764D01*
X-0026746Y0012870D01*
X-0026709Y0012971D01*
X-0026677Y0013059D01*
X-0026644Y0013142D01*
X-0026607Y0013212D01*
X-0026580Y0013276D01*
X-0026552Y0013327D01*
X-0026524Y0013364D01*
X-0026506Y0013397D01*
X-0026497Y0013415D01*
X-0026492Y0013420D01*
X-0026404Y0013531D01*
X-0026312Y0013628D01*
X-0026210Y0013715D01*
X-0026104Y0013785D01*
X-0025998Y0013849D01*
X-0025891Y0013900D01*
X-0025785Y0013942D01*
X-0025683Y0013974D01*
X-0025586Y0014002D01*
X-0025494Y0014020D01*
X-0025416Y0014034D01*
X-0025342Y0014043D01*
X-0025286Y0014048D01*
X-0025240Y0014053D01*
X-0025203D01*
X-0025087Y0014048D01*
X-0024977Y0014043D01*
X-0024866Y0014034D01*
X-0024764Y0014016D01*
X-0024672Y0014002D01*
X-0024579Y0013983D01*
X-0024496Y0013960D01*
X-0024422Y0013942D01*
X-0024353Y0013919D01*
X-0024293Y0013900D01*
X-0024237Y0013877D01*
X-0024196Y0013863D01*
X-0024159Y0013849D01*
X-0024136Y0013836D01*
X-0024117Y0013831D01*
X-0024113Y0013826D01*
X-0024126Y0013914D01*
X-0024136Y0013997D01*
X-0024150Y0014076D01*
X-0024159Y0014145D01*
X-0024168Y0014210D01*
X-0024173Y0014270D01*
X-0024177Y0014321D01*
X-0024186Y0014367D01*
Y0014408D01*
X-0024191Y0014445D01*
X-0024196Y0014473D01*
Y0014496D01*
X-0024200Y0014515D01*
Y0014528D01*
Y0014533D01*
Y0014538D01*
X-0025337D01*
X-0025365Y0014533D01*
X-0025452D01*
X-0025494Y0014528D01*
X-0025716D01*
X-0025808Y0014533D01*
X-0025891Y0014542D01*
X-0025970Y0014552D01*
X-0026044Y0014561D01*
X-0026113Y0014575D01*
X-0026173Y0014593D01*
X-0026233Y0014612D01*
X-0026289Y0014630D01*
X-0026335Y0014649D01*
X-0026423Y0014695D01*
X-0026492Y0014741D01*
X-0026547Y0014792D01*
X-0026594Y0014838D01*
X-0026626Y0014884D01*
X-0026649Y0014930D01*
X-0026663Y0014967D01*
X-0026677Y0015004D01*
X-0026681Y0015027D01*
Y0015046D01*
Y0015051D01*
X-0026677Y0015115D01*
X-0026663Y0015175D01*
X-0026640Y0015226D01*
X-0026621Y0015272D01*
X-0026598Y0015309D01*
X-0026575Y0015332D01*
X-0026561Y0015351D01*
X-0026557Y0015355D01*
X-0026510Y0015397D01*
X-0026460Y0015429D01*
X-0026404Y0015448D01*
X-0026358Y0015466D01*
X-0026312Y0015476D01*
X-0026279Y0015480D01*
X-0026215D01*
X-0026173Y0015476D01*
D02*
G37*
G36*
X-0011888Y0015425D02*
X-0011819Y0015406D01*
X-0011754Y0015383D01*
X-0011699Y0015355D01*
X-0011657Y0015323D01*
X-0011625Y0015300D01*
X-0011606Y0015281D01*
X-0011597Y0015277D01*
X-0011523Y0015291D01*
X-0011454Y0015300D01*
X-0011426Y0015305D01*
X-0011403Y0015309D01*
X-0011380D01*
X-0011283Y0015318D01*
X-0011237D01*
X-0011195Y0015323D01*
X-0011103D01*
X-0011020Y0015318D01*
X-0010932Y0015314D01*
X-0010849Y0015295D01*
X-0010765Y0015277D01*
X-0010599Y0015226D01*
X-0010442Y0015161D01*
X-0010285Y0015083D01*
X-0010137Y0014995D01*
X-0009999Y0014903D01*
X-0009869Y0014806D01*
X-0009749Y0014709D01*
X-0009643Y0014616D01*
X-0009550Y0014528D01*
X-0009472Y0014450D01*
X-0009407Y0014385D01*
X-0009361Y0014334D01*
X-0009342Y0014316D01*
X-0009329Y0014302D01*
X-0009324Y0014293D01*
X-0009319Y0014288D01*
X-0009227Y0014173D01*
X-0009139Y0014062D01*
X-0009061Y0013946D01*
X-0008982Y0013836D01*
X-0008913Y0013725D01*
X-0008848Y0013614D01*
X-0008783Y0013508D01*
X-0008728Y0013401D01*
X-0008631Y0013193D01*
X-0008548Y0012995D01*
X-0008478Y0012810D01*
X-0008428Y0012634D01*
X-0008386Y0012473D01*
X-0008354Y0012329D01*
X-0008340Y0012265D01*
X-0008331Y0012205D01*
X-0008321Y0012149D01*
X-0008312Y0012098D01*
X-0008308Y0012052D01*
X-0008303Y0012011D01*
Y0011978D01*
X-0008298Y0011946D01*
Y0011927D01*
Y0011909D01*
Y0011900D01*
Y0011895D01*
X-0008303Y0011756D01*
X-0008321Y0011622D01*
X-0008345Y0011498D01*
X-0008382Y0011378D01*
X-0008418Y0011262D01*
X-0008460Y0011156D01*
X-0008511Y0011054D01*
X-0008557Y0010966D01*
X-0008603Y0010883D01*
X-0008654Y0010809D01*
X-0008696Y0010749D01*
X-0008737Y0010694D01*
X-0008770Y0010652D01*
X-0008793Y0010620D01*
X-0008811Y0010601D01*
X-0008816Y0010597D01*
X-0008922Y0010495D01*
X-0009028Y0010407D01*
X-0009139Y0010334D01*
X-0009250Y0010264D01*
X-0009361Y0010209D01*
X-0009472Y0010163D01*
X-0009578Y0010126D01*
X-0009680Y0010098D01*
X-0009777Y0010070D01*
X-0009865Y0010056D01*
X-0009943Y0010042D01*
X-0010012Y0010033D01*
X-0010068Y0010029D01*
X-0010105Y0010024D01*
X-0010142D01*
X-0010234Y0010029D01*
X-0010327Y0010033D01*
X-0010511Y0010061D01*
X-0010691Y0010098D01*
X-0010867Y0010149D01*
X-0011038Y0010213D01*
X-0011200Y0010278D01*
X-0011352Y0010352D01*
X-0011495Y0010430D01*
X-0011625Y0010504D01*
X-0011745Y0010578D01*
X-0011846Y0010643D01*
X-0011934Y0010708D01*
X-0012004Y0010758D01*
X-0012036Y0010782D01*
X-0012059Y0010800D01*
X-0012077Y0010814D01*
X-0012091Y0010823D01*
X-0012096Y0010832D01*
X-0012101D01*
X-0012161Y0010892D01*
X-0012207Y0010953D01*
X-0012239Y0011013D01*
X-0012262Y0011068D01*
X-0012276Y0011119D01*
X-0012281Y0011156D01*
X-0012285Y0011184D01*
Y0011193D01*
X-0012281Y0011262D01*
X-0012262Y0011322D01*
X-0012244Y0011378D01*
X-0012216Y0011428D01*
X-0012193Y0011465D01*
X-0012170Y0011498D01*
X-0012151Y0011516D01*
X-0012147Y0011521D01*
X-0012091Y0011572D01*
X-0012031Y0011613D01*
X-0011971Y0011641D01*
X-0011916Y0011659D01*
X-0011865Y0011669D01*
X-0011828Y0011678D01*
X-0011791D01*
X-0011731Y0011669D01*
X-0011666Y0011650D01*
X-0011597Y0011618D01*
X-0011528Y0011586D01*
X-0011468Y0011553D01*
X-0011422Y0011521D01*
X-0011403Y0011512D01*
X-0011389Y0011502D01*
X-0011380Y0011493D01*
X-0011375D01*
X-0011301Y0011442D01*
X-0011237Y0011401D01*
X-0011177Y0011359D01*
X-0011121Y0011322D01*
X-0011075Y0011290D01*
X-0011029Y0011262D01*
X-0010992Y0011239D01*
X-0010960Y0011221D01*
X-0010932Y0011202D01*
X-0010904Y0011188D01*
X-0010872Y0011165D01*
X-0010849Y0011156D01*
X-0010844Y0011151D01*
X-0010710Y0011091D01*
X-0010585Y0011045D01*
X-0010465Y0011017D01*
X-0010359Y0010994D01*
X-0010313Y0010985D01*
X-0010271Y0010980D01*
X-0010234Y0010976D01*
X-0010202D01*
X-0010174Y0010971D01*
X-0010142D01*
X-0010077Y0010976D01*
X-0010012Y0010985D01*
X-0009952Y0010994D01*
X-0009897Y0011013D01*
X-0009791Y0011059D01*
X-0009703Y0011110D01*
X-0009629Y0011156D01*
X-0009601Y0011179D01*
X-0009578Y0011202D01*
X-0009560Y0011221D01*
X-0009546Y0011230D01*
X-0009537Y0011239D01*
X-0009532Y0011244D01*
X-0009486Y0011294D01*
X-0009449Y0011350D01*
X-0009416Y0011405D01*
X-0009384Y0011461D01*
X-0009338Y0011572D01*
X-0009310Y0011673D01*
X-0009292Y0011761D01*
X-0009287Y0011798D01*
X-0009282Y0011830D01*
X-0009278Y0011858D01*
Y0011877D01*
Y0011890D01*
Y0011895D01*
X-0009282Y0011974D01*
X-0009287Y0012052D01*
X-0009315Y0012214D01*
X-0009352Y0012371D01*
X-0009403Y0012528D01*
X-0009463Y0012680D01*
X-0009532Y0012828D01*
X-0009606Y0012971D01*
X-0009680Y0013105D01*
X-0009754Y0013230D01*
X-0009828Y0013341D01*
X-0009897Y0013438D01*
X-0009957Y0013526D01*
X-0010008Y0013595D01*
X-0010031Y0013623D01*
X-0010049Y0013646D01*
X-0010063Y0013665D01*
X-0010073Y0013678D01*
X-0010082Y0013683D01*
Y0013688D01*
X-0010188Y0013808D01*
X-0010290Y0013914D01*
X-0010391Y0014006D01*
X-0010484Y0014085D01*
X-0010576Y0014154D01*
X-0010659Y0014210D01*
X-0010738Y0014256D01*
X-0010807Y0014288D01*
X-0010876Y0014321D01*
X-0010932Y0014339D01*
X-0010983Y0014353D01*
X-0011024Y0014367D01*
X-0011056Y0014371D01*
X-0011084Y0014376D01*
X-0011177D01*
X-0011241Y0014371D01*
X-0011287Y0014367D01*
X-0011325Y0014362D01*
X-0011348Y0014357D01*
X-0011366Y0014353D01*
X-0011371Y0014348D01*
X-0011375D01*
X-0011403Y0014330D01*
X-0011431Y0014307D01*
X-0011454Y0014274D01*
X-0011477Y0014242D01*
X-0011491Y0014210D01*
X-0011505Y0014182D01*
X-0011514Y0014168D01*
X-0011519Y0014159D01*
X-0011546Y0014103D01*
X-0011583Y0014053D01*
X-0011615Y0014006D01*
X-0011653Y0013970D01*
X-0011689Y0013937D01*
X-0011731Y0013909D01*
X-0011768Y0013891D01*
X-0011805Y0013872D01*
X-0011874Y0013849D01*
X-0011930Y0013836D01*
X-0011953Y0013831D01*
X-0011981D01*
X-0012068Y0013840D01*
X-0012147Y0013859D01*
X-0012216Y0013891D01*
X-0012272Y0013923D01*
X-0012313Y0013956D01*
X-0012346Y0013988D01*
X-0012364Y0014006D01*
X-0012369Y0014016D01*
X-0012401Y0014071D01*
X-0012429Y0014127D01*
X-0012447Y0014177D01*
X-0012456Y0014228D01*
X-0012466Y0014270D01*
X-0012470Y0014307D01*
Y0014325D01*
Y0014334D01*
X-0012466Y0014478D01*
X-0012461Y0014607D01*
X-0012452Y0014723D01*
X-0012443Y0014824D01*
X-0012433Y0014866D01*
X-0012429Y0014907D01*
X-0012424Y0014940D01*
X-0012419Y0014967D01*
X-0012415Y0014990D01*
Y0015004D01*
X-0012410Y0015014D01*
Y0015018D01*
X-0012392Y0015092D01*
X-0012364Y0015152D01*
X-0012336Y0015208D01*
X-0012304Y0015254D01*
X-0012267Y0015295D01*
X-0012230Y0015328D01*
X-0012193Y0015355D01*
X-0012156Y0015379D01*
X-0012119Y0015397D01*
X-0012082Y0015406D01*
X-0012050Y0015416D01*
X-0012022Y0015425D01*
X-0011999D01*
X-0011981Y0015429D01*
X-0011967D01*
X-0011888Y0015425D01*
D02*
G37*
G36*
X-0001003Y0015272D02*
X-0000976Y0015263D01*
X-0000948Y0015245D01*
X-0000920Y0015222D01*
X-0000883Y0015189D01*
X-0000851Y0015152D01*
X-0000809Y0015115D01*
X-0000768Y0015069D01*
X-0000685Y0014967D01*
X-0000592Y0014856D01*
X-0000500Y0014736D01*
X-0000407Y0014612D01*
X-0000320Y0014487D01*
X-0000232Y0014367D01*
X-0000153Y0014256D01*
X-0000084Y0014154D01*
X-0000056Y0014108D01*
X-0000029Y0014071D01*
X-0000006Y0014034D01*
X0000018Y0014002D01*
X0000032Y0013979D01*
X0000045Y0013960D01*
X0000050Y0013951D01*
X0000055Y0013946D01*
X0000276Y0013604D01*
X0000383Y0013438D01*
X0000484Y0013276D01*
X0000581Y0013124D01*
X0000674Y0012976D01*
X0000757Y0012837D01*
X0000835Y0012708D01*
X0000905Y0012588D01*
X0000969Y0012482D01*
X0001025Y0012389D01*
X0001071Y0012311D01*
X0001108Y0012251D01*
X0001136Y0012200D01*
X0001145Y0012186D01*
X0001154Y0012172D01*
X0001159Y0012168D01*
Y0012163D01*
X0001219Y0012145D01*
X0001270Y0012126D01*
X0001311Y0012103D01*
X0001348Y0012084D01*
X0001385Y0012061D01*
X0001413Y0012038D01*
X0001436Y0012020D01*
X0001454Y0011997D01*
X0001477Y0011960D01*
X0001491Y0011927D01*
X0001501Y0011909D01*
Y0011900D01*
Y0011863D01*
X0001496Y0011830D01*
X0001482Y0011766D01*
X0001473Y0011738D01*
X0001468Y0011715D01*
X0001459Y0011701D01*
Y0011696D01*
X0001505Y0011604D01*
X0001547Y0011512D01*
X0001588Y0011428D01*
X0001625Y0011350D01*
X0001695Y0011202D01*
X0001755Y0011073D01*
X0001801Y0010957D01*
X0001843Y0010860D01*
X0001875Y0010777D01*
X0001903Y0010703D01*
X0001926Y0010648D01*
X0001939Y0010597D01*
X0001953Y0010560D01*
X0001958Y0010532D01*
X0001963Y0010509D01*
X0001967Y0010495D01*
Y0010491D01*
Y0010486D01*
X0001963Y0010412D01*
X0001944Y0010347D01*
X0001921Y0010292D01*
X0001889Y0010246D01*
X0001861Y0010204D01*
X0001838Y0010176D01*
X0001819Y0010158D01*
X0001815Y0010153D01*
X0001755Y0010112D01*
X0001695Y0010079D01*
X0001639Y0010056D01*
X0001584Y0010042D01*
X0001538Y0010033D01*
X0001501Y0010024D01*
X0001468D01*
X0001417Y0010029D01*
X0001371Y0010033D01*
X0001288Y0010061D01*
X0001214Y0010103D01*
X0001149Y0010149D01*
X0001103Y0010195D01*
X0001066Y0010237D01*
X0001048Y0010264D01*
X0001039Y0010269D01*
Y0010273D01*
X0000965Y0010417D01*
X0000900Y0010546D01*
X0000840Y0010671D01*
X0000785Y0010782D01*
X0000734Y0010888D01*
X0000687Y0010985D01*
X0000646Y0011068D01*
X0000609Y0011147D01*
X0000577Y0011216D01*
X0000554Y0011276D01*
X0000530Y0011322D01*
X0000512Y0011364D01*
X0000498Y0011396D01*
X0000489Y0011419D01*
X0000480Y0011433D01*
Y0011438D01*
X0000424Y0011447D01*
X0000359Y0011456D01*
X0000225Y0011475D01*
X0000082Y0011489D01*
X-0000052Y0011502D01*
X-0000116Y0011507D01*
X-0000176Y0011512D01*
X-0000227Y0011516D01*
X-0000273Y0011521D01*
X-0000315D01*
X-0000343Y0011525D01*
X-0000366D01*
X-0000472Y0011535D01*
X-0000569Y0011539D01*
X-0000661Y0011549D01*
X-0000745Y0011553D01*
X-0000823Y0011562D01*
X-0000893Y0011567D01*
X-0000953Y0011572D01*
X-0001008Y0011581D01*
X-0001059Y0011586D01*
X-0001100Y0011590D01*
X-0001133Y0011595D01*
X-0001161Y0011599D01*
X-0001184D01*
X-0001197Y0011604D01*
X-0001211D01*
X-0001262Y0011410D01*
X-0001290Y0011313D01*
X-0001318Y0011225D01*
X-0001345Y0011142D01*
X-0001373Y0011063D01*
X-0001396Y0010989D01*
X-0001419Y0010925D01*
X-0001442Y0010860D01*
X-0001465Y0010809D01*
X-0001484Y0010758D01*
X-0001498Y0010722D01*
X-0001512Y0010689D01*
X-0001521Y0010666D01*
X-0001530Y0010652D01*
Y0010648D01*
X-0001581Y0010537D01*
X-0001632Y0010440D01*
X-0001682Y0010352D01*
X-0001733Y0010278D01*
X-0001780Y0010218D01*
X-0001826Y0010167D01*
X-0001872Y0010121D01*
X-0001914Y0010089D01*
X-0001950Y0010061D01*
X-0001983Y0010038D01*
X-0002011Y0010024D01*
X-0002038Y0010015D01*
X-0002057Y0010006D01*
X-0002071Y0010001D01*
X-0002084D01*
X-0002154Y0010006D01*
X-0002218Y0010019D01*
X-0002279Y0010038D01*
X-0002329Y0010066D01*
X-0002371Y0010089D01*
X-0002403Y0010112D01*
X-0002426Y0010126D01*
X-0002431Y0010130D01*
X-0002482Y0010181D01*
X-0002519Y0010241D01*
X-0002547Y0010297D01*
X-0002565Y0010347D01*
X-0002574Y0010398D01*
X-0002583Y0010435D01*
Y0010458D01*
Y0010468D01*
X-0002579Y0010532D01*
X-0002565Y0010601D01*
X-0002542Y0010680D01*
X-0002519Y0010749D01*
X-0002496Y0010819D01*
X-0002473Y0010869D01*
X-0002468Y0010892D01*
X-0002459Y0010906D01*
X-0002454Y0010916D01*
Y0010920D01*
X-0002426Y0010985D01*
X-0002403Y0011045D01*
X-0002380Y0011096D01*
X-0002362Y0011147D01*
X-0002348Y0011188D01*
X-0002334Y0011225D01*
X-0002320Y0011258D01*
X-0002311Y0011285D01*
X-0002292Y0011331D01*
X-0002283Y0011359D01*
X-0002279Y0011378D01*
Y0011382D01*
X-0002223Y0011622D01*
X-0002168Y0011853D01*
X-0002117Y0012075D01*
X-0002066Y0012292D01*
X-0002020Y0012491D01*
X-0001978Y0012680D01*
X-0001937Y0012861D01*
X-0001900Y0013022D01*
X-0001867Y0013170D01*
X-0001840Y0013299D01*
X-0001816Y0013415D01*
X-0001803Y0013466D01*
X-0001793Y0013512D01*
X-0001784Y0013549D01*
X-0001780Y0013586D01*
X-0001770Y0013618D01*
X-0001766Y0013641D01*
X-0001761Y0013660D01*
Y0013678D01*
X-0001756Y0013683D01*
Y0013688D01*
X-0001729Y0013822D01*
X-0001706Y0013951D01*
X-0001682Y0014071D01*
X-0001659Y0014177D01*
X-0001641Y0014279D01*
X-0001623Y0014371D01*
X-0001609Y0014455D01*
X-0001595Y0014528D01*
X-0001581Y0014598D01*
X-0001567Y0014653D01*
X-0001558Y0014699D01*
X-0001553Y0014741D01*
X-0001549Y0014769D01*
X-0001544Y0014792D01*
X-0001539Y0014806D01*
Y0014810D01*
X-0001512Y0014894D01*
X-0001479Y0014963D01*
X-0001442Y0015027D01*
X-0001405Y0015078D01*
X-0001364Y0015124D01*
X-0001318Y0015161D01*
X-0001276Y0015194D01*
X-0001234Y0015217D01*
X-0001193Y0015240D01*
X-0001151Y0015254D01*
X-0001114Y0015263D01*
X-0001087Y0015268D01*
X-0001059Y0015272D01*
X-0001040Y0015277D01*
X-0001022D01*
X-0001003Y0015272D01*
D02*
G37*
G36*
X-0020366Y0015596D02*
X-0020278D01*
X-0020204Y0015591D01*
X-0020144Y0015586D01*
X-0020098D01*
X-0020070Y0015582D01*
X-0020061D01*
X-0019987Y0015577D01*
X-0019922Y0015568D01*
X-0019867Y0015563D01*
X-0019821Y0015554D01*
X-0019784Y0015545D01*
X-0019756Y0015540D01*
X-0019737Y0015536D01*
X-0019687D01*
X-0019645Y0015531D01*
X-0019603Y0015522D01*
X-0019567Y0015508D01*
X-0019497Y0015471D01*
X-0019437Y0015416D01*
X-0019391Y0015351D01*
X-0019349Y0015277D01*
X-0019317Y0015194D01*
X-0019289Y0015115D01*
X-0019266Y0015027D01*
X-0019252Y0014949D01*
X-0019239Y0014870D01*
X-0019234Y0014806D01*
X-0019229Y0014746D01*
X-0019225Y0014699D01*
Y0014686D01*
Y0014672D01*
Y0014667D01*
Y0014662D01*
Y0014556D01*
X-0019220Y0014441D01*
X-0019215Y0014316D01*
X-0019211Y0014187D01*
X-0019202Y0013919D01*
X-0019197Y0013789D01*
X-0019188Y0013660D01*
X-0019183Y0013535D01*
X-0019178Y0013424D01*
X-0019169Y0013323D01*
X-0019165Y0013230D01*
X-0019160Y0013156D01*
Y0013129D01*
Y0013101D01*
X-0019155Y0013082D01*
Y0013069D01*
Y0013059D01*
Y0013055D01*
X-0019141Y0012861D01*
X-0019132Y0012680D01*
X-0019123Y0012514D01*
X-0019114Y0012357D01*
X-0019109Y0012209D01*
X-0019105Y0012080D01*
X-0019100Y0011960D01*
X-0019095Y0011853D01*
X-0019091Y0011756D01*
Y0011673D01*
X-0019086Y0011604D01*
Y0011549D01*
Y0011502D01*
Y0011475D01*
Y0011452D01*
Y0011447D01*
Y0010472D01*
X-0019091Y0010407D01*
X-0019105Y0010343D01*
X-0019128Y0010292D01*
X-0019151Y0010246D01*
X-0019174Y0010204D01*
X-0019197Y0010176D01*
X-0019211Y0010158D01*
X-0019215Y0010153D01*
X-0019266Y0010112D01*
X-0019322Y0010079D01*
X-0019377Y0010056D01*
X-0019428Y0010042D01*
X-0019474Y0010033D01*
X-0019511Y0010024D01*
X-0019544D01*
X-0019617Y0010029D01*
X-0019682Y0010042D01*
X-0019737Y0010066D01*
X-0019788Y0010089D01*
X-0019825Y0010112D01*
X-0019853Y0010135D01*
X-0019872Y0010149D01*
X-0019876Y0010153D01*
X-0019918Y0010204D01*
X-0019950Y0010260D01*
X-0019973Y0010315D01*
X-0019992Y0010361D01*
X-0020001Y0010407D01*
X-0020005Y0010440D01*
Y0010463D01*
Y0010472D01*
Y0010675D01*
Y0010860D01*
Y0011036D01*
X-0020010Y0011197D01*
Y0011341D01*
Y0011470D01*
X-0020015Y0011590D01*
Y0011696D01*
Y0011789D01*
X-0020019Y0011867D01*
Y0011932D01*
Y0011987D01*
X-0020024Y0012029D01*
Y0012057D01*
Y0012075D01*
Y0012080D01*
X-0020102Y0012071D01*
X-0020167Y0012066D01*
X-0020218Y0012061D01*
X-0020255D01*
X-0020283Y0012057D01*
X-0020315D01*
X-0020477Y0012061D01*
X-0020629Y0012075D01*
X-0020777Y0012098D01*
X-0020920Y0012131D01*
X-0021050Y0012163D01*
X-0021174Y0012205D01*
X-0021290Y0012246D01*
X-0021392Y0012288D01*
X-0021488Y0012329D01*
X-0021572Y0012371D01*
X-0021646Y0012412D01*
X-0021706Y0012445D01*
X-0021752Y0012477D01*
X-0021789Y0012500D01*
X-0021807Y0012514D01*
X-0021816Y0012519D01*
X-0021941Y0012620D01*
X-0022052Y0012731D01*
X-0022144Y0012847D01*
X-0022228Y0012967D01*
X-0022297Y0013082D01*
X-0022352Y0013203D01*
X-0022403Y0013318D01*
X-0022440Y0013429D01*
X-0022468Y0013535D01*
X-0022491Y0013632D01*
X-0022505Y0013720D01*
X-0022519Y0013794D01*
X-0022523Y0013854D01*
X-0022528Y0013905D01*
Y0013919D01*
Y0013932D01*
Y0013937D01*
Y0013942D01*
X-0022519Y0014076D01*
X-0022500Y0014200D01*
X-0022468Y0014321D01*
X-0022422Y0014432D01*
X-0022371Y0014538D01*
X-0022316Y0014639D01*
X-0022255Y0014732D01*
X-0022195Y0014815D01*
X-0022131Y0014894D01*
X-0022071Y0014958D01*
X-0022015Y0015014D01*
X-0021964Y0015064D01*
X-0021918Y0015101D01*
X-0021886Y0015129D01*
X-0021867Y0015148D01*
X-0021858Y0015152D01*
X-0021743Y0015231D01*
X-0021632Y0015300D01*
X-0021516Y0015360D01*
X-0021405Y0015411D01*
X-0021294Y0015457D01*
X-0021188Y0015489D01*
X-0021087Y0015522D01*
X-0020989Y0015545D01*
X-0020902Y0015563D01*
X-0020823Y0015577D01*
X-0020749Y0015586D01*
X-0020689Y0015596D01*
X-0020643D01*
X-0020606Y0015600D01*
X-0020463D01*
X-0020366Y0015596D01*
D02*
G37*
G36*
X-0017118Y0015466D02*
X-0017053Y0015448D01*
X-0016989Y0015425D01*
X-0016933Y0015392D01*
X-0016882Y0015355D01*
X-0016831Y0015314D01*
X-0016790Y0015268D01*
X-0016753Y0015222D01*
X-0016721Y0015171D01*
X-0016688Y0015129D01*
X-0016665Y0015083D01*
X-0016647Y0015046D01*
X-0016628Y0015014D01*
X-0016619Y0014990D01*
X-0016614Y0014972D01*
X-0016610Y0014967D01*
X-0016411Y0014164D01*
X-0016346Y0013932D01*
X-0016282Y0013711D01*
X-0016217Y0013494D01*
X-0016152Y0013286D01*
X-0016088Y0013087D01*
X-0016028Y0012898D01*
X-0015968Y0012722D01*
X-0015912Y0012560D01*
X-0015861Y0012412D01*
X-0015815Y0012279D01*
X-0015774Y0012163D01*
X-0015755Y0012112D01*
X-0015741Y0012066D01*
X-0015723Y0012024D01*
X-0015709Y0011992D01*
X-0015700Y0011960D01*
X-0015690Y0011932D01*
X-0015681Y0011913D01*
X-0015676Y0011900D01*
X-0015672Y0011890D01*
Y0011886D01*
X-0015617Y0012080D01*
X-0015566Y0012274D01*
X-0015515Y0012459D01*
X-0015473Y0012639D01*
X-0015432Y0012810D01*
X-0015395Y0012971D01*
X-0015358Y0013124D01*
X-0015330Y0013263D01*
X-0015302Y0013392D01*
X-0015279Y0013508D01*
X-0015261Y0013604D01*
X-0015242Y0013692D01*
X-0015233Y0013757D01*
X-0015224Y0013785D01*
Y0013808D01*
X-0015219Y0013826D01*
X-0015214Y0013840D01*
Y0013845D01*
Y0013849D01*
X-0015187Y0014020D01*
X-0015154Y0014173D01*
X-0015127Y0014316D01*
X-0015099Y0014441D01*
X-0015071Y0014556D01*
X-0015048Y0014658D01*
X-0015025Y0014750D01*
X-0015002Y0014829D01*
X-0014984Y0014894D01*
X-0014965Y0014949D01*
X-0014951Y0014995D01*
X-0014937Y0015037D01*
X-0014928Y0015064D01*
X-0014919Y0015083D01*
X-0014914Y0015092D01*
Y0015097D01*
X-0014882Y0015152D01*
X-0014850Y0015203D01*
X-0014813Y0015245D01*
X-0014776Y0015286D01*
X-0014739Y0015314D01*
X-0014697Y0015342D01*
X-0014660Y0015365D01*
X-0014623Y0015379D01*
X-0014554Y0015402D01*
X-0014522Y0015411D01*
X-0014494Y0015416D01*
X-0014475Y0015420D01*
X-0014443D01*
X-0014392Y0015416D01*
X-0014346Y0015411D01*
X-0014254Y0015383D01*
X-0014175Y0015342D01*
X-0014110Y0015295D01*
X-0014055Y0015249D01*
X-0014013Y0015208D01*
X-0013990Y0015180D01*
X-0013981Y0015175D01*
Y0015171D01*
X-0013949Y0015120D01*
X-0013916Y0015060D01*
X-0013884Y0014990D01*
X-0013852Y0014912D01*
X-0013792Y0014750D01*
X-0013741Y0014584D01*
X-0013722Y0014505D01*
X-0013699Y0014432D01*
X-0013681Y0014362D01*
X-0013667Y0014302D01*
X-0013658Y0014251D01*
X-0013648Y0014214D01*
X-0013639Y0014191D01*
Y0014182D01*
X-0013602Y0013983D01*
X-0013565Y0013789D01*
X-0013547Y0013697D01*
X-0013528Y0013604D01*
X-0013514Y0013521D01*
X-0013500Y0013443D01*
X-0013487Y0013369D01*
X-0013473Y0013304D01*
X-0013464Y0013249D01*
X-0013454Y0013198D01*
X-0013445Y0013161D01*
X-0013440Y0013129D01*
X-0013436Y0013110D01*
Y0013105D01*
X-0013431Y0013092D01*
X-0013427Y0013069D01*
X-0013422Y0013041D01*
X-0013413Y0013009D01*
X-0013404Y0012971D01*
X-0013390Y0012930D01*
X-0013362Y0012837D01*
X-0013334Y0012731D01*
X-0013302Y0012620D01*
X-0013265Y0012500D01*
X-0013232Y0012380D01*
X-0013196Y0012260D01*
X-0013163Y0012145D01*
X-0013131Y0012038D01*
X-0013103Y0011946D01*
X-0013080Y0011867D01*
X-0013071Y0011830D01*
X-0013062Y0011803D01*
X-0013057Y0011784D01*
X-0013052Y0011766D01*
X-0013048Y0011756D01*
Y0011752D01*
X-0013006Y0011604D01*
X-0012969Y0011461D01*
X-0012937Y0011322D01*
X-0012909Y0011193D01*
X-0012886Y0011073D01*
X-0012867Y0010957D01*
X-0012849Y0010851D01*
X-0012840Y0010758D01*
X-0012826Y0010671D01*
X-0012821Y0010592D01*
X-0012817Y0010527D01*
X-0012812Y0010472D01*
X-0012808Y0010430D01*
Y0010398D01*
Y0010375D01*
Y0010370D01*
X-0012812Y0010301D01*
X-0012826Y0010237D01*
X-0012844Y0010181D01*
X-0012867Y0010135D01*
X-0012886Y0010093D01*
X-0012904Y0010066D01*
X-0012918Y0010047D01*
X-0012923Y0010042D01*
X-0012978Y0009987D01*
X-0013043Y0009945D01*
X-0013108Y0009918D01*
X-0013168Y0009899D01*
X-0013223Y0009885D01*
X-0013265Y0009881D01*
X-0013283Y0009876D01*
X-0013307D01*
X-0013376Y0009881D01*
X-0013440Y0009899D01*
X-0013496Y0009922D01*
X-0013551Y0009955D01*
X-0013598Y0009992D01*
X-0013644Y0010033D01*
X-0013681Y0010079D01*
X-0013718Y0010126D01*
X-0013773Y0010213D01*
X-0013792Y0010255D01*
X-0013810Y0010292D01*
X-0013824Y0010324D01*
X-0013828Y0010347D01*
X-0013838Y0010366D01*
Y0010370D01*
X-0013861Y0010518D01*
X-0013884Y0010657D01*
X-0013902Y0010791D01*
X-0013921Y0010911D01*
X-0013930Y0010962D01*
X-0013939Y0011013D01*
X-0013944Y0011054D01*
X-0013953Y0011087D01*
X-0013958Y0011119D01*
Y0011137D01*
X-0013962Y0011151D01*
Y0011156D01*
X-0014013Y0011364D01*
X-0014064Y0011558D01*
X-0014106Y0011738D01*
X-0014152Y0011909D01*
X-0014189Y0012061D01*
X-0014226Y0012200D01*
X-0014258Y0012329D01*
X-0014286Y0012445D01*
X-0014314Y0012542D01*
X-0014337Y0012630D01*
X-0014355Y0012704D01*
X-0014374Y0012764D01*
X-0014383Y0012810D01*
X-0014392Y0012842D01*
X-0014401Y0012865D01*
Y0012870D01*
X-0014484Y0012505D01*
X-0014526Y0012329D01*
X-0014568Y0012158D01*
X-0014609Y0011997D01*
X-0014651Y0011840D01*
X-0014692Y0011692D01*
X-0014729Y0011558D01*
X-0014762Y0011433D01*
X-0014794Y0011322D01*
X-0014822Y0011225D01*
X-0014845Y0011142D01*
X-0014863Y0011073D01*
X-0014873Y0011050D01*
X-0014877Y0011027D01*
X-0014886Y0011008D01*
Y0010994D01*
X-0014891Y0010989D01*
Y0010985D01*
X-0015090Y0010338D01*
X-0015122Y0010269D01*
X-0015159Y0010209D01*
X-0015201Y0010158D01*
X-0015242Y0010112D01*
X-0015279Y0010075D01*
X-0015321Y0010047D01*
X-0015362Y0010019D01*
X-0015404Y0010001D01*
X-0015478Y0009968D01*
X-0015506Y0009964D01*
X-0015533Y0009955D01*
X-0015556D01*
X-0015575Y0009950D01*
X-0015589D01*
X-0015649Y0009955D01*
X-0015709Y0009964D01*
X-0015760Y0009978D01*
X-0015811Y0010001D01*
X-0015898Y0010052D01*
X-0015977Y0010112D01*
X-0016032Y0010172D01*
X-0016079Y0010223D01*
X-0016092Y0010246D01*
X-0016102Y0010260D01*
X-0016111Y0010269D01*
Y0010273D01*
X-0016162Y0010370D01*
X-0016212Y0010472D01*
X-0016259Y0010578D01*
X-0016296Y0010675D01*
X-0016333Y0010763D01*
X-0016346Y0010800D01*
X-0016356Y0010832D01*
X-0016365Y0010860D01*
X-0016374Y0010879D01*
X-0016379Y0010892D01*
Y0010897D01*
X-0016587Y0011544D01*
X-0016651Y0011724D01*
X-0016716Y0011895D01*
X-0016771Y0012052D01*
X-0016822Y0012195D01*
X-0016869Y0012329D01*
X-0016915Y0012449D01*
X-0016952Y0012556D01*
X-0016984Y0012653D01*
X-0017016Y0012741D01*
X-0017039Y0012814D01*
X-0017063Y0012875D01*
X-0017076Y0012925D01*
X-0017090Y0012962D01*
X-0017099Y0012990D01*
X-0017109Y0013009D01*
Y0013013D01*
X-0017146Y0012801D01*
X-0017178Y0012597D01*
X-0017215Y0012408D01*
X-0017247Y0012232D01*
X-0017280Y0012071D01*
X-0017307Y0011923D01*
X-0017335Y0011789D01*
X-0017363Y0011669D01*
X-0017386Y0011562D01*
X-0017404Y0011470D01*
X-0017423Y0011387D01*
X-0017441Y0011322D01*
X-0017451Y0011271D01*
X-0017460Y0011234D01*
X-0017469Y0011216D01*
Y0011207D01*
X-0017668Y0010361D01*
X-0017705Y0010264D01*
X-0017746Y0010181D01*
X-0017788Y0010107D01*
X-0017834Y0010047D01*
X-0017880Y0009992D01*
X-0017926Y0009950D01*
X-0017973Y0009913D01*
X-0018019Y0009885D01*
X-0018060Y0009862D01*
X-0018102Y0009844D01*
X-0018139Y0009835D01*
X-0018171Y0009825D01*
X-0018194Y0009821D01*
X-0018213Y0009816D01*
X-0018231D01*
X-0018301Y0009821D01*
X-0018365Y0009835D01*
X-0018425Y0009858D01*
X-0018476Y0009881D01*
X-0018518Y0009904D01*
X-0018550Y0009927D01*
X-0018573Y0009941D01*
X-0018578Y0009945D01*
X-0018633Y0010001D01*
X-0018675Y0010056D01*
X-0018703Y0010116D01*
X-0018726Y0010167D01*
X-0018735Y0010218D01*
X-0018740Y0010255D01*
X-0018744Y0010278D01*
Y0010287D01*
Y0010301D01*
X-0018740Y0010315D01*
X-0018735Y0010338D01*
X-0018730Y0010366D01*
X-0018717Y0010430D01*
X-0018693Y0010509D01*
X-0018670Y0010601D01*
X-0018647Y0010699D01*
X-0018615Y0010805D01*
X-0018587Y0010911D01*
X-0018559Y0011013D01*
X-0018532Y0011114D01*
X-0018504Y0011207D01*
X-0018481Y0011290D01*
X-0018458Y0011359D01*
X-0018449Y0011391D01*
X-0018444Y0011415D01*
X-0018439Y0011433D01*
X-0018435Y0011447D01*
X-0018430Y0011456D01*
Y0011461D01*
X-0018375Y0011664D01*
X-0018319Y0011877D01*
X-0018222Y0012306D01*
X-0018176Y0012523D01*
X-0018134Y0012736D01*
X-0018097Y0012939D01*
X-0018060Y0013138D01*
X-0018028Y0013318D01*
X-0018000Y0013489D01*
X-0017991Y0013563D01*
X-0017977Y0013637D01*
X-0017968Y0013706D01*
X-0017959Y0013766D01*
X-0017950Y0013822D01*
X-0017945Y0013872D01*
X-0017936Y0013914D01*
X-0017931Y0013951D01*
X-0017926Y0013979D01*
Y0013997D01*
X-0017922Y0014011D01*
Y0014016D01*
X-0017908Y0014131D01*
X-0017889Y0014237D01*
X-0017876Y0014334D01*
X-0017862Y0014422D01*
X-0017843Y0014501D01*
X-0017834Y0014570D01*
X-0017820Y0014635D01*
X-0017806Y0014690D01*
X-0017797Y0014741D01*
X-0017788Y0014783D01*
X-0017779Y0014815D01*
X-0017774Y0014843D01*
X-0017769Y0014861D01*
X-0017765Y0014880D01*
X-0017760Y0014884D01*
Y0014889D01*
X-0017723Y0014990D01*
X-0017682Y0015083D01*
X-0017635Y0015157D01*
X-0017594Y0015226D01*
X-0017543Y0015281D01*
X-0017497Y0015328D01*
X-0017451Y0015369D01*
X-0017404Y0015397D01*
X-0017363Y0015420D01*
X-0017321Y0015439D01*
X-0017284Y0015452D01*
X-0017252Y0015462D01*
X-0017229Y0015466D01*
X-0017210Y0015471D01*
X-0017192D01*
X-0017118Y0015466D01*
D02*
G37*
G36*
X-0027573Y0015374D02*
X-0027508Y0015360D01*
X-0027448Y0015337D01*
X-0027402Y0015314D01*
X-0027360Y0015291D01*
X-0027328Y0015268D01*
X-0027310Y0015254D01*
X-0027305Y0015249D01*
X-0027259Y0015198D01*
X-0027226Y0015143D01*
X-0027199Y0015092D01*
X-0027185Y0015041D01*
X-0027176Y0014995D01*
X-0027171Y0014958D01*
X-0027166Y0014935D01*
Y0014926D01*
X-0027171Y0014852D01*
X-0027185Y0014787D01*
X-0027208Y0014732D01*
X-0027240Y0014681D01*
X-0027273Y0014639D01*
X-0027314Y0014602D01*
X-0027356Y0014575D01*
X-0027397Y0014547D01*
X-0027439Y0014528D01*
X-0027481Y0014510D01*
X-0027522Y0014501D01*
X-0027555Y0014491D01*
X-0027587Y0014482D01*
X-0027610D01*
X-0027624Y0014478D01*
X-0027628D01*
X-0027725Y0014473D01*
X-0027813Y0014468D01*
X-0027896Y0014464D01*
X-0027975D01*
X-0028044Y0014459D01*
X-0028113Y0014455D01*
X-0028271D01*
X-0028312Y0014450D01*
X-0028423D01*
X-0028617Y0014445D01*
X-0028793Y0014441D01*
X-0028954Y0014436D01*
X-0029102D01*
X-0029236Y0014431D01*
X-0029356Y0014427D01*
X-0029634D01*
X-0029703Y0014422D01*
X-0029883D01*
X-0029786Y0014302D01*
X-0029694Y0014177D01*
X-0029601Y0014048D01*
X-0029509Y0013909D01*
X-0029421Y0013775D01*
X-0029338Y0013637D01*
X-0029264Y0013507D01*
X-0029190Y0013378D01*
X-0029125Y0013258D01*
X-0029065Y0013142D01*
X-0029014Y0013045D01*
X-0028968Y0012958D01*
X-0028931Y0012884D01*
X-0028917Y0012856D01*
X-0028908Y0012833D01*
X-0028899Y0012814D01*
X-0028890Y0012801D01*
X-0028885Y0012791D01*
Y0012787D01*
X-0028747Y0012459D01*
X-0028677Y0012297D01*
X-0028608Y0012140D01*
X-0028543Y0011987D01*
X-0028483Y0011844D01*
X-0028423Y0011706D01*
X-0028368Y0011576D01*
X-0028317Y0011456D01*
X-0028271Y0011350D01*
X-0028234Y0011258D01*
X-0028197Y0011179D01*
X-0028169Y0011114D01*
X-0028150Y0011068D01*
X-0028141Y0011050D01*
X-0028137Y0011036D01*
X-0028132Y0011031D01*
Y0011027D01*
X-0028090Y0010930D01*
X-0028058Y0010837D01*
X-0028026Y0010758D01*
X-0027998Y0010685D01*
X-0027975Y0010620D01*
X-0027957Y0010565D01*
X-0027943Y0010514D01*
X-0027929Y0010468D01*
X-0027920Y0010430D01*
X-0027915Y0010403D01*
X-0027910Y0010375D01*
X-0027906Y0010357D01*
X-0027901Y0010343D01*
Y0010334D01*
Y0010324D01*
X-0027906Y0010255D01*
X-0027924Y0010195D01*
X-0027947Y0010140D01*
X-0027975Y0010093D01*
X-0028003Y0010056D01*
X-0028026Y0010029D01*
X-0028044Y0010010D01*
X-0028049Y0010006D01*
X-0028109Y0009964D01*
X-0028169Y0009932D01*
X-0028224Y0009909D01*
X-0028275Y0009895D01*
X-0028321Y0009885D01*
X-0028358Y0009876D01*
X-0028391D01*
X-0028437Y0009881D01*
X-0028479Y0009885D01*
X-0028557Y0009909D01*
X-0028626Y0009941D01*
X-0028682Y0009978D01*
X-0028723Y0010015D01*
X-0028756Y0010047D01*
X-0028779Y0010070D01*
X-0028783Y0010079D01*
X-0028816Y0010130D01*
X-0028853Y0010190D01*
X-0028917Y0010310D01*
X-0028978Y0010435D01*
X-0029028Y0010555D01*
X-0029051Y0010611D01*
X-0029074Y0010661D01*
X-0029093Y0010708D01*
X-0029107Y0010749D01*
X-0029121Y0010782D01*
X-0029130Y0010805D01*
X-0029139Y0010823D01*
Y0010828D01*
X-0029181Y0010943D01*
X-0029218Y0011045D01*
X-0029250Y0011137D01*
X-0029282Y0011220D01*
X-0029310Y0011294D01*
X-0029333Y0011359D01*
X-0029352Y0011415D01*
X-0029370Y0011461D01*
X-0029389Y0011502D01*
X-0029403Y0011535D01*
X-0029412Y0011562D01*
X-0029421Y0011581D01*
X-0029426Y0011595D01*
X-0029430Y0011604D01*
X-0029435Y0011613D01*
X-0029481Y0011715D01*
X-0029527Y0011807D01*
X-0029569Y0011895D01*
X-0029606Y0011983D01*
X-0029680Y0012140D01*
X-0029744Y0012279D01*
X-0029805Y0012399D01*
X-0029855Y0012505D01*
X-0029897Y0012597D01*
X-0029934Y0012676D01*
X-0029966Y0012741D01*
X-0029994Y0012796D01*
X-0030017Y0012837D01*
X-0030031Y0012875D01*
X-0030045Y0012898D01*
X-0030054Y0012912D01*
X-0030059Y0012921D01*
Y0012925D01*
X-0030132Y0013059D01*
X-0030202Y0013184D01*
X-0030276Y0013304D01*
X-0030345Y0013415D01*
X-0030419Y0013521D01*
X-0030484Y0013623D01*
X-0030548Y0013715D01*
X-0030613Y0013799D01*
X-0030668Y0013872D01*
X-0030719Y0013937D01*
X-0030765Y0013997D01*
X-0030807Y0014043D01*
X-0030839Y0014080D01*
X-0030863Y0014108D01*
X-0030876Y0014127D01*
X-0030881Y0014131D01*
X-0030946Y0014205D01*
X-0031010Y0014274D01*
X-0031070Y0014344D01*
X-0031121Y0014404D01*
X-0031167Y0014450D01*
X-0031204Y0014491D01*
X-0031223Y0014515D01*
X-0031232Y0014524D01*
X-0031269Y0014575D01*
X-0031301Y0014621D01*
X-0031357Y0014709D01*
X-0031394Y0014787D01*
X-0031417Y0014852D01*
X-0031435Y0014907D01*
X-0031440Y0014949D01*
X-0031445Y0014972D01*
Y0014981D01*
X-0031435Y0015046D01*
X-0031417Y0015101D01*
X-0031389Y0015147D01*
X-0031357Y0015184D01*
X-0031320Y0015217D01*
X-0031292Y0015235D01*
X-0031274Y0015249D01*
X-0031264Y0015254D01*
X-0031209Y0015277D01*
X-0031154Y0015295D01*
X-0031098Y0015309D01*
X-0031043Y0015318D01*
X-0031001Y0015323D01*
X-0030964Y0015328D01*
X-0030008D01*
X-0029901Y0015332D01*
X-0029680Y0015337D01*
X-0029569D01*
X-0029467Y0015342D01*
X-0029273D01*
X-0029185Y0015346D01*
X-0029111D01*
X-0029051Y0015351D01*
X-0028968D01*
X-0028806Y0015355D01*
X-0028659Y0015360D01*
X-0028520Y0015365D01*
X-0028391Y0015369D01*
X-0028271D01*
X-0028164Y0015374D01*
X-0027975D01*
X-0027901Y0015379D01*
X-0027647D01*
X-0027573Y0015374D01*
D02*
G37*
G36*
X-0003988Y0015540D02*
X-0003919Y0015517D01*
X-0003849Y0015489D01*
X-0003794Y0015452D01*
X-0003743Y0015416D01*
X-0003706Y0015388D01*
X-0003683Y0015365D01*
X-0003674Y0015355D01*
X-0003614Y0015286D01*
X-0003568Y0015217D01*
X-0003535Y0015152D01*
X-0003512Y0015092D01*
X-0003498Y0015041D01*
X-0003494Y0015004D01*
X-0003489Y0014981D01*
Y0014972D01*
Y0014894D01*
Y0014810D01*
Y0014723D01*
X-0003494Y0014626D01*
Y0014432D01*
X-0003498Y0014247D01*
Y0014154D01*
Y0014076D01*
Y0014002D01*
X-0003503Y0013937D01*
Y0013882D01*
Y0013840D01*
Y0013817D01*
Y0013808D01*
X-0003507Y0013669D01*
Y0013535D01*
X-0003512Y0013410D01*
Y0013299D01*
X-0003517Y0013193D01*
Y0013096D01*
Y0013013D01*
X-0003521Y0012935D01*
Y0012865D01*
Y0012805D01*
Y0012759D01*
Y0012717D01*
Y0012685D01*
Y0012662D01*
Y0012648D01*
Y0012643D01*
Y0012574D01*
Y0012496D01*
X-0003517Y0012417D01*
Y0012334D01*
X-0003512Y0012158D01*
X-0003507Y0011987D01*
X-0003503Y0011909D01*
X-0003498Y0011835D01*
Y0011766D01*
X-0003494Y0011710D01*
Y0011659D01*
X-0003489Y0011627D01*
Y0011604D01*
Y0011595D01*
X-0003484Y0011470D01*
X-0003480Y0011350D01*
X-0003475Y0011239D01*
X-0003471Y0011137D01*
X-0003466Y0011040D01*
Y0010957D01*
X-0003461Y0010879D01*
Y0010809D01*
Y0010749D01*
X-0003457Y0010694D01*
Y0010648D01*
Y0010611D01*
Y0010583D01*
Y0010565D01*
Y0010551D01*
Y0010546D01*
X-0003461Y0010477D01*
X-0003480Y0010412D01*
X-0003503Y0010352D01*
X-0003526Y0010306D01*
X-0003554Y0010264D01*
X-0003572Y0010237D01*
X-0003591Y0010218D01*
X-0003595Y0010213D01*
X-0003651Y0010167D01*
X-0003706Y0010135D01*
X-0003766Y0010112D01*
X-0003822Y0010093D01*
X-0003868Y0010084D01*
X-0003909Y0010079D01*
X-0003932Y0010075D01*
X-0003942D01*
X-0004034Y0010024D01*
X-0004140Y0009973D01*
X-0004242Y0009936D01*
X-0004344Y0009899D01*
X-0004436Y0009871D01*
X-0004473Y0009862D01*
X-0004510Y0009853D01*
X-0004538Y0009844D01*
X-0004556Y0009839D01*
X-0004570Y0009835D01*
X-0004575D01*
X-0004695Y0009811D01*
X-0004806Y0009793D01*
X-0004903Y0009779D01*
X-0004990Y0009770D01*
X-0005064Y0009765D01*
X-0005092D01*
X-0005115Y0009761D01*
X-0005161D01*
X-0005351Y0009765D01*
X-0005531Y0009779D01*
X-0005702Y0009798D01*
X-0005859Y0009821D01*
X-0006002Y0009848D01*
X-0006136Y0009881D01*
X-0006261Y0009913D01*
X-0006372Y0009950D01*
X-0006469Y0009982D01*
X-0006552Y0010015D01*
X-0006626Y0010047D01*
X-0006686Y0010075D01*
X-0006732Y0010103D01*
X-0006764Y0010121D01*
X-0006788Y0010130D01*
X-0006792Y0010135D01*
X-0006885Y0010199D01*
X-0006977Y0010269D01*
X-0007060Y0010343D01*
X-0007139Y0010417D01*
X-0007208Y0010491D01*
X-0007277Y0010565D01*
X-0007337Y0010638D01*
X-0007393Y0010708D01*
X-0007444Y0010772D01*
X-0007485Y0010832D01*
X-0007522Y0010888D01*
X-0007550Y0010934D01*
X-0007573Y0010971D01*
X-0007592Y0011003D01*
X-0007601Y0011022D01*
X-0007605Y0011027D01*
X-0007656Y0011128D01*
X-0007702Y0011234D01*
X-0007744Y0011336D01*
X-0007781Y0011438D01*
X-0007809Y0011535D01*
X-0007832Y0011632D01*
X-0007850Y0011720D01*
X-0007869Y0011807D01*
X-0007883Y0011886D01*
X-0007892Y0011955D01*
X-0007896Y0012020D01*
X-0007901Y0012075D01*
X-0007906Y0012117D01*
Y0012149D01*
Y0012172D01*
Y0012177D01*
X-0007901Y0012269D01*
X-0007896Y0012362D01*
X-0007869Y0012547D01*
X-0007827Y0012722D01*
X-0007772Y0012888D01*
X-0007707Y0013050D01*
X-0007633Y0013198D01*
X-0007555Y0013341D01*
X-0007476Y0013471D01*
X-0007393Y0013591D01*
X-0007314Y0013697D01*
X-0007240Y0013789D01*
X-0007176Y0013868D01*
X-0007120Y0013928D01*
X-0007079Y0013974D01*
X-0007051Y0014002D01*
X-0007046Y0014011D01*
X-0007042D01*
X-0006903Y0014136D01*
X-0006760Y0014256D01*
X-0006612Y0014367D01*
X-0006464Y0014468D01*
X-0006316Y0014561D01*
X-0006168Y0014644D01*
X-0006030Y0014718D01*
X-0005896Y0014787D01*
X-0005767Y0014847D01*
X-0005656Y0014898D01*
X-0005550Y0014944D01*
X-0005462Y0014977D01*
X-0005392Y0015004D01*
X-0005360Y0015018D01*
X-0005337Y0015027D01*
X-0005319Y0015032D01*
X-0005305Y0015037D01*
X-0005295Y0015041D01*
X-0005291D01*
X-0005268Y0015051D01*
X-0005235Y0015064D01*
X-0005194Y0015078D01*
X-0005147Y0015101D01*
X-0005041Y0015148D01*
X-0004930Y0015198D01*
X-0004824Y0015249D01*
X-0004778Y0015272D01*
X-0004736Y0015291D01*
X-0004699Y0015309D01*
X-0004672Y0015323D01*
X-0004653Y0015328D01*
X-0004649Y0015332D01*
X-0004565Y0015369D01*
X-0004492Y0015406D01*
X-0004422Y0015434D01*
X-0004362Y0015457D01*
X-0004307Y0015480D01*
X-0004261Y0015499D01*
X-0004219Y0015513D01*
X-0004182Y0015522D01*
X-0004154Y0015531D01*
X-0004126Y0015540D01*
X-0004108Y0015545D01*
X-0004094D01*
X-0004071Y0015550D01*
X-0004066D01*
X-0003988Y0015540D01*
D02*
G37*
G36*
X-0016273Y0026256D02*
X-0016208Y0026242D01*
X-0016148Y0026219D01*
X-0016097Y0026196D01*
X-0016056Y0026168D01*
X-0016028Y0026150D01*
X-0016005Y0026131D01*
X-0016000Y0026127D01*
X-0015954Y0026076D01*
X-0015917Y0026021D01*
X-0015894Y0025970D01*
X-0015876Y0025919D01*
X-0015866Y0025873D01*
X-0015862Y0025836D01*
X-0015857Y0025813D01*
Y0025803D01*
Y0025752D01*
X-0015862Y0025697D01*
Y0025637D01*
X-0015866Y0025582D01*
Y0025535D01*
X-0015871Y0025494D01*
Y0025466D01*
Y0025461D01*
Y0025457D01*
X-0015876Y0025369D01*
X-0015880Y0025291D01*
X-0015885Y0025226D01*
Y0025175D01*
X-0015889Y0025138D01*
Y0025110D01*
Y0025092D01*
Y0025087D01*
X-0015806Y0025096D01*
X-0015728Y0025101D01*
X-0015663Y0025106D01*
X-0015598Y0025110D01*
X-0015543Y0025115D01*
X-0015497Y0025120D01*
X-0015455D01*
X-0015418Y0025124D01*
X-0015386D01*
X-0015358Y0025129D01*
X-0015293D01*
X-0015220Y0025124D01*
X-0015150Y0025106D01*
X-0015090Y0025087D01*
X-0015039Y0025060D01*
X-0015002Y0025036D01*
X-0014970Y0025013D01*
X-0014952Y0024995D01*
X-0014947Y0024990D01*
X-0014905Y0024935D01*
X-0014873Y0024879D01*
X-0014850Y0024824D01*
X-0014836Y0024773D01*
X-0014827Y0024727D01*
X-0014818Y0024690D01*
Y0024667D01*
Y0024658D01*
X-0014822Y0024584D01*
X-0014836Y0024524D01*
X-0014859Y0024464D01*
X-0014887Y0024417D01*
X-0014919Y0024371D01*
X-0014956Y0024334D01*
X-0014998Y0024306D01*
X-0015039Y0024279D01*
X-0015076Y0024256D01*
X-0015118Y0024242D01*
X-0015155Y0024228D01*
X-0015187Y0024219D01*
X-0015215Y0024214D01*
X-0015238Y0024209D01*
X-0015252Y0024205D01*
X-0015257D01*
X-0015335Y0024196D01*
X-0015409Y0024191D01*
X-0015478Y0024182D01*
X-0015543Y0024177D01*
X-0015603Y0024172D01*
X-0015658Y0024168D01*
X-0015705Y0024163D01*
X-0015751Y0024159D01*
X-0015788D01*
X-0015820Y0024154D01*
X-0015871D01*
X-0015889Y0024149D01*
X-0015913D01*
X-0015917Y0024020D01*
X-0015922Y0023900D01*
X-0015926Y0023784D01*
X-0015931Y0023674D01*
X-0015936Y0023567D01*
X-0015940Y0023466D01*
X-0015945Y0023369D01*
X-0015949Y0023281D01*
Y0023193D01*
X-0015954Y0023114D01*
Y0023036D01*
X-0015959Y0022967D01*
X-0015963Y0022837D01*
Y0022722D01*
X-0015968Y0022625D01*
Y0022546D01*
X-0015973Y0022477D01*
Y0022426D01*
Y0022385D01*
Y0022361D01*
Y0022343D01*
Y0022338D01*
Y0022283D01*
Y0022223D01*
X-0015968Y0022163D01*
Y0022103D01*
Y0022047D01*
X-0015963Y0022001D01*
Y0021983D01*
Y0021969D01*
Y0021964D01*
Y0021960D01*
X-0015959Y0021872D01*
Y0021793D01*
Y0021729D01*
X-0015954Y0021678D01*
Y0021636D01*
Y0021604D01*
Y0021585D01*
Y0021581D01*
X-0015959Y0021511D01*
X-0015977Y0021451D01*
X-0016000Y0021400D01*
X-0016033Y0021354D01*
X-0016060Y0021317D01*
X-0016083Y0021294D01*
X-0016102Y0021276D01*
X-0016106Y0021271D01*
X-0016162Y0021229D01*
X-0016217Y0021202D01*
X-0016273Y0021179D01*
X-0016324Y0021165D01*
X-0016370Y0021156D01*
X-0016407Y0021151D01*
X-0016439D01*
X-0016485Y0021156D01*
X-0016527Y0021160D01*
X-0016605Y0021188D01*
X-0016675Y0021225D01*
X-0016735Y0021276D01*
X-0016781Y0021336D01*
X-0016823Y0021405D01*
X-0016855Y0021479D01*
X-0016883Y0021553D01*
X-0016906Y0021627D01*
X-0016920Y0021701D01*
X-0016933Y0021770D01*
X-0016938Y0021830D01*
X-0016943Y0021881D01*
X-0016947Y0021923D01*
Y0021946D01*
Y0021955D01*
Y0021983D01*
Y0022019D01*
Y0022084D01*
X-0016943Y0022112D01*
Y0022135D01*
Y0022149D01*
Y0022153D01*
Y0022195D01*
X-0016938Y0022232D01*
Y0022264D01*
Y0022287D01*
Y0022301D01*
Y0022315D01*
Y0022324D01*
Y0022366D01*
Y0022417D01*
Y0022472D01*
X-0016933Y0022528D01*
Y0022657D01*
X-0016929Y0022796D01*
X-0016924Y0022943D01*
X-0016920Y0023101D01*
X-0016915Y0023258D01*
X-0016910Y0023410D01*
X-0016901Y0023563D01*
X-0016897Y0023701D01*
X-0016892Y0023831D01*
Y0023891D01*
X-0016887Y0023946D01*
Y0023997D01*
X-0016883Y0024038D01*
Y0024080D01*
Y0024112D01*
X-0016878Y0024136D01*
Y0024159D01*
Y0024168D01*
Y0024172D01*
X-0016947Y0024182D01*
X-0017007Y0024191D01*
X-0017063Y0024196D01*
X-0017114D01*
X-0017151Y0024200D01*
X-0017266D01*
X-0017322Y0024196D01*
X-0017345D01*
X-0017363Y0024191D01*
X-0017377D01*
X-0017446Y0024186D01*
X-0017553D01*
X-0017627Y0024191D01*
X-0017696Y0024209D01*
X-0017756Y0024228D01*
X-0017807Y0024256D01*
X-0017844Y0024279D01*
X-0017876Y0024302D01*
X-0017895Y0024316D01*
X-0017899Y0024320D01*
X-0017945Y0024371D01*
X-0017978Y0024431D01*
X-0018005Y0024487D01*
X-0018019Y0024537D01*
X-0018029Y0024584D01*
X-0018038Y0024621D01*
Y0024644D01*
Y0024653D01*
X-0018033Y0024713D01*
X-0018024Y0024764D01*
X-0018010Y0024815D01*
X-0017996Y0024856D01*
X-0017973Y0024898D01*
X-0017950Y0024930D01*
X-0017899Y0024990D01*
X-0017844Y0025032D01*
X-0017802Y0025060D01*
X-0017784Y0025069D01*
X-0017770Y0025073D01*
X-0017761Y0025078D01*
X-0017756D01*
X-0017724Y0025087D01*
X-0017691Y0025096D01*
X-0017608Y0025110D01*
X-0017520Y0025120D01*
X-0017428Y0025129D01*
X-0017345D01*
X-0017308Y0025133D01*
X-0017155D01*
X-0017100Y0025129D01*
X-0017040Y0025124D01*
X-0016984Y0025120D01*
X-0016933Y0025110D01*
X-0016897Y0025106D01*
X-0016869Y0025101D01*
X-0016860D01*
X-0016864Y0025387D01*
Y0025466D01*
X-0016860Y0025540D01*
X-0016850Y0025609D01*
X-0016841Y0025674D01*
X-0016818Y0025794D01*
X-0016786Y0025891D01*
X-0016744Y0025979D01*
X-0016702Y0026048D01*
X-0016652Y0026104D01*
X-0016605Y0026150D01*
X-0016559Y0026187D01*
X-0016509Y0026215D01*
X-0016467Y0026233D01*
X-0016430Y0026247D01*
X-0016393Y0026256D01*
X-0016370Y0026261D01*
X-0016347D01*
X-0016273Y0026256D01*
D02*
G37*
G36*
X-0006261Y0026958D02*
X-0006118Y0026945D01*
X-0005989Y0026921D01*
X-0005864Y0026889D01*
X-0005753Y0026852D01*
X-0005652Y0026811D01*
X-0005559Y0026769D01*
X-0005476Y0026727D01*
X-0005402Y0026681D01*
X-0005337Y0026640D01*
X-0005286Y0026598D01*
X-0005245Y0026561D01*
X-0005208Y0026533D01*
X-0005185Y0026506D01*
X-0005171Y0026492D01*
X-0005166Y0026487D01*
X-0005106Y0026413D01*
X-0005055Y0026325D01*
X-0005009Y0026238D01*
X-0004963Y0026145D01*
X-0004889Y0025951D01*
X-0004834Y0025762D01*
X-0004811Y0025674D01*
X-0004792Y0025591D01*
X-0004774Y0025517D01*
X-0004764Y0025452D01*
X-0004755Y0025397D01*
X-0004746Y0025355D01*
X-0004741Y0025332D01*
Y0025323D01*
X-0004732Y0025263D01*
X-0004727Y0025212D01*
X-0004723Y0025161D01*
X-0004718Y0025120D01*
X-0004714Y0025083D01*
X-0004709Y0025050D01*
X-0004704Y0025004D01*
Y0024967D01*
X-0004700Y0024944D01*
Y0024935D01*
Y0024930D01*
X-0004617Y0024926D01*
X-0004543Y0024921D01*
X-0004473Y0024916D01*
X-0004409Y0024912D01*
X-0004353Y0024907D01*
X-0004302Y0024902D01*
X-0004256Y0024898D01*
X-0004219Y0024893D01*
X-0004187Y0024889D01*
X-0004159Y0024884D01*
X-0004136Y0024879D01*
X-0004118D01*
X-0004095Y0024870D01*
X-0004085D01*
X-0004025Y0024847D01*
X-0003974Y0024824D01*
X-0003928Y0024791D01*
X-0003887Y0024759D01*
X-0003854Y0024727D01*
X-0003827Y0024690D01*
X-0003804Y0024653D01*
X-0003785Y0024621D01*
X-0003762Y0024551D01*
X-0003748Y0024496D01*
Y0024477D01*
X-0003743Y0024459D01*
Y0024450D01*
Y0024445D01*
X-0003748Y0024371D01*
X-0003766Y0024302D01*
X-0003790Y0024246D01*
X-0003813Y0024196D01*
X-0003840Y0024159D01*
X-0003859Y0024131D01*
X-0003877Y0024112D01*
X-0003882Y0024108D01*
X-0003937Y0024066D01*
X-0003997Y0024038D01*
X-0004053Y0024015D01*
X-0004108Y0024002D01*
X-0004159Y0023992D01*
X-0004196Y0023988D01*
X-0004265D01*
X-0004298Y0023992D01*
X-0004363Y0023997D01*
X-0004390D01*
X-0004413Y0024002D01*
X-0004436D01*
X-0004496Y0024011D01*
X-0004547Y0024020D01*
X-0004584Y0024025D01*
X-0004617Y0024029D01*
X-0004644D01*
X-0004658Y0024034D01*
X-0004672D01*
Y0022283D01*
X-0004667Y0022117D01*
X-0004658Y0021950D01*
X-0004644Y0021793D01*
X-0004635Y0021719D01*
X-0004631Y0021650D01*
X-0004621Y0021590D01*
X-0004612Y0021530D01*
X-0004603Y0021479D01*
X-0004598Y0021433D01*
X-0004594Y0021400D01*
X-0004589Y0021373D01*
X-0004584Y0021354D01*
Y0021350D01*
X-0004580Y0021317D01*
Y0021290D01*
Y0021271D01*
Y0021262D01*
X-0004584Y0021193D01*
X-0004603Y0021133D01*
X-0004626Y0021077D01*
X-0004654Y0021031D01*
X-0004677Y0020994D01*
X-0004700Y0020966D01*
X-0004718Y0020948D01*
X-0004723Y0020943D01*
X-0004778Y0020901D01*
X-0004838Y0020869D01*
X-0004898Y0020846D01*
X-0004949Y0020832D01*
X-0004995Y0020823D01*
X-0005032Y0020814D01*
X-0005065D01*
X-0005134Y0020818D01*
X-0005194Y0020832D01*
X-0005249Y0020851D01*
X-0005300Y0020874D01*
X-0005342Y0020901D01*
X-0005379Y0020934D01*
X-0005411Y0020966D01*
X-0005439Y0021003D01*
X-0005480Y0021068D01*
X-0005508Y0021128D01*
X-0005517Y0021156D01*
X-0005522Y0021174D01*
X-0005527Y0021183D01*
Y0021188D01*
X-0005541Y0021262D01*
X-0005554Y0021336D01*
X-0005573Y0021502D01*
X-0005591Y0021668D01*
X-0005601Y0021835D01*
X-0005605Y0021909D01*
Y0021978D01*
Y0022038D01*
X-0005610Y0022094D01*
Y0022140D01*
Y0022172D01*
Y0022190D01*
Y0022200D01*
Y0022227D01*
Y0022274D01*
Y0022329D01*
Y0022394D01*
X-0005605Y0022468D01*
Y0022546D01*
Y0022713D01*
X-0005601Y0022796D01*
Y0022870D01*
Y0022943D01*
Y0023008D01*
X-0005596Y0023059D01*
Y0023101D01*
Y0023128D01*
Y0023138D01*
Y0023244D01*
Y0023341D01*
X-0005591Y0023438D01*
X-0005596Y0023526D01*
Y0023613D01*
Y0023687D01*
Y0023761D01*
Y0023826D01*
X-0005601Y0023886D01*
Y0023937D01*
Y0023978D01*
Y0024015D01*
X-0005605Y0024048D01*
Y0024066D01*
Y0024080D01*
Y0024085D01*
X-0005684Y0024089D01*
X-0005762Y0024099D01*
X-0005832Y0024103D01*
X-0005896D01*
X-0005956Y0024108D01*
X-0006012D01*
X-0006058Y0024112D01*
X-0006395D01*
X-0006502Y0024126D01*
X-0006594Y0024145D01*
X-0006673Y0024172D01*
X-0006742Y0024209D01*
X-0006797Y0024246D01*
X-0006843Y0024283D01*
X-0006880Y0024329D01*
X-0006908Y0024371D01*
X-0006931Y0024413D01*
X-0006945Y0024450D01*
X-0006959Y0024482D01*
X-0006964Y0024514D01*
X-0006968Y0024537D01*
Y0024551D01*
Y0024556D01*
X-0006959Y0024634D01*
X-0006940Y0024704D01*
X-0006908Y0024764D01*
X-0006866Y0024815D01*
X-0006816Y0024861D01*
X-0006760Y0024893D01*
X-0006700Y0024926D01*
X-0006640Y0024949D01*
X-0006580Y0024967D01*
X-0006520Y0024981D01*
X-0006465Y0024990D01*
X-0006414Y0024999D01*
X-0006372D01*
X-0006340Y0025004D01*
X-0006224D01*
X-0006123Y0024999D01*
X-0006012Y0024990D01*
X-0005901Y0024986D01*
X-0005799Y0024976D01*
X-0005758Y0024972D01*
X-0005721Y0024967D01*
X-0005688D01*
X-0005661Y0024962D01*
X-0005642D01*
X-0005652Y0025060D01*
X-0005661Y0025147D01*
X-0005675Y0025226D01*
X-0005688Y0025300D01*
X-0005702Y0025364D01*
X-0005716Y0025429D01*
X-0005730Y0025484D01*
X-0005748Y0025535D01*
X-0005762Y0025582D01*
X-0005781Y0025618D01*
X-0005795Y0025655D01*
X-0005809Y0025683D01*
X-0005818Y0025706D01*
X-0005827Y0025725D01*
X-0005836Y0025739D01*
X-0005841Y0025743D01*
Y0025748D01*
X-0005878Y0025799D01*
X-0005924Y0025845D01*
X-0005970Y0025886D01*
X-0006021Y0025923D01*
X-0006072Y0025951D01*
X-0006123Y0025974D01*
X-0006224Y0026011D01*
X-0006317Y0026034D01*
X-0006354Y0026039D01*
X-0006391Y0026044D01*
X-0006418Y0026048D01*
X-0006460D01*
X-0006566Y0026053D01*
X-0006659Y0026067D01*
X-0006737Y0026090D01*
X-0006807Y0026118D01*
X-0006862Y0026154D01*
X-0006913Y0026191D01*
X-0006950Y0026233D01*
X-0006982Y0026275D01*
X-0007005Y0026316D01*
X-0007024Y0026358D01*
X-0007038Y0026395D01*
X-0007047Y0026432D01*
X-0007051Y0026459D01*
X-0007056Y0026482D01*
Y0026496D01*
Y0026501D01*
X-0007047Y0026584D01*
X-0007028Y0026653D01*
X-0006996Y0026713D01*
X-0006954Y0026769D01*
X-0006908Y0026815D01*
X-0006853Y0026852D01*
X-0006793Y0026880D01*
X-0006737Y0026908D01*
X-0006677Y0026926D01*
X-0006617Y0026940D01*
X-0006562Y0026949D01*
X-0006515Y0026954D01*
X-0006474Y0026958D01*
X-0006442Y0026963D01*
X-0006414D01*
X-0006261Y0026958D01*
D02*
G37*
G36*
X-0019964Y0025018D02*
X-0019816Y0024999D01*
X-0019673Y0024962D01*
X-0019539Y0024921D01*
X-0019414Y0024870D01*
X-0019299Y0024815D01*
X-0019193Y0024750D01*
X-0019100Y0024690D01*
X-0019013Y0024625D01*
X-0018939Y0024565D01*
X-0018879Y0024505D01*
X-0018828Y0024454D01*
X-0018786Y0024413D01*
X-0018754Y0024376D01*
X-0018735Y0024357D01*
X-0018731Y0024348D01*
X-0018647Y0024228D01*
X-0018578Y0024108D01*
X-0018518Y0023983D01*
X-0018463Y0023854D01*
X-0018421Y0023729D01*
X-0018380Y0023604D01*
X-0018352Y0023484D01*
X-0018329Y0023369D01*
X-0018306Y0023262D01*
X-0018292Y0023161D01*
X-0018283Y0023073D01*
X-0018278Y0022999D01*
X-0018273Y0022939D01*
X-0018269Y0022888D01*
Y0022874D01*
Y0022860D01*
Y0022856D01*
Y0022851D01*
X-0018273Y0022703D01*
X-0018292Y0022569D01*
X-0018324Y0022440D01*
X-0018361Y0022320D01*
X-0018403Y0022209D01*
X-0018453Y0022103D01*
X-0018509Y0022010D01*
X-0018564Y0021927D01*
X-0018615Y0021853D01*
X-0018671Y0021789D01*
X-0018722Y0021733D01*
X-0018763Y0021691D01*
X-0018800Y0021655D01*
X-0018832Y0021627D01*
X-0018851Y0021613D01*
X-0018855Y0021608D01*
X-0018957Y0021539D01*
X-0019068Y0021479D01*
X-0019179Y0021424D01*
X-0019294Y0021377D01*
X-0019405Y0021340D01*
X-0019521Y0021308D01*
X-0019632Y0021280D01*
X-0019738Y0021262D01*
X-0019835Y0021243D01*
X-0019927Y0021234D01*
X-0020010Y0021225D01*
X-0020080Y0021216D01*
X-0020140D01*
X-0020181Y0021211D01*
X-0020218D01*
X-0020320Y0021216D01*
X-0020422Y0021220D01*
X-0020611Y0021243D01*
X-0020703Y0021257D01*
X-0020791Y0021276D01*
X-0020870Y0021294D01*
X-0020944Y0021317D01*
X-0021013Y0021336D01*
X-0021073Y0021354D01*
X-0021128Y0021373D01*
X-0021175Y0021387D01*
X-0021207Y0021400D01*
X-0021235Y0021410D01*
X-0021253Y0021419D01*
X-0021258D01*
X-0021360Y0021470D01*
X-0021452Y0021521D01*
X-0021530Y0021571D01*
X-0021595Y0021627D01*
X-0021655Y0021682D01*
X-0021701Y0021738D01*
X-0021738Y0021789D01*
X-0021771Y0021839D01*
X-0021794Y0021886D01*
X-0021812Y0021932D01*
X-0021826Y0021969D01*
X-0021835Y0022006D01*
X-0021840Y0022033D01*
X-0021845Y0022052D01*
Y0022066D01*
Y0022070D01*
X-0021840Y0022135D01*
X-0021831Y0022186D01*
X-0021812Y0022237D01*
X-0021789Y0022278D01*
X-0021761Y0022311D01*
X-0021729Y0022338D01*
X-0021697Y0022361D01*
X-0021664Y0022380D01*
X-0021595Y0022408D01*
X-0021535Y0022422D01*
X-0021512Y0022426D01*
X-0021480D01*
X-0021410Y0022417D01*
X-0021332Y0022398D01*
X-0021253Y0022371D01*
X-0021179Y0022338D01*
X-0021115Y0022306D01*
X-0021059Y0022278D01*
X-0021041Y0022269D01*
X-0021027Y0022260D01*
X-0021018Y0022251D01*
X-0021013D01*
X-0020888Y0022186D01*
X-0020754Y0022140D01*
X-0020620Y0022107D01*
X-0020495Y0022084D01*
X-0020436Y0022075D01*
X-0020385Y0022070D01*
X-0020338Y0022066D01*
X-0020297D01*
X-0020265Y0022061D01*
X-0020218D01*
X-0020108Y0022066D01*
X-0020006Y0022075D01*
X-0019913Y0022089D01*
X-0019830Y0022107D01*
X-0019766Y0022121D01*
X-0019715Y0022135D01*
X-0019696Y0022140D01*
X-0019682Y0022144D01*
X-0019678Y0022149D01*
X-0019673D01*
X-0019590Y0022186D01*
X-0019512Y0022232D01*
X-0019442Y0022278D01*
X-0019382Y0022324D01*
X-0019336Y0022361D01*
X-0019299Y0022394D01*
X-0019281Y0022417D01*
X-0019271Y0022426D01*
X-0020449Y0022943D01*
X-0020556Y0022990D01*
X-0020653Y0023036D01*
X-0020740Y0023077D01*
X-0020824Y0023119D01*
X-0020893Y0023151D01*
X-0020957Y0023188D01*
X-0021013Y0023216D01*
X-0021064Y0023244D01*
X-0021105Y0023267D01*
X-0021142Y0023290D01*
X-0021170Y0023304D01*
X-0021193Y0023318D01*
X-0021212Y0023332D01*
X-0021226Y0023341D01*
X-0021235Y0023346D01*
X-0021313Y0023401D01*
X-0021378Y0023461D01*
X-0021438Y0023516D01*
X-0021484Y0023576D01*
X-0021526Y0023632D01*
X-0021563Y0023692D01*
X-0021590Y0023743D01*
X-0021614Y0023798D01*
X-0021632Y0023844D01*
X-0021646Y0023886D01*
X-0021655Y0023928D01*
X-0021664Y0023960D01*
Y0023988D01*
X-0021669Y0024006D01*
Y0024020D01*
Y0024025D01*
X-0021664Y0024122D01*
X-0021646Y0024214D01*
X-0021618Y0024302D01*
X-0021586Y0024380D01*
X-0021544Y0024454D01*
X-0021503Y0024519D01*
X-0021452Y0024579D01*
X-0021406Y0024630D01*
X-0021355Y0024676D01*
X-0021304Y0024718D01*
X-0021262Y0024750D01*
X-0021221Y0024778D01*
X-0021189Y0024801D01*
X-0021161Y0024815D01*
X-0021142Y0024824D01*
X-0021138Y0024828D01*
X-0021059Y0024866D01*
X-0020981Y0024893D01*
X-0020810Y0024944D01*
X-0020643Y0024981D01*
X-0020560Y0024990D01*
X-0020482Y0025004D01*
X-0020408Y0025009D01*
X-0020338Y0025018D01*
X-0020278Y0025023D01*
X-0020228D01*
X-0020186Y0025027D01*
X-0020126D01*
X-0019964Y0025018D01*
D02*
G37*
G36*
X-0031976D02*
X-0031828Y0024999D01*
X-0031685Y0024962D01*
X-0031551Y0024921D01*
X-0031427Y0024870D01*
X-0031311Y0024815D01*
X-0031205Y0024750D01*
X-0031112Y0024690D01*
X-0031025Y0024625D01*
X-0030951Y0024565D01*
X-0030891Y0024505D01*
X-0030840Y0024454D01*
X-0030798Y0024413D01*
X-0030766Y0024376D01*
X-0030747Y0024357D01*
X-0030743Y0024348D01*
X-0030659Y0024228D01*
X-0030590Y0024108D01*
X-0030530Y0023983D01*
X-0030475Y0023854D01*
X-0030433Y0023729D01*
X-0030392Y0023604D01*
X-0030364Y0023484D01*
X-0030341Y0023369D01*
X-0030318Y0023262D01*
X-0030304Y0023161D01*
X-0030295Y0023073D01*
X-0030290Y0022999D01*
X-0030285Y0022939D01*
X-0030281Y0022888D01*
Y0022874D01*
Y0022860D01*
Y0022856D01*
Y0022851D01*
X-0030285Y0022703D01*
X-0030304Y0022569D01*
X-0030336Y0022440D01*
X-0030373Y0022320D01*
X-0030415Y0022209D01*
X-0030465Y0022103D01*
X-0030521Y0022010D01*
X-0030576Y0021927D01*
X-0030627Y0021853D01*
X-0030683Y0021789D01*
X-0030733Y0021733D01*
X-0030775Y0021691D01*
X-0030812Y0021655D01*
X-0030844Y0021627D01*
X-0030863Y0021613D01*
X-0030867Y0021608D01*
X-0030969Y0021539D01*
X-0031080Y0021479D01*
X-0031191Y0021424D01*
X-0031306Y0021377D01*
X-0031417Y0021340D01*
X-0031533Y0021308D01*
X-0031644Y0021280D01*
X-0031750Y0021262D01*
X-0031847Y0021243D01*
X-0031939Y0021234D01*
X-0032022Y0021225D01*
X-0032092Y0021216D01*
X-0032152D01*
X-0032193Y0021211D01*
X-0032230D01*
X-0032332Y0021216D01*
X-0032434Y0021220D01*
X-0032623Y0021243D01*
X-0032715Y0021257D01*
X-0032803Y0021276D01*
X-0032882Y0021294D01*
X-0032956Y0021317D01*
X-0033025Y0021336D01*
X-0033085Y0021354D01*
X-0033141Y0021373D01*
X-0033187Y0021387D01*
X-0033219Y0021400D01*
X-0033247Y0021410D01*
X-0033265Y0021419D01*
X-0033270D01*
X-0033371Y0021470D01*
X-0033464Y0021521D01*
X-0033542Y0021571D01*
X-0033607Y0021627D01*
X-0033667Y0021682D01*
X-0033713Y0021738D01*
X-0033750Y0021789D01*
X-0033783Y0021839D01*
X-0033806Y0021886D01*
X-0033824Y0021932D01*
X-0033838Y0021969D01*
X-0033847Y0022006D01*
X-0033852Y0022033D01*
X-0033857Y0022052D01*
Y0022066D01*
Y0022070D01*
X-0033852Y0022135D01*
X-0033843Y0022186D01*
X-0033824Y0022237D01*
X-0033801Y0022278D01*
X-0033773Y0022311D01*
X-0033741Y0022338D01*
X-0033709Y0022361D01*
X-0033676Y0022380D01*
X-0033607Y0022408D01*
X-0033547Y0022422D01*
X-0033524Y0022426D01*
X-0033492D01*
X-0033422Y0022417D01*
X-0033344Y0022398D01*
X-0033265Y0022371D01*
X-0033191Y0022338D01*
X-0033127Y0022306D01*
X-0033071Y0022278D01*
X-0033053Y0022269D01*
X-0033039Y0022260D01*
X-0033030Y0022251D01*
X-0033025D01*
X-0032900Y0022186D01*
X-0032766Y0022140D01*
X-0032632Y0022107D01*
X-0032508Y0022084D01*
X-0032447Y0022075D01*
X-0032397Y0022070D01*
X-0032351Y0022066D01*
X-0032309Y0022066D01*
X-0032276Y0022061D01*
X-0032230D01*
X-0032120Y0022066D01*
X-0032018Y0022075D01*
X-0031925Y0022089D01*
X-0031842Y0022107D01*
X-0031778Y0022121D01*
X-0031727Y0022135D01*
X-0031708Y0022140D01*
X-0031694Y0022144D01*
X-0031690Y0022149D01*
X-0031685D01*
X-0031602Y0022186D01*
X-0031523Y0022232D01*
X-0031454Y0022278D01*
X-0031394Y0022324D01*
X-0031348Y0022361D01*
X-0031311Y0022394D01*
X-0031293Y0022417D01*
X-0031283Y0022426D01*
X-0032461Y0022943D01*
X-0032568Y0022990D01*
X-0032665Y0023036D01*
X-0032752Y0023077D01*
X-0032836Y0023119D01*
X-0032905Y0023151D01*
X-0032969Y0023188D01*
X-0033025Y0023216D01*
X-0033076Y0023244D01*
X-0033117Y0023267D01*
X-0033154Y0023290D01*
X-0033182Y0023304D01*
X-0033205Y0023318D01*
X-0033224Y0023332D01*
X-0033237Y0023341D01*
X-0033247Y0023346D01*
X-0033325Y0023401D01*
X-0033390Y0023461D01*
X-0033450Y0023516D01*
X-0033496Y0023576D01*
X-0033538Y0023632D01*
X-0033575Y0023692D01*
X-0033602Y0023743D01*
X-0033626Y0023798D01*
X-0033644Y0023844D01*
X-0033658Y0023886D01*
X-0033667Y0023928D01*
X-0033676Y0023960D01*
Y0023988D01*
X-0033681Y0024006D01*
Y0024020D01*
Y0024025D01*
X-0033676Y0024122D01*
X-0033658Y0024214D01*
X-0033630Y0024302D01*
X-0033598Y0024380D01*
X-0033556Y0024454D01*
X-0033515Y0024519D01*
X-0033464Y0024579D01*
X-0033418Y0024630D01*
X-0033367Y0024676D01*
X-0033316Y0024718D01*
X-0033274Y0024750D01*
X-0033233Y0024778D01*
X-0033200Y0024801D01*
X-0033173Y0024815D01*
X-0033154Y0024824D01*
X-0033150Y0024828D01*
X-0033071Y0024866D01*
X-0032993Y0024893D01*
X-0032822Y0024944D01*
X-0032655Y0024981D01*
X-0032572Y0024990D01*
X-0032494Y0025004D01*
X-0032420Y0025009D01*
X-0032351Y0025018D01*
X-0032290Y0025023D01*
X-0032240D01*
X-0032198Y0025027D01*
X-0032138D01*
X-0031976Y0025018D01*
D02*
G37*
G36*
X-0025513Y0026940D02*
X-0025448Y0026926D01*
X-0025393Y0026908D01*
X-0025342Y0026880D01*
X-0025300Y0026847D01*
X-0025263Y0026815D01*
X-0025231Y0026774D01*
X-0025208Y0026737D01*
X-0025185Y0026700D01*
X-0025166Y0026663D01*
X-0025153Y0026626D01*
X-0025143Y0026593D01*
X-0025139Y0026566D01*
X-0025134Y0026547D01*
X-0025129Y0026533D01*
Y0026529D01*
X-0025115Y0026436D01*
X-0025106Y0026330D01*
X-0025097Y0026210D01*
X-0025088Y0026081D01*
X-0025074Y0025947D01*
X-0025069Y0025808D01*
X-0025060Y0025674D01*
X-0025051Y0025535D01*
X-0025046Y0025406D01*
X-0025042Y0025286D01*
X-0025037Y0025175D01*
X-0025032Y0025078D01*
X-0025028Y0025036D01*
Y0024995D01*
Y0024962D01*
X-0025023Y0024935D01*
Y0024912D01*
Y0024898D01*
Y0024889D01*
Y0024884D01*
X-0024963Y0024921D01*
X-0024903Y0024958D01*
X-0024843Y0024986D01*
X-0024788Y0025009D01*
X-0024737Y0025027D01*
X-0024700Y0025041D01*
X-0024672Y0025046D01*
X-0024667Y0025050D01*
X-0024663D01*
X-0024584Y0025069D01*
X-0024506Y0025087D01*
X-0024427Y0025096D01*
X-0024353Y0025101D01*
X-0024289Y0025106D01*
X-0024242Y0025110D01*
X-0024196D01*
X-0024039Y0025106D01*
X-0023891Y0025087D01*
X-0023753Y0025055D01*
X-0023619Y0025018D01*
X-0023494Y0024976D01*
X-0023383Y0024926D01*
X-0023277Y0024875D01*
X-0023184Y0024819D01*
X-0023097Y0024764D01*
X-0023023Y0024713D01*
X-0022958Y0024662D01*
X-0022907Y0024621D01*
X-0022866Y0024584D01*
X-0022833Y0024551D01*
X-0022815Y0024533D01*
X-0022810Y0024528D01*
X-0022718Y0024417D01*
X-0022635Y0024297D01*
X-0022565Y0024172D01*
X-0022505Y0024048D01*
X-0022450Y0023918D01*
X-0022408Y0023794D01*
X-0022371Y0023669D01*
X-0022343Y0023553D01*
X-0022325Y0023438D01*
X-0022307Y0023336D01*
X-0022297Y0023244D01*
X-0022288Y0023165D01*
X-0022284Y0023101D01*
X-0022279Y0023050D01*
Y0023031D01*
Y0023018D01*
Y0023013D01*
Y0023008D01*
X-0022284Y0022865D01*
X-0022302Y0022726D01*
X-0022330Y0022597D01*
X-0022362Y0022472D01*
X-0022399Y0022357D01*
X-0022445Y0022251D01*
X-0022491Y0022153D01*
X-0022542Y0022061D01*
X-0022593Y0021983D01*
X-0022639Y0021913D01*
X-0022685Y0021853D01*
X-0022722Y0021802D01*
X-0022759Y0021761D01*
X-0022782Y0021733D01*
X-0022801Y0021715D01*
X-0022806Y0021710D01*
X-0022907Y0021622D01*
X-0023009Y0021544D01*
X-0023120Y0021479D01*
X-0023226Y0021424D01*
X-0023337Y0021373D01*
X-0023443Y0021331D01*
X-0023549Y0021299D01*
X-0023651Y0021276D01*
X-0023743Y0021253D01*
X-0023831Y0021239D01*
X-0023905Y0021225D01*
X-0023974Y0021220D01*
X-0024030Y0021216D01*
X-0024071Y0021211D01*
X-0024205D01*
X-0024302Y0021220D01*
X-0024390Y0021225D01*
X-0024469Y0021234D01*
X-0024538Y0021243D01*
X-0024589Y0021248D01*
X-0024607Y0021253D01*
X-0024621Y0021257D01*
X-0024630D01*
X-0024723Y0021276D01*
X-0024815Y0021303D01*
X-0024898Y0021331D01*
X-0024972Y0021363D01*
X-0025037Y0021391D01*
X-0025083Y0021414D01*
X-0025102Y0021424D01*
X-0025115Y0021433D01*
X-0025120Y0021437D01*
X-0025125D01*
X-0025148Y0021396D01*
X-0025176Y0021363D01*
X-0025208Y0021331D01*
X-0025236Y0021308D01*
X-0025300Y0021267D01*
X-0025365Y0021239D01*
X-0025420Y0021225D01*
X-0025467Y0021216D01*
X-0025485Y0021211D01*
X-0025508D01*
X-0025578Y0021216D01*
X-0025638Y0021229D01*
X-0025693Y0021253D01*
X-0025739Y0021276D01*
X-0025776Y0021294D01*
X-0025809Y0021317D01*
X-0025827Y0021331D01*
X-0025832Y0021336D01*
X-0025878Y0021387D01*
X-0025915Y0021437D01*
X-0025938Y0021493D01*
X-0025956Y0021544D01*
X-0025966Y0021585D01*
X-0025975Y0021622D01*
Y0021645D01*
Y0021655D01*
Y0021691D01*
X-0025970Y0021724D01*
X-0025966Y0021747D01*
X-0025961Y0021752D01*
Y0021756D01*
X-0025956Y0021798D01*
X-0025947Y0021844D01*
X-0025938Y0021950D01*
X-0025929Y0022070D01*
X-0025919Y0022195D01*
X-0025910Y0022334D01*
X-0025906Y0022472D01*
X-0025901Y0022611D01*
X-0025896Y0022754D01*
X-0025892Y0022888D01*
Y0023013D01*
Y0023128D01*
X-0025887Y0023225D01*
Y0023272D01*
Y0023313D01*
Y0023346D01*
Y0023373D01*
Y0023396D01*
Y0023415D01*
Y0023424D01*
Y0023429D01*
Y0023530D01*
X-0025892Y0023641D01*
X-0025896Y0023761D01*
X-0025901Y0023881D01*
X-0025910Y0024136D01*
X-0025919Y0024260D01*
X-0025929Y0024385D01*
X-0025933Y0024500D01*
X-0025943Y0024607D01*
X-0025947Y0024704D01*
X-0025952Y0024787D01*
X-0025956Y0024856D01*
X-0025961Y0024884D01*
Y0024907D01*
X-0025966Y0024930D01*
Y0024944D01*
Y0024949D01*
Y0024953D01*
X-0025980Y0025138D01*
X-0025993Y0025309D01*
X-0026003Y0025471D01*
X-0026012Y0025618D01*
X-0026021Y0025757D01*
X-0026026Y0025882D01*
X-0026030Y0025997D01*
X-0026035Y0026099D01*
X-0026039Y0026187D01*
Y0026265D01*
X-0026044Y0026330D01*
Y0026381D01*
Y0026422D01*
Y0026455D01*
Y0026473D01*
Y0026478D01*
X-0026039Y0026547D01*
X-0026026Y0026612D01*
X-0026003Y0026667D01*
X-0025980Y0026713D01*
X-0025956Y0026755D01*
X-0025933Y0026783D01*
X-0025919Y0026801D01*
X-0025915Y0026806D01*
X-0025864Y0026852D01*
X-0025809Y0026884D01*
X-0025753Y0026912D01*
X-0025702Y0026926D01*
X-0025656Y0026935D01*
X-0025615Y0026945D01*
X-0025582D01*
X-0025513Y0026940D01*
D02*
G37*
G36*
X-0028396Y0024949D02*
X-0028220Y0024926D01*
X-0028054Y0024898D01*
X-0027897Y0024856D01*
X-0027754Y0024810D01*
X-0027620Y0024759D01*
X-0027499Y0024704D01*
X-0027389Y0024648D01*
X-0027287Y0024593D01*
X-0027204Y0024537D01*
X-0027130Y0024487D01*
X-0027070Y0024440D01*
X-0027019Y0024399D01*
X-0026987Y0024371D01*
X-0026968Y0024353D01*
X-0026959Y0024343D01*
X-0026857Y0024228D01*
X-0026770Y0024108D01*
X-0026691Y0023983D01*
X-0026626Y0023854D01*
X-0026571Y0023729D01*
X-0026525Y0023600D01*
X-0026483Y0023475D01*
X-0026455Y0023355D01*
X-0026428Y0023239D01*
X-0026414Y0023138D01*
X-0026400Y0023045D01*
X-0026391Y0022962D01*
X-0026386Y0022897D01*
X-0026381Y0022847D01*
Y0022828D01*
Y0022814D01*
Y0022810D01*
Y0022805D01*
X-0026386Y0022676D01*
X-0026400Y0022551D01*
X-0026423Y0022435D01*
X-0026451Y0022324D01*
X-0026483Y0022223D01*
X-0026520Y0022126D01*
X-0026557Y0022038D01*
X-0026599Y0021960D01*
X-0026640Y0021890D01*
X-0026677Y0021825D01*
X-0026714Y0021770D01*
X-0026746Y0021729D01*
X-0026774Y0021691D01*
X-0026797Y0021668D01*
X-0026811Y0021650D01*
X-0026816Y0021645D01*
X-0026899Y0021567D01*
X-0026991Y0021497D01*
X-0027084Y0021437D01*
X-0027176Y0021382D01*
X-0027273Y0021340D01*
X-0027365Y0021303D01*
X-0027458Y0021271D01*
X-0027546Y0021248D01*
X-0027629Y0021229D01*
X-0027703Y0021216D01*
X-0027772Y0021206D01*
X-0027832Y0021202D01*
X-0027878Y0021197D01*
X-0027915Y0021193D01*
X-0027948D01*
X-0028045Y0021197D01*
X-0028132Y0021206D01*
X-0028216Y0021220D01*
X-0028289Y0021239D01*
X-0028350Y0021257D01*
X-0028396Y0021271D01*
X-0028410Y0021276D01*
X-0028424Y0021280D01*
X-0028428Y0021285D01*
X-0028433D01*
X-0028516Y0021322D01*
X-0028590Y0021363D01*
X-0028659Y0021410D01*
X-0028719Y0021451D01*
X-0028770Y0021493D01*
X-0028807Y0021525D01*
X-0028830Y0021544D01*
X-0028839Y0021553D01*
X-0028830Y0021433D01*
X-0028816Y0021317D01*
X-0028798Y0021211D01*
X-0028775Y0021114D01*
X-0028752Y0021026D01*
X-0028728Y0020943D01*
X-0028705Y0020874D01*
X-0028682Y0020809D01*
X-0028659Y0020754D01*
X-0028636Y0020703D01*
X-0028613Y0020661D01*
X-0028594Y0020629D01*
X-0028580Y0020601D01*
X-0028567Y0020583D01*
X-0028562Y0020573D01*
X-0028557Y0020569D01*
X-0028507Y0020513D01*
X-0028451Y0020463D01*
X-0028396Y0020421D01*
X-0028331Y0020384D01*
X-0028266Y0020352D01*
X-0028202Y0020329D01*
X-0028142Y0020305D01*
X-0028077Y0020292D01*
X-0028021Y0020278D01*
X-0027966Y0020269D01*
X-0027915Y0020259D01*
X-0027874Y0020255D01*
X-0027837Y0020250D01*
X-0027786D01*
X-0027698Y0020255D01*
X-0027610Y0020259D01*
X-0027523Y0020269D01*
X-0027439Y0020282D01*
X-0027370Y0020292D01*
X-0027338Y0020296D01*
X-0027315Y0020301D01*
X-0027292Y0020305D01*
X-0027278D01*
X-0027268Y0020310D01*
X-0027264D01*
X-0027162Y0020329D01*
X-0027070Y0020347D01*
X-0026996Y0020356D01*
X-0026931Y0020361D01*
X-0026880Y0020366D01*
X-0026843Y0020370D01*
X-0026816D01*
X-0026746Y0020366D01*
X-0026682Y0020352D01*
X-0026626Y0020333D01*
X-0026580Y0020315D01*
X-0026543Y0020292D01*
X-0026515Y0020273D01*
X-0026497Y0020259D01*
X-0026492Y0020255D01*
X-0026451Y0020209D01*
X-0026423Y0020153D01*
X-0026400Y0020102D01*
X-0026386Y0020051D01*
X-0026377Y0020010D01*
X-0026372Y0019973D01*
Y0019950D01*
Y0019940D01*
X-0026377Y0019890D01*
X-0026386Y0019843D01*
X-0026405Y0019802D01*
X-0026432Y0019760D01*
X-0026460Y0019723D01*
X-0026497Y0019691D01*
X-0026539Y0019659D01*
X-0026585Y0019626D01*
X-0026686Y0019576D01*
X-0026802Y0019534D01*
X-0026927Y0019497D01*
X-0027051Y0019469D01*
X-0027176Y0019446D01*
X-0027301Y0019428D01*
X-0027416Y0019419D01*
X-0027518Y0019409D01*
X-0027564Y0019405D01*
X-0027606D01*
X-0027643Y0019400D01*
X-0027731D01*
X-0027943Y0019409D01*
X-0028137Y0019428D01*
X-0028313Y0019465D01*
X-0028474Y0019506D01*
X-0028622Y0019557D01*
X-0028756Y0019617D01*
X-0028876Y0019677D01*
X-0028982Y0019742D01*
X-0029070Y0019807D01*
X-0029149Y0019867D01*
X-0029214Y0019927D01*
X-0029264Y0019977D01*
X-0029306Y0020019D01*
X-0029334Y0020056D01*
X-0029352Y0020075D01*
X-0029357Y0020084D01*
X-0029417Y0020185D01*
X-0029472Y0020301D01*
X-0029518Y0020426D01*
X-0029560Y0020555D01*
X-0029597Y0020689D01*
X-0029625Y0020828D01*
X-0029652Y0020962D01*
X-0029675Y0021095D01*
X-0029694Y0021220D01*
X-0029708Y0021336D01*
X-0029717Y0021442D01*
X-0029726Y0021534D01*
Y0021576D01*
X-0029731Y0021613D01*
Y0021645D01*
X-0029735Y0021668D01*
Y0021691D01*
Y0021705D01*
Y0021715D01*
Y0021719D01*
X-0029749Y0022057D01*
X-0029763Y0022218D01*
X-0029777Y0022375D01*
X-0029791Y0022528D01*
X-0029805Y0022671D01*
X-0029819Y0022805D01*
X-0029833Y0022930D01*
X-0029851Y0023045D01*
X-0029865Y0023147D01*
X-0029874Y0023239D01*
X-0029888Y0023313D01*
X-0029897Y0023373D01*
X-0029906Y0023419D01*
X-0029911Y0023447D01*
Y0023456D01*
X-0029934Y0023604D01*
X-0029953Y0023729D01*
X-0029962Y0023789D01*
X-0029967Y0023840D01*
X-0029971Y0023891D01*
X-0029976Y0023932D01*
X-0029980Y0023974D01*
Y0024006D01*
X-0029985Y0024034D01*
Y0024062D01*
Y0024080D01*
Y0024094D01*
Y0024099D01*
Y0024103D01*
X-0029980Y0024186D01*
X-0029967Y0024260D01*
X-0029943Y0024325D01*
X-0029916Y0024385D01*
X-0029883Y0024431D01*
X-0029842Y0024477D01*
X-0029805Y0024510D01*
X-0029763Y0024542D01*
X-0029717Y0024565D01*
X-0029680Y0024584D01*
X-0029643Y0024598D01*
X-0029606Y0024611D01*
X-0029579Y0024616D01*
X-0029555Y0024621D01*
X-0029542Y0024625D01*
X-0029537D01*
X-0029481Y0024685D01*
X-0029417Y0024736D01*
X-0029352Y0024778D01*
X-0029292Y0024810D01*
X-0029237Y0024838D01*
X-0029195Y0024856D01*
X-0029177Y0024861D01*
X-0029163Y0024866D01*
X-0029158Y0024870D01*
X-0029153D01*
X-0029061Y0024898D01*
X-0028964Y0024916D01*
X-0028872Y0024935D01*
X-0028779Y0024944D01*
X-0028705Y0024949D01*
X-0028668D01*
X-0028641Y0024953D01*
X-0028585D01*
X-0028396Y0024949D01*
D02*
G37*
G36*
X-0009408Y0025018D02*
X-0009255Y0024995D01*
X-0009107Y0024967D01*
X-0008969Y0024930D01*
X-0008839Y0024884D01*
X-0008715Y0024833D01*
X-0008604Y0024778D01*
X-0008497Y0024722D01*
X-0008405Y0024667D01*
X-0008322Y0024611D01*
X-0008248Y0024561D01*
X-0008188Y0024514D01*
X-0008142Y0024477D01*
X-0008105Y0024450D01*
X-0008086Y0024427D01*
X-0008077Y0024422D01*
X-0007966Y0024306D01*
X-0007874Y0024186D01*
X-0007790Y0024066D01*
X-0007721Y0023942D01*
X-0007661Y0023821D01*
X-0007610Y0023701D01*
X-0007569Y0023586D01*
X-0007536Y0023475D01*
X-0007509Y0023369D01*
X-0007490Y0023276D01*
X-0007476Y0023188D01*
X-0007467Y0023119D01*
X-0007463Y0023059D01*
X-0007458Y0023013D01*
Y0022985D01*
Y0022980D01*
Y0022976D01*
X-0007463Y0022814D01*
X-0007476Y0022662D01*
X-0007495Y0022519D01*
X-0007523Y0022389D01*
X-0007555Y0022264D01*
X-0007592Y0022153D01*
X-0007629Y0022057D01*
X-0007670Y0021964D01*
X-0007707Y0021886D01*
X-0007744Y0021816D01*
X-0007781Y0021761D01*
X-0007814Y0021710D01*
X-0007841Y0021673D01*
X-0007860Y0021650D01*
X-0007874Y0021632D01*
X-0007878Y0021627D01*
X-0007961Y0021548D01*
X-0008054Y0021479D01*
X-0008151Y0021419D01*
X-0008252Y0021368D01*
X-0008359Y0021327D01*
X-0008460Y0021290D01*
X-0008567Y0021257D01*
X-0008668Y0021234D01*
X-0008761Y0021216D01*
X-0008853Y0021202D01*
X-0008932Y0021193D01*
X-0009001Y0021188D01*
X-0009061Y0021183D01*
X-0009103Y0021179D01*
X-0009140D01*
X-0009209Y0021183D01*
X-0009278Y0021193D01*
X-0009347Y0021206D01*
X-0009412Y0021220D01*
X-0009468Y0021234D01*
X-0009514Y0021248D01*
X-0009532Y0021253D01*
X-0009546Y0021257D01*
X-0009551Y0021262D01*
X-0009555D01*
X-0009652Y0021294D01*
X-0009749Y0021331D01*
X-0009842Y0021368D01*
X-0009930Y0021405D01*
X-0010008Y0021437D01*
X-0010041Y0021451D01*
X-0010068Y0021465D01*
X-0010091Y0021474D01*
X-0010110Y0021484D01*
X-0010119Y0021488D01*
X-0010124D01*
X-0010188Y0021433D01*
X-0010244Y0021387D01*
X-0010299Y0021345D01*
X-0010350Y0021308D01*
X-0010396Y0021280D01*
X-0010438Y0021253D01*
X-0010507Y0021216D01*
X-0010563Y0021197D01*
X-0010599Y0021183D01*
X-0010623Y0021179D01*
X-0010632D01*
X-0010701Y0021183D01*
X-0010761Y0021197D01*
X-0010817Y0021216D01*
X-0010868Y0021239D01*
X-0010904Y0021262D01*
X-0010937Y0021280D01*
X-0010955Y0021294D01*
X-0010960Y0021299D01*
X-0011006Y0021345D01*
X-0011043Y0021396D01*
X-0011066Y0021447D01*
X-0011085Y0021497D01*
X-0011094Y0021539D01*
X-0011103Y0021571D01*
Y0021595D01*
Y0021604D01*
Y0021613D01*
X-0011099Y0021632D01*
X-0011080Y0021673D01*
X-0011062Y0021729D01*
X-0011034Y0021789D01*
X-0011011Y0021844D01*
X-0010988Y0021895D01*
X-0010978Y0021913D01*
X-0010969Y0021927D01*
X-0010965Y0021936D01*
Y0021941D01*
X-0010937Y0022001D01*
X-0010914Y0022052D01*
X-0010895Y0022098D01*
X-0010877Y0022135D01*
X-0010863Y0022172D01*
X-0010849Y0022200D01*
X-0010830Y0022246D01*
X-0010817Y0022274D01*
X-0010812Y0022292D01*
X-0010807Y0022301D01*
X-0010793Y0022361D01*
X-0010775Y0022426D01*
X-0010766Y0022495D01*
X-0010752Y0022574D01*
X-0010738Y0022731D01*
X-0010729Y0022888D01*
X-0010724Y0022962D01*
X-0010720Y0023027D01*
Y0023091D01*
X-0010715Y0023147D01*
Y0023188D01*
Y0023225D01*
Y0023244D01*
Y0023253D01*
Y0023355D01*
X-0010720Y0023447D01*
Y0023530D01*
X-0010724Y0023604D01*
X-0010729Y0023664D01*
Y0023706D01*
X-0010734Y0023734D01*
Y0023743D01*
X-0010743Y0023821D01*
X-0010747Y0023886D01*
X-0010757Y0023946D01*
X-0010766Y0023997D01*
X-0010775Y0024038D01*
X-0010780Y0024071D01*
X-0010784Y0024089D01*
Y0024094D01*
X-0010812Y0024131D01*
X-0010830Y0024168D01*
X-0010849Y0024205D01*
X-0010858Y0024237D01*
X-0010863Y0024265D01*
X-0010868Y0024293D01*
Y0024306D01*
Y0024311D01*
X-0010863Y0024366D01*
X-0010844Y0024417D01*
X-0010817Y0024468D01*
X-0010784Y0024519D01*
X-0010743Y0024565D01*
X-0010701Y0024607D01*
X-0010604Y0024685D01*
X-0010503Y0024745D01*
X-0010461Y0024773D01*
X-0010419Y0024791D01*
X-0010387Y0024810D01*
X-0010359Y0024824D01*
X-0010341Y0024828D01*
X-0010336Y0024833D01*
X-0010179Y0024898D01*
X-0010031Y0024944D01*
X-0009902Y0024976D01*
X-0009842Y0024990D01*
X-0009791Y0024999D01*
X-0009740Y0025009D01*
X-0009699Y0025013D01*
X-0009662Y0025018D01*
X-0009629D01*
X-0009602Y0025023D01*
X-0009569D01*
X-0009408Y0025018D01*
D02*
G37*
G36*
X-0013334Y0025101D02*
X-0013196Y0025092D01*
X-0013067Y0025083D01*
X-0012946Y0025073D01*
X-0012836Y0025060D01*
X-0012739Y0025046D01*
X-0012651Y0025032D01*
X-0012572Y0025018D01*
X-0012508Y0025004D01*
X-0012452Y0024990D01*
X-0012406Y0024981D01*
X-0012369Y0024972D01*
X-0012341Y0024962D01*
X-0012327Y0024958D01*
X-0012323D01*
X-0012193Y0024907D01*
X-0012078Y0024847D01*
X-0011976Y0024782D01*
X-0011893Y0024708D01*
X-0011819Y0024634D01*
X-0011759Y0024556D01*
X-0011713Y0024473D01*
X-0011671Y0024399D01*
X-0011644Y0024320D01*
X-0011620Y0024251D01*
X-0011602Y0024186D01*
X-0011593Y0024131D01*
X-0011584Y0024080D01*
X-0011579Y0024048D01*
Y0024025D01*
Y0024015D01*
X-0011584Y0023923D01*
X-0011602Y0023835D01*
X-0011625Y0023752D01*
X-0011658Y0023674D01*
X-0011694Y0023600D01*
X-0011736Y0023530D01*
X-0011778Y0023466D01*
X-0011824Y0023405D01*
X-0011870Y0023355D01*
X-0011912Y0023304D01*
X-0011953Y0023267D01*
X-0011990Y0023230D01*
X-0012022Y0023207D01*
X-0012046Y0023184D01*
X-0012064Y0023175D01*
X-0012069Y0023170D01*
X-0012115Y0023142D01*
X-0012166Y0023110D01*
X-0012230Y0023077D01*
X-0012300Y0023041D01*
X-0012374Y0023004D01*
X-0012452Y0022967D01*
X-0012609Y0022888D01*
X-0012683Y0022856D01*
X-0012752Y0022819D01*
X-0012822Y0022791D01*
X-0012877Y0022763D01*
X-0012923Y0022745D01*
X-0012960Y0022726D01*
X-0012983Y0022717D01*
X-0012993Y0022713D01*
X-0013080Y0022671D01*
X-0013154Y0022634D01*
X-0013224Y0022597D01*
X-0013279Y0022560D01*
X-0013325Y0022523D01*
X-0013367Y0022491D01*
X-0013399Y0022463D01*
X-0013427Y0022435D01*
X-0013445Y0022408D01*
X-0013459Y0022389D01*
X-0013478Y0022352D01*
X-0013487Y0022329D01*
Y0022320D01*
X-0013478Y0022269D01*
X-0013455Y0022227D01*
X-0013418Y0022186D01*
X-0013372Y0022153D01*
X-0013321Y0022126D01*
X-0013261Y0022103D01*
X-0013127Y0022070D01*
X-0012997Y0022047D01*
X-0012937Y0022043D01*
X-0012882Y0022038D01*
X-0012836Y0022033D01*
X-0012771D01*
X-0012706Y0022038D01*
X-0012628Y0022047D01*
X-0012554Y0022066D01*
X-0012475Y0022084D01*
X-0012410Y0022103D01*
X-0012355Y0022121D01*
X-0012332Y0022126D01*
X-0012318Y0022130D01*
X-0012309Y0022135D01*
X-0012304D01*
X-0012198Y0022167D01*
X-0012101Y0022195D01*
X-0012022Y0022214D01*
X-0011958Y0022223D01*
X-0011907Y0022232D01*
X-0011870Y0022237D01*
X-0011838D01*
X-0011764Y0022232D01*
X-0011704Y0022223D01*
X-0011648Y0022204D01*
X-0011602Y0022181D01*
X-0011560Y0022153D01*
X-0011528Y0022126D01*
X-0011500Y0022094D01*
X-0011477Y0022061D01*
X-0011459Y0022029D01*
X-0011450Y0021996D01*
X-0011431Y0021941D01*
Y0021918D01*
X-0011427Y0021899D01*
Y0021890D01*
Y0021886D01*
X-0011431Y0021816D01*
X-0011450Y0021752D01*
X-0011473Y0021691D01*
X-0011510Y0021636D01*
X-0011547Y0021581D01*
X-0011593Y0021534D01*
X-0011690Y0021456D01*
X-0011782Y0021391D01*
X-0011828Y0021368D01*
X-0011865Y0021350D01*
X-0011902Y0021331D01*
X-0011925Y0021322D01*
X-0011944Y0021317D01*
X-0011948Y0021313D01*
X-0012096Y0021262D01*
X-0012244Y0021229D01*
X-0012387Y0021202D01*
X-0012517Y0021183D01*
X-0012577Y0021179D01*
X-0012632Y0021174D01*
X-0012678Y0021170D01*
X-0012720D01*
X-0012752Y0021165D01*
X-0012799D01*
X-0012919Y0021170D01*
X-0013034Y0021174D01*
X-0013145Y0021188D01*
X-0013247Y0021202D01*
X-0013344Y0021220D01*
X-0013436Y0021243D01*
X-0013519Y0021267D01*
X-0013598Y0021290D01*
X-0013667Y0021308D01*
X-0013727Y0021331D01*
X-0013778Y0021354D01*
X-0013824Y0021373D01*
X-0013857Y0021387D01*
X-0013884Y0021400D01*
X-0013898Y0021405D01*
X-0013903Y0021410D01*
X-0014004Y0021470D01*
X-0014088Y0021539D01*
X-0014166Y0021613D01*
X-0014231Y0021687D01*
X-0014282Y0021761D01*
X-0014328Y0021839D01*
X-0014365Y0021913D01*
X-0014397Y0021987D01*
X-0014420Y0022052D01*
X-0014439Y0022117D01*
X-0014448Y0022177D01*
X-0014457Y0022227D01*
X-0014462Y0022269D01*
X-0014466Y0022297D01*
Y0022320D01*
Y0022324D01*
X-0014462Y0022412D01*
X-0014443Y0022491D01*
X-0014420Y0022574D01*
X-0014388Y0022648D01*
X-0014351Y0022722D01*
X-0014305Y0022791D01*
X-0014258Y0022851D01*
X-0014212Y0022911D01*
X-0014166Y0022967D01*
X-0014120Y0023013D01*
X-0014078Y0023054D01*
X-0014037Y0023087D01*
X-0014004Y0023114D01*
X-0013981Y0023133D01*
X-0013963Y0023147D01*
X-0013958Y0023151D01*
X-0013907Y0023188D01*
X-0013847Y0023225D01*
X-0013783Y0023262D01*
X-0013709Y0023304D01*
X-0013556Y0023387D01*
X-0013399Y0023470D01*
X-0013321Y0023507D01*
X-0013251Y0023539D01*
X-0013187Y0023572D01*
X-0013131Y0023600D01*
X-0013085Y0023618D01*
X-0013053Y0023637D01*
X-0013030Y0023646D01*
X-0013020Y0023650D01*
X-0012933Y0023692D01*
X-0012854Y0023734D01*
X-0012785Y0023771D01*
X-0012729Y0023808D01*
X-0012678Y0023840D01*
X-0012641Y0023867D01*
X-0012605Y0023895D01*
X-0012582Y0023923D01*
X-0012558Y0023946D01*
X-0012544Y0023965D01*
X-0012526Y0023997D01*
X-0012517Y0024015D01*
Y0024020D01*
X-0012521Y0024043D01*
X-0012526Y0024062D01*
X-0012554Y0024099D01*
X-0012595Y0024126D01*
X-0012646Y0024154D01*
X-0012711Y0024177D01*
X-0012785Y0024196D01*
X-0012859Y0024209D01*
X-0012937Y0024223D01*
X-0013016Y0024232D01*
X-0013090Y0024237D01*
X-0013164Y0024246D01*
X-0013228D01*
X-0013279Y0024251D01*
X-0013358D01*
X-0013464Y0024246D01*
X-0013515Y0024242D01*
X-0013561Y0024237D01*
X-0013598Y0024232D01*
X-0013626Y0024228D01*
X-0013644Y0024223D01*
X-0013649D01*
X-0013667Y0024172D01*
X-0013686Y0024131D01*
X-0013713Y0024089D01*
X-0013741Y0024057D01*
X-0013773Y0024029D01*
X-0013810Y0024006D01*
X-0013880Y0023974D01*
X-0013949Y0023951D01*
X-0014004Y0023942D01*
X-0014028Y0023937D01*
X-0014060D01*
X-0014120Y0023946D01*
X-0014171Y0023965D01*
X-0014217Y0023992D01*
X-0014258Y0024034D01*
X-0014291Y0024080D01*
X-0014319Y0024136D01*
X-0014342Y0024191D01*
X-0014360Y0024251D01*
X-0014383Y0024362D01*
X-0014392Y0024417D01*
X-0014397Y0024464D01*
X-0014402Y0024505D01*
Y0024533D01*
Y0024556D01*
Y0024561D01*
X-0014397Y0024621D01*
X-0014392Y0024676D01*
X-0014365Y0024768D01*
X-0014328Y0024847D01*
X-0014286Y0024912D01*
X-0014245Y0024958D01*
X-0014208Y0024990D01*
X-0014180Y0025009D01*
X-0014175Y0025013D01*
X-0014171D01*
X-0014101Y0025046D01*
X-0014018Y0025069D01*
X-0013930Y0025083D01*
X-0013847Y0025096D01*
X-0013769Y0025101D01*
X-0013736D01*
X-0013704Y0025106D01*
X-0013487D01*
X-0013334Y0025101D01*
D02*
G37*
%LPC*%
G36*
X0005222Y-0013660D02*
X0005093D01*
X0005010Y-0013670D01*
X0004931Y-0013679D01*
X0004862Y-0013693D01*
X0004797Y-0013706D01*
X0004737Y-0013725D01*
X0004687Y-0013739D01*
X0004636Y-0013757D01*
X0004594Y-0013776D01*
X0004557Y-0013794D01*
X0004525Y-0013813D01*
X0004502Y-0013827D01*
X0004479Y-0013840D01*
X0004465Y-0013850D01*
X0004460Y-0013854D01*
X0004456Y-0013859D01*
X0004414Y-0013896D01*
X0004372Y-0013938D01*
X0004340Y-0013984D01*
X0004312Y-0014035D01*
X0004271Y-0014132D01*
X0004243Y-0014224D01*
X0004225Y-0014312D01*
X0004220Y-0014349D01*
X0004215Y-0014381D01*
X0004211Y-0014409D01*
Y-0014427D01*
Y-0014441D01*
Y-0014446D01*
X0004215Y-0014538D01*
X0004220Y-0014626D01*
X0004234Y-0014709D01*
X0004248Y-0014788D01*
X0004266Y-0014857D01*
X0004289Y-0014922D01*
X0004312Y-0014982D01*
X0004331Y-0015037D01*
X0004354Y-0015088D01*
X0004377Y-0015130D01*
X0004400Y-0015167D01*
X0004419Y-0015194D01*
X0004432Y-0015217D01*
X0004446Y-0015236D01*
X0004451Y-0015245D01*
X0004456Y-0015250D01*
X0004506Y-0015305D01*
X0004557Y-0015351D01*
X0004613Y-0015393D01*
X0004673Y-0015425D01*
X0004733Y-0015458D01*
X0004788Y-0015481D01*
X0004904Y-0015518D01*
X0004959Y-0015527D01*
X0005005Y-0015536D01*
X0005051Y-0015545D01*
X0005088Y-0015550D01*
X0005121Y-0015554D01*
X0005167D01*
X0005250Y-0015550D01*
X0005324Y-0015541D01*
X0005393Y-0015522D01*
X0005463Y-0015504D01*
X0005523Y-0015481D01*
X0005578Y-0015453D01*
X0005629Y-0015421D01*
X0005671Y-0015388D01*
X0005712Y-0015360D01*
X0005745Y-0015328D01*
X0005777Y-0015300D01*
X0005800Y-0015277D01*
X0005818Y-0015259D01*
X0005832Y-0015240D01*
X0005837Y-0015231D01*
X0005841Y-0015226D01*
X0005878Y-0015162D01*
X0005915Y-0015088D01*
X0005943Y-0015009D01*
X0005971Y-0014931D01*
X0006008Y-0014764D01*
X0006036Y-0014603D01*
X0006045Y-0014529D01*
X0006049Y-0014460D01*
X0006059Y-0014395D01*
Y-0014340D01*
X0006063Y-0014298D01*
Y-0014261D01*
Y-0014243D01*
Y-0014233D01*
X0006059Y-0014141D01*
Y-0014095D01*
X0006054Y-0014053D01*
X0006049Y-0014016D01*
Y-0013988D01*
X0006045Y-0013970D01*
Y-0013965D01*
X0005943Y-0013905D01*
X0005860Y-0013859D01*
X0005795Y-0013822D01*
X0005740Y-0013794D01*
X0005698Y-0013771D01*
X0005671Y-0013757D01*
X0005652Y-0013748D01*
X0005647D01*
X0005569Y-0013720D01*
X0005486Y-0013697D01*
X0005407Y-0013683D01*
X0005338Y-0013670D01*
X0005273Y-0013665D01*
X0005222Y-0013660D01*
D02*
G37*
G36*
X0013857Y-0011618D02*
X0013834D01*
X0013737Y-0011623D01*
X0013649Y-0011637D01*
X0013566Y-0011655D01*
X0013492Y-0011683D01*
X0013423Y-0011715D01*
X0013358Y-0011752D01*
X0013298Y-0011789D01*
X0013247Y-0011826D01*
X0013201Y-0011868D01*
X0013164Y-0011905D01*
X0013127Y-0011942D01*
X0013100Y-0011974D01*
X0013081Y-0012002D01*
X0013067Y-0012020D01*
X0013058Y-0012034D01*
X0013053Y-0012039D01*
X0013007Y-0012122D01*
X0012966Y-0012210D01*
X0012933Y-0012307D01*
X0012901Y-0012408D01*
X0012873Y-0012515D01*
X0012855Y-0012616D01*
X0012836Y-0012722D01*
X0012822Y-0012820D01*
X0012813Y-0012916D01*
X0012804Y-0013004D01*
X0012799Y-0013083D01*
X0012795Y-0013152D01*
X0012790Y-0013212D01*
Y-0013254D01*
Y-0013282D01*
Y-0013286D01*
Y-0013291D01*
X0012795Y-0013480D01*
X0012804Y-0013656D01*
X0012818Y-0013822D01*
X0012836Y-0013974D01*
X0012859Y-0014118D01*
X0012882Y-0014247D01*
X0012910Y-0014363D01*
X0012933Y-0014464D01*
X0012961Y-0014557D01*
X0012989Y-0014635D01*
X0013012Y-0014705D01*
X0013035Y-0014760D01*
X0013053Y-0014802D01*
X0013067Y-0014834D01*
X0013076Y-0014852D01*
X0013081Y-0014857D01*
X0013137Y-0014949D01*
X0013201Y-0015028D01*
X0013266Y-0015097D01*
X0013335Y-0015157D01*
X0013409Y-0015208D01*
X0013478Y-0015250D01*
X0013548Y-0015287D01*
X0013617Y-0015314D01*
X0013682Y-0015337D01*
X0013742Y-0015351D01*
X0013797Y-0015365D01*
X0013848Y-0015370D01*
X0013885Y-0015374D01*
X0013917Y-0015379D01*
X0013940D01*
X0014065Y-0015370D01*
X0014181Y-0015347D01*
X0014282Y-0015310D01*
X0014379Y-0015263D01*
X0014467Y-0015208D01*
X0014541Y-0015143D01*
X0014610Y-0015074D01*
X0014670Y-0015005D01*
X0014726Y-0014935D01*
X0014767Y-0014871D01*
X0014804Y-0014806D01*
X0014837Y-0014751D01*
X0014860Y-0014705D01*
X0014874Y-0014668D01*
X0014883Y-0014644D01*
X0014887Y-0014635D01*
X0014915Y-0014543D01*
X0014938Y-0014446D01*
X0014961Y-0014344D01*
X0014980Y-0014233D01*
X0015008Y-0014016D01*
X0015017Y-0013910D01*
X0015026Y-0013804D01*
X0015031Y-0013706D01*
X0015035Y-0013614D01*
X0015040Y-0013531D01*
Y-0013457D01*
X0015044Y-0013402D01*
Y-0013355D01*
Y-0013328D01*
Y-0013323D01*
Y-0013318D01*
X0015040Y-0013198D01*
X0015031Y-0013083D01*
X0015017Y-0012972D01*
X0014998Y-0012866D01*
X0014975Y-0012769D01*
X0014947Y-0012676D01*
X0014924Y-0012588D01*
X0014892Y-0012505D01*
X0014864Y-0012436D01*
X0014841Y-0012371D01*
X0014814Y-0012316D01*
X0014790Y-0012270D01*
X0014772Y-0012233D01*
X0014758Y-0012205D01*
X0014749Y-0012187D01*
X0014744Y-0012182D01*
X0014680Y-0012080D01*
X0014606Y-0011997D01*
X0014532Y-0011919D01*
X0014458Y-0011854D01*
X0014379Y-0011803D01*
X0014305Y-0011757D01*
X0014231Y-0011720D01*
X0014162Y-0011688D01*
X0014093Y-0011665D01*
X0014033Y-0011646D01*
X0013977Y-0011637D01*
X0013927Y-0011627D01*
X0013890Y-0011623D01*
X0013857Y-0011618D01*
D02*
G37*
G36*
X-0000782Y0013586D02*
X-0000809Y0013452D01*
X-0000833Y0013327D01*
X-0000860Y0013207D01*
X-0000879Y0013096D01*
X-0000902Y0012990D01*
X-0000920Y0012893D01*
X-0000939Y0012805D01*
X-0000953Y0012727D01*
X-0000966Y0012653D01*
X-0000980Y0012588D01*
X-0000989Y0012537D01*
X-0000999Y0012491D01*
X-0001003Y0012454D01*
X-0001008Y0012431D01*
X-0001013Y0012412D01*
Y0012408D01*
X-0000989Y0012403D01*
X-0000962D01*
X-0000929Y0012399D01*
X-0000893Y0012394D01*
X-0000814Y0012389D01*
X-0000726Y0012380D01*
X-0000648Y0012376D01*
X-0000611D01*
X-0000583Y0012371D01*
X-0000555D01*
X-0000537Y0012366D01*
X-0000518D01*
X-0000403Y0012357D01*
X-0000306Y0012353D01*
X-0000218Y0012343D01*
X-0000149Y0012334D01*
X-0000098Y0012325D01*
X-0000061Y0012320D01*
X-0000038Y0012315D01*
X-0000029D01*
X-0000116Y0012463D01*
X-0000200Y0012602D01*
X-0000278Y0012731D01*
X-0000347Y0012851D01*
X-0000417Y0012967D01*
X-0000477Y0013073D01*
X-0000537Y0013166D01*
X-0000588Y0013253D01*
X-0000629Y0013327D01*
X-0000671Y0013397D01*
X-0000703Y0013452D01*
X-0000731Y0013503D01*
X-0000754Y0013540D01*
X-0000768Y0013563D01*
X-0000777Y0013581D01*
X-0000782Y0013586D01*
D02*
G37*
G36*
X-0020361Y0014699D02*
X-0020491D01*
X-0020564Y0014695D01*
X-0020638Y0014690D01*
X-0020782Y0014662D01*
X-0020906Y0014630D01*
X-0020966Y0014607D01*
X-0021022Y0014589D01*
X-0021068Y0014565D01*
X-0021114Y0014547D01*
X-0021151Y0014524D01*
X-0021183Y0014510D01*
X-0021211Y0014496D01*
X-0021230Y0014482D01*
X-0021239Y0014478D01*
X-0021244Y0014473D01*
X-0021308Y0014432D01*
X-0021364Y0014385D01*
X-0021415Y0014339D01*
X-0021456Y0014293D01*
X-0021488Y0014247D01*
X-0021521Y0014205D01*
X-0021544Y0014164D01*
X-0021562Y0014122D01*
X-0021590Y0014053D01*
X-0021599Y0014020D01*
X-0021604Y0013997D01*
X-0021609Y0013974D01*
Y0013960D01*
Y0013951D01*
Y0013946D01*
X-0021604Y0013863D01*
X-0021590Y0013785D01*
X-0021572Y0013711D01*
X-0021549Y0013641D01*
X-0021521Y0013577D01*
X-0021484Y0013517D01*
X-0021452Y0013461D01*
X-0021415Y0013410D01*
X-0021378Y0013364D01*
X-0021345Y0013327D01*
X-0021313Y0013295D01*
X-0021281Y0013267D01*
X-0021258Y0013244D01*
X-0021239Y0013230D01*
X-0021225Y0013221D01*
X-0021220Y0013216D01*
X-0021151Y0013170D01*
X-0021077Y0013133D01*
X-0021003Y0013096D01*
X-0020929Y0013069D01*
X-0020777Y0013022D01*
X-0020634Y0012990D01*
X-0020569Y0012981D01*
X-0020504Y0012971D01*
X-0020454Y0012967D01*
X-0020407Y0012962D01*
X-0020366Y0012958D01*
X-0020287D01*
X-0020255Y0012962D01*
X-0020176Y0012971D01*
X-0020139Y0012976D01*
X-0020107Y0012981D01*
X-0020089Y0012985D01*
X-0020079D01*
X-0020089Y0013133D01*
X-0020098Y0013272D01*
X-0020107Y0013401D01*
X-0020112Y0013517D01*
X-0020121Y0013628D01*
X-0020126Y0013725D01*
X-0020130Y0013817D01*
X-0020135Y0013895D01*
Y0013965D01*
X-0020139Y0014025D01*
Y0014076D01*
X-0020144Y0014117D01*
Y0014150D01*
Y0014173D01*
Y0014187D01*
Y0014191D01*
Y0014307D01*
X-0020149Y0014408D01*
Y0014496D01*
Y0014565D01*
Y0014616D01*
Y0014653D01*
Y0014676D01*
Y0014686D01*
X-0020195Y0014690D01*
X-0020241Y0014695D01*
X-0020292D01*
X-0020361Y0014699D01*
D02*
G37*
G36*
X-0004450Y0014339D02*
X-0004649Y0014256D01*
X-0004833Y0014177D01*
X-0005000Y0014103D01*
X-0005147Y0014039D01*
X-0005282Y0013979D01*
X-0005402Y0013923D01*
X-0005503Y0013872D01*
X-0005596Y0013831D01*
X-0005674Y0013789D01*
X-0005739Y0013757D01*
X-0005794Y0013729D01*
X-0005836Y0013706D01*
X-0005868Y0013688D01*
X-0005887Y0013674D01*
X-0005901Y0013669D01*
X-0005905Y0013665D01*
X-0005998Y0013604D01*
X-0006085Y0013544D01*
X-0006164Y0013480D01*
X-0006242Y0013420D01*
X-0006312Y0013355D01*
X-0006376Y0013290D01*
X-0006436Y0013226D01*
X-0006492Y0013166D01*
X-0006594Y0013036D01*
X-0006672Y0012912D01*
X-0006741Y0012791D01*
X-0006797Y0012680D01*
X-0006838Y0012574D01*
X-0006866Y0012473D01*
X-0006889Y0012389D01*
X-0006908Y0012311D01*
X-0006917Y0012251D01*
X-0006922Y0012205D01*
Y0012191D01*
Y0012177D01*
Y0012172D01*
Y0012168D01*
X-0006912Y0012029D01*
X-0006894Y0011900D01*
X-0006861Y0011775D01*
X-0006829Y0011669D01*
X-0006811Y0011622D01*
X-0006797Y0011581D01*
X-0006778Y0011544D01*
X-0006764Y0011512D01*
X-0006755Y0011484D01*
X-0006746Y0011465D01*
X-0006737Y0011456D01*
Y0011452D01*
X-0006663Y0011331D01*
X-0006580Y0011225D01*
X-0006497Y0011128D01*
X-0006418Y0011054D01*
X-0006349Y0010994D01*
X-0006316Y0010966D01*
X-0006289Y0010948D01*
X-0006270Y0010930D01*
X-0006252Y0010920D01*
X-0006242Y0010916D01*
X-0006238Y0010911D01*
X-0006173Y0010874D01*
X-0006099Y0010842D01*
X-0006016Y0010814D01*
X-0005933Y0010791D01*
X-0005753Y0010754D01*
X-0005573Y0010731D01*
X-0005489Y0010722D01*
X-0005411Y0010712D01*
X-0005342Y0010708D01*
X-0005282D01*
X-0005231Y0010703D01*
X-0005078D01*
X-0005004Y0010708D01*
X-0004935Y0010717D01*
X-0004875Y0010726D01*
X-0004829Y0010731D01*
X-0004792Y0010740D01*
X-0004769Y0010745D01*
X-0004759D01*
X-0004695Y0010763D01*
X-0004639Y0010782D01*
X-0004584Y0010805D01*
X-0004538Y0010823D01*
X-0004501Y0010846D01*
X-0004473Y0010860D01*
X-0004454Y0010869D01*
X-0004450Y0010874D01*
Y0014339D01*
D02*
G37*
G36*
X-0020094Y0024182D02*
X-0020126D01*
X-0020260Y0024177D01*
X-0020380Y0024163D01*
X-0020486Y0024140D01*
X-0020574Y0024117D01*
X-0020611Y0024103D01*
X-0020648Y0024089D01*
X-0020676Y0024080D01*
X-0020699Y0024071D01*
X-0020717Y0024062D01*
X-0020731Y0024052D01*
X-0020736Y0024048D01*
X-0020740D01*
X-0020629Y0023978D01*
X-0020505Y0023909D01*
X-0020380Y0023840D01*
X-0020260Y0023780D01*
X-0020204Y0023752D01*
X-0020154Y0023729D01*
X-0020108Y0023706D01*
X-0020066Y0023687D01*
X-0020033Y0023674D01*
X-0020010Y0023660D01*
X-0019992Y0023655D01*
X-0019987Y0023650D01*
X-0019839Y0023590D01*
X-0019701Y0023526D01*
X-0019567Y0023470D01*
X-0019447Y0023419D01*
X-0019396Y0023396D01*
X-0019345Y0023378D01*
X-0019304Y0023359D01*
X-0019271Y0023341D01*
X-0019239Y0023332D01*
X-0019220Y0023322D01*
X-0019207Y0023313D01*
X-0019202D01*
X-0019230Y0023392D01*
X-0019257Y0023466D01*
X-0019290Y0023535D01*
X-0019317Y0023600D01*
X-0019350Y0023655D01*
X-0019382Y0023710D01*
X-0019410Y0023757D01*
X-0019438Y0023803D01*
X-0019465Y0023840D01*
X-0019493Y0023872D01*
X-0019516Y0023900D01*
X-0019535Y0023923D01*
X-0019548Y0023942D01*
X-0019562Y0023955D01*
X-0019567Y0023960D01*
X-0019571Y0023965D01*
X-0019618Y0024002D01*
X-0019664Y0024038D01*
X-0019756Y0024089D01*
X-0019849Y0024131D01*
X-0019937Y0024154D01*
X-0020010Y0024172D01*
X-0020043Y0024177D01*
X-0020071D01*
X-0020094Y0024182D01*
D02*
G37*
G36*
X-0032106D02*
X-0032138D01*
X-0032272Y0024177D01*
X-0032392Y0024163D01*
X-0032498Y0024140D01*
X-0032586Y0024117D01*
X-0032623Y0024103D01*
X-0032660Y0024089D01*
X-0032688Y0024080D01*
X-0032711Y0024071D01*
X-0032729Y0024062D01*
X-0032743Y0024052D01*
X-0032748Y0024048D01*
X-0032752D01*
X-0032642Y0023978D01*
X-0032517Y0023909D01*
X-0032392Y0023840D01*
X-0032272Y0023780D01*
X-0032217Y0023752D01*
X-0032166Y0023729D01*
X-0032120Y0023706D01*
X-0032078Y0023687D01*
X-0032046Y0023674D01*
X-0032022Y0023660D01*
X-0032004Y0023655D01*
X-0031999Y0023650D01*
X-0031852Y0023590D01*
X-0031713Y0023526D01*
X-0031579Y0023470D01*
X-0031459Y0023419D01*
X-0031408Y0023396D01*
X-0031357Y0023378D01*
X-0031316Y0023359D01*
X-0031283Y0023341D01*
X-0031251Y0023332D01*
X-0031232Y0023322D01*
X-0031219Y0023313D01*
X-0031214D01*
X-0031242Y0023392D01*
X-0031269Y0023466D01*
X-0031302Y0023535D01*
X-0031329Y0023600D01*
X-0031362Y0023655D01*
X-0031394Y0023710D01*
X-0031422Y0023757D01*
X-0031450Y0023803D01*
X-0031477Y0023840D01*
X-0031505Y0023872D01*
X-0031528Y0023900D01*
X-0031547Y0023923D01*
X-0031560Y0023942D01*
X-0031574Y0023955D01*
X-0031579Y0023960D01*
X-0031583Y0023965D01*
X-0031630Y0024002D01*
X-0031676Y0024038D01*
X-0031768Y0024089D01*
X-0031861Y0024131D01*
X-0031949Y0024154D01*
X-0032022Y0024172D01*
X-0032055Y0024177D01*
X-0032083D01*
X-0032106Y0024182D01*
D02*
G37*
G36*
X-0024159Y0024223D02*
X-0024210D01*
X-0024302Y0024219D01*
X-0024386Y0024205D01*
X-0024460Y0024186D01*
X-0024524Y0024168D01*
X-0024575Y0024149D01*
X-0024617Y0024131D01*
X-0024640Y0024117D01*
X-0024649Y0024112D01*
X-0024718Y0024066D01*
X-0024778Y0024015D01*
X-0024829Y0023960D01*
X-0024871Y0023909D01*
X-0024908Y0023858D01*
X-0024931Y0023821D01*
X-0024949Y0023794D01*
X-0024954Y0023789D01*
Y0023784D01*
Y0023683D01*
Y0023586D01*
Y0023498D01*
X-0024949Y0023410D01*
Y0023327D01*
Y0023253D01*
Y0023184D01*
Y0023114D01*
Y0022994D01*
Y0022888D01*
Y0022800D01*
Y0022726D01*
Y0022666D01*
X-0024954Y0022615D01*
Y0022579D01*
Y0022546D01*
Y0022528D01*
Y0022514D01*
Y0022505D01*
X-0024912Y0022463D01*
X-0024875Y0022431D01*
X-0024848Y0022408D01*
X-0024843Y0022398D01*
X-0024838D01*
X-0024760Y0022334D01*
X-0024690Y0022287D01*
X-0024635Y0022246D01*
X-0024589Y0022218D01*
X-0024556Y0022195D01*
X-0024533Y0022181D01*
X-0024520Y0022172D01*
X-0024515D01*
X-0024460Y0022153D01*
X-0024395Y0022140D01*
X-0024326Y0022126D01*
X-0024261Y0022121D01*
X-0024201Y0022117D01*
X-0024155Y0022112D01*
X-0024108D01*
X-0024039Y0022117D01*
X-0023974Y0022126D01*
X-0023910Y0022135D01*
X-0023850Y0022153D01*
X-0023739Y0022195D01*
X-0023642Y0022246D01*
X-0023600Y0022269D01*
X-0023563Y0022297D01*
X-0023531Y0022320D01*
X-0023508Y0022338D01*
X-0023485Y0022357D01*
X-0023471Y0022371D01*
X-0023462Y0022375D01*
X-0023457Y0022380D01*
X-0023406Y0022431D01*
X-0023365Y0022486D01*
X-0023328Y0022537D01*
X-0023295Y0022592D01*
X-0023272Y0022648D01*
X-0023249Y0022703D01*
X-0023217Y0022805D01*
X-0023194Y0022893D01*
X-0023189Y0022930D01*
X-0023184Y0022962D01*
X-0023180Y0022990D01*
Y0023008D01*
Y0023022D01*
Y0023027D01*
X-0023184Y0023133D01*
X-0023189Y0023235D01*
X-0023203Y0023332D01*
X-0023221Y0023419D01*
X-0023240Y0023498D01*
X-0023258Y0023572D01*
X-0023281Y0023641D01*
X-0023309Y0023697D01*
X-0023332Y0023752D01*
X-0023355Y0023798D01*
X-0023374Y0023835D01*
X-0023392Y0023867D01*
X-0023411Y0023891D01*
X-0023425Y0023909D01*
X-0023429Y0023918D01*
X-0023434Y0023923D01*
X-0023485Y0023974D01*
X-0023540Y0024020D01*
X-0023600Y0024062D01*
X-0023665Y0024099D01*
X-0023730Y0024126D01*
X-0023794Y0024149D01*
X-0023919Y0024186D01*
X-0023979Y0024200D01*
X-0024035Y0024209D01*
X-0024081Y0024214D01*
X-0024127Y0024219D01*
X-0024159Y0024223D01*
D02*
G37*
G36*
X-0028525Y0024154D02*
X-0028553D01*
X-0028636Y0024149D01*
X-0028673Y0024145D01*
X-0028710Y0024136D01*
X-0028738Y0024131D01*
X-0028761Y0024122D01*
X-0028775Y0024117D01*
X-0028779D01*
X-0028867Y0024085D01*
X-0028904Y0024066D01*
X-0028941Y0024052D01*
X-0028969Y0024034D01*
X-0028996Y0024025D01*
X-0029010Y0024015D01*
X-0029015Y0024011D01*
X-0029001Y0023881D01*
X-0028982Y0023761D01*
X-0028969Y0023650D01*
X-0028955Y0023549D01*
X-0028941Y0023456D01*
X-0028927Y0023369D01*
X-0028913Y0023295D01*
X-0028904Y0023225D01*
X-0028895Y0023165D01*
X-0028885Y0023110D01*
X-0028876Y0023068D01*
X-0028872Y0023031D01*
X-0028867Y0023004D01*
X-0028862Y0022980D01*
X-0028858Y0022971D01*
Y0022967D01*
X-0028848Y0022907D01*
X-0028835Y0022851D01*
X-0028793Y0022740D01*
X-0028742Y0022634D01*
X-0028691Y0022537D01*
X-0028636Y0022458D01*
X-0028613Y0022426D01*
X-0028590Y0022398D01*
X-0028576Y0022375D01*
X-0028562Y0022357D01*
X-0028553Y0022348D01*
X-0028548Y0022343D01*
X-0028493Y0022287D01*
X-0028437Y0022237D01*
X-0028387Y0022190D01*
X-0028331Y0022153D01*
X-0028280Y0022121D01*
X-0028234Y0022094D01*
X-0028188Y0022075D01*
X-0028146Y0022057D01*
X-0028072Y0022033D01*
X-0028040Y0022024D01*
X-0028017Y0022019D01*
X-0027994Y0022015D01*
X-0027966D01*
X-0027911Y0022019D01*
X-0027855Y0022024D01*
X-0027758Y0022047D01*
X-0027680Y0022080D01*
X-0027615Y0022121D01*
X-0027560Y0022158D01*
X-0027523Y0022190D01*
X-0027504Y0022214D01*
X-0027495Y0022223D01*
X-0027467Y0022264D01*
X-0027444Y0022311D01*
X-0027402Y0022408D01*
X-0027375Y0022514D01*
X-0027356Y0022611D01*
X-0027347Y0022703D01*
X-0027342Y0022745D01*
Y0022777D01*
X-0027338Y0022805D01*
Y0022828D01*
Y0022842D01*
Y0022847D01*
X-0027342Y0022948D01*
X-0027352Y0023050D01*
X-0027365Y0023142D01*
X-0027384Y0023230D01*
X-0027407Y0023309D01*
X-0027430Y0023387D01*
X-0027458Y0023456D01*
X-0027486Y0023516D01*
X-0027509Y0023572D01*
X-0027536Y0023623D01*
X-0027560Y0023664D01*
X-0027583Y0023701D01*
X-0027601Y0023729D01*
X-0027615Y0023747D01*
X-0027624Y0023761D01*
X-0027629Y0023766D01*
X-0027694Y0023835D01*
X-0027763Y0023895D01*
X-0027837Y0023946D01*
X-0027915Y0023992D01*
X-0027989Y0024029D01*
X-0028068Y0024062D01*
X-0028142Y0024085D01*
X-0028216Y0024108D01*
X-0028285Y0024122D01*
X-0028350Y0024136D01*
X-0028405Y0024140D01*
X-0028456Y0024149D01*
X-0028497D01*
X-0028525Y0024154D01*
D02*
G37*
G36*
X-0009592Y0024186D02*
X-0009615D01*
X-0009643Y0024182D01*
X-0009675Y0024177D01*
X-0009694Y0024172D01*
X-0009703Y0024168D01*
X-0009745Y0024154D01*
X-0009791Y0024136D01*
X-0009805Y0024131D01*
X-0009819Y0024122D01*
X-0009828Y0024117D01*
X-0009833D01*
X-0009823Y0024052D01*
X-0009814Y0023992D01*
X-0009805Y0023937D01*
X-0009796Y0023891D01*
X-0009791Y0023849D01*
Y0023821D01*
X-0009786Y0023798D01*
Y0023794D01*
X-0009782Y0023743D01*
X-0009777Y0023692D01*
Y0023650D01*
X-0009772Y0023609D01*
Y0023581D01*
Y0023553D01*
Y0023539D01*
Y0023535D01*
Y0023452D01*
X-0009777Y0023364D01*
X-0009782Y0023267D01*
X-0009786Y0023165D01*
X-0009805Y0022962D01*
X-0009814Y0022860D01*
X-0009823Y0022759D01*
X-0009833Y0022666D01*
X-0009842Y0022579D01*
X-0009851Y0022495D01*
X-0009860Y0022431D01*
X-0009865Y0022371D01*
X-0009870Y0022329D01*
X-0009874Y0022301D01*
Y0022297D01*
Y0022292D01*
X-0009809Y0022241D01*
X-0009745Y0022200D01*
X-0009680Y0022163D01*
X-0009625Y0022135D01*
X-0009574Y0022112D01*
X-0009537Y0022094D01*
X-0009514Y0022084D01*
X-0009505Y0022080D01*
X-0009431Y0022057D01*
X-0009361Y0022038D01*
X-0009292Y0022029D01*
X-0009232Y0022019D01*
X-0009177Y0022015D01*
X-0009135Y0022010D01*
X-0009098D01*
X-0009038Y0022015D01*
X-0008978Y0022019D01*
X-0008876Y0022047D01*
X-0008788Y0022084D01*
X-0008719Y0022130D01*
X-0008664Y0022172D01*
X-0008627Y0022209D01*
X-0008604Y0022237D01*
X-0008594Y0022241D01*
Y0022246D01*
X-0008567Y0022292D01*
X-0008539Y0022343D01*
X-0008497Y0022454D01*
X-0008470Y0022574D01*
X-0008451Y0022685D01*
X-0008442Y0022740D01*
X-0008437Y0022786D01*
X-0008433Y0022833D01*
Y0022870D01*
X-0008428Y0022902D01*
Y0022930D01*
Y0022943D01*
Y0022948D01*
X-0008433Y0023041D01*
X-0008442Y0023128D01*
X-0008460Y0023212D01*
X-0008484Y0023290D01*
X-0008511Y0023364D01*
X-0008539Y0023438D01*
X-0008571Y0023503D01*
X-0008608Y0023563D01*
X-0008641Y0023618D01*
X-0008673Y0023669D01*
X-0008701Y0023710D01*
X-0008728Y0023747D01*
X-0008751Y0023775D01*
X-0008770Y0023794D01*
X-0008779Y0023808D01*
X-0008784Y0023812D01*
X-0008853Y0023877D01*
X-0008922Y0023937D01*
X-0008992Y0023988D01*
X-0009066Y0024029D01*
X-0009135Y0024066D01*
X-0009204Y0024094D01*
X-0009269Y0024122D01*
X-0009334Y0024140D01*
X-0009394Y0024154D01*
X-0009444Y0024168D01*
X-0009495Y0024177D01*
X-0009537Y0024182D01*
X-0009569D01*
X-0009592Y0024186D01*
D02*
G37*
%LPD*%
D12*
X-0006995Y-0036364D02*
X-0004042D01*
Y-0006836D01*
X-0006995D02*
X-0004042D01*
X-0021758Y-0036364D02*
X-0018805D01*
X-0021758D02*
Y-0006836D01*
X-0018805D01*
X0033468Y-0023695D02*
Y-0020742D01*
X0003941D02*
X0033468D01*
X0003941Y-0023695D02*
Y-0020742D01*
X0033468Y-0038458D02*
Y-0035506D01*
X0003941Y-0038458D02*
X0033468D01*
X0003941D02*
Y-0035506D01*
D13*
X0007700Y0022322D02*
Y0031622D01*
X0015550Y0014471D02*
X0024849D01*
X0032700Y0022321D02*
Y0031621D01*
X0015550Y0039472D02*
X0024850D01*
M02*
