G04*
G04 #@! TF.GenerationSoftware,Altium Limited,Altium Designer,26.5.0 (11)*
G04*
G04 Layer_Color=2752767*
G04 Board_Origin=43966378|46889134*
%FSAX25Y25*%
%MOIN*%
G70*
G04*
G04 #@! TF.SameCoordinates,57F83437-8FD5-4720-90E9-F1E7D8C2B116*
G04*
G04*
G04 #@! TF.FilePolarity,Positive*
G04*
G01*
G75*
%ADD80C,0.00200*%
%ADD81C,0.00267*%
D80*
X-0033145Y0001992D02*
X-0033945Y0003592D01*
X-0032345D01*
X-0033145Y0001992D01*
Y0036008D02*
X-0033945Y0037608D01*
X-0032345D01*
X-0033145Y0036008D01*
X-0019457Y0007622D02*
Y0009222D01*
X-0017857D01*
Y0007622D01*
X-0019457D01*
Y0030378D02*
Y0031978D01*
X-0017857D01*
Y0030378D01*
X-0019457D01*
X0030200Y0036172D02*
X0030600Y0036572D01*
X0031000D01*
X0030600Y0036972D01*
X0031000Y0037372D01*
X0030600D01*
X0030200Y0037772D01*
X0029800Y0037372D01*
X0029400D01*
X0029800Y0036972D01*
X0029400Y0036572D01*
X0029800D01*
X0030200Y0036172D01*
X0010200D02*
X0010600Y0036572D01*
X0011000D01*
X0010600Y0036972D01*
X0011000Y0037372D01*
X0010600D01*
X0010200Y0037772D01*
X0009800Y0037372D01*
X0009400D01*
X0009800Y0036972D01*
X0009400Y0036572D01*
X0009800D01*
X0010200Y0036172D01*
Y0016172D02*
X0010600Y0016572D01*
X0011000D01*
X0010600Y0016972D01*
X0011000Y0017372D01*
X0010600D01*
X0010200Y0017772D01*
X0009800Y0017372D01*
X0009400D01*
X0009800Y0016972D01*
X0009400Y0016572D01*
X0009800D01*
X0010200Y0016172D01*
X0030200D02*
X0030600Y0016572D01*
X0031000D01*
X0030600Y0016972D01*
X0031000Y0017372D01*
X0030600D01*
X0030200Y0017772D01*
X0029800Y0017372D01*
X0029400D01*
X0029800Y0016972D01*
X0029400Y0016572D01*
X0029800D01*
X0030200Y0016172D01*
X0019400Y0026971D02*
X0020200Y0027771D01*
X0021000Y0026971D01*
X0020200Y0026171D01*
X0019400Y0026971D01*
X-0026300Y-0018700D02*
X-0025900D01*
X-0025500Y-0018300D01*
X-0025100Y-0018700D01*
X-0024700D01*
Y-0018300D01*
X-0025100Y-0017900D01*
X-0024700Y-0017500D01*
Y-0017100D01*
X-0025100D01*
X-0025500Y-0017500D01*
X-0025900Y-0017100D01*
X-0026300D01*
Y-0017500D01*
X-0025900Y-0017900D01*
X-0026300Y-0018300D01*
Y-0018700D01*
X0028194Y-0005268D02*
X0028594D01*
X0028994Y-0004868D01*
X0029394Y-0005268D01*
X0029794D01*
Y-0004868D01*
X0029394Y-0004468D01*
X0029794Y-0004067D01*
Y-0003667D01*
X0029394D01*
X0028994Y-0004067D01*
X0028594Y-0003667D01*
X0028194D01*
Y-0004067D01*
X0028594Y-0004468D01*
X0028194Y-0004868D01*
Y-0005268D01*
X0027848Y-0007467D02*
X0028248D01*
X0028648Y-0007067D01*
X0029048Y-0007467D01*
X0029448D01*
Y-0007067D01*
X0029048Y-0006667D01*
X0029448Y-0006267D01*
Y-0005867D01*
X0029048D01*
X0028648Y-0006267D01*
X0028248Y-0005867D01*
X0027848D01*
Y-0006267D01*
X0028248Y-0006667D01*
X0027848Y-0007067D01*
Y-0007467D01*
X0008551Y0003679D02*
X0008951D01*
X0009351Y0004079D01*
X0009751Y0003679D01*
X0010151D01*
Y0004079D01*
X0009751Y0004479D01*
X0010151Y0004879D01*
Y0005279D01*
X0009751D01*
X0009351Y0004879D01*
X0008951Y0005279D01*
X0008551D01*
Y0004879D01*
X0008951Y0004479D01*
X0008551Y0004079D01*
Y0003679D01*
X0012040Y0003885D02*
X0012440D01*
X0012840Y0004285D01*
X0013240Y0003885D01*
X0013640D01*
Y0004285D01*
X0013240Y0004685D01*
X0013640Y0005085D01*
Y0005485D01*
X0013240D01*
X0012840Y0005085D01*
X0012440Y0005485D01*
X0012040D01*
Y0005085D01*
X0012440Y0004685D01*
X0012040Y0004285D01*
Y0003885D01*
X0008600Y0006200D02*
X0009000D01*
X0009400Y0006600D01*
X0009800Y0006200D01*
X0010200D01*
Y0006600D01*
X0009800Y0007000D01*
X0010200Y0007400D01*
Y0007800D01*
X0009800D01*
X0009400Y0007400D01*
X0009000Y0007800D01*
X0008600D01*
Y0007400D01*
X0009000Y0007000D01*
X0008600Y0006600D01*
Y0006200D01*
X0014900Y0004000D02*
X0015300D01*
X0015700Y0004400D01*
X0016100Y0004000D01*
X0016500D01*
Y0004400D01*
X0016100Y0004800D01*
X0016500Y0005200D01*
Y0005600D01*
X0016100D01*
X0015700Y0005200D01*
X0015300Y0005600D01*
X0014900D01*
Y0005200D01*
X0015300Y0004800D01*
X0014900Y0004400D01*
Y0004000D01*
X0013800Y0006800D02*
X0014200D01*
X0014600Y0007200D01*
X0015000Y0006800D01*
X0015400D01*
Y0007200D01*
X0015000Y0007600D01*
X0015400Y0008000D01*
Y0008400D01*
X0015000D01*
X0014600Y0008000D01*
X0014200Y0008400D01*
X0013800D01*
Y0008000D01*
X0014200Y0007600D01*
X0013800Y0007200D01*
Y0006800D01*
X0016000Y0006700D02*
X0016400D01*
X0016800Y0007100D01*
X0017200Y0006700D01*
X0017600D01*
Y0007100D01*
X0017200Y0007500D01*
X0017600Y0007900D01*
Y0008300D01*
X0017200D01*
X0016800Y0007900D01*
X0016400Y0008300D01*
X0016000D01*
Y0007900D01*
X0016400Y0007500D01*
X0016000Y0007100D01*
Y0006700D01*
X0025600Y0006200D02*
X0026000D01*
X0026400Y0006600D01*
X0026800Y0006200D01*
X0027200D01*
Y0006600D01*
X0026800Y0007000D01*
X0027200Y0007400D01*
Y0007800D01*
X0026800D01*
X0026400Y0007400D01*
X0026000Y0007800D01*
X0025600D01*
Y0007400D01*
X0026000Y0007000D01*
X0025600Y0006600D01*
Y0006200D01*
X0033400Y0008700D02*
X0033800D01*
X0034200Y0009100D01*
X0034600Y0008700D01*
X0035000D01*
Y0009100D01*
X0034600Y0009500D01*
X0035000Y0009900D01*
Y0010300D01*
X0034600D01*
X0034200Y0009900D01*
X0033800Y0010300D01*
X0033400D01*
Y0009900D01*
X0033800Y0009500D01*
X0033400Y0009100D01*
Y0008700D01*
Y0004200D02*
X0033800D01*
X0034200Y0004600D01*
X0034600Y0004200D01*
X0035000D01*
Y0004600D01*
X0034600Y0005000D01*
X0035000Y0005400D01*
Y0005800D01*
X0034600D01*
X0034200Y0005400D01*
X0033800Y0005800D01*
X0033400D01*
Y0005400D01*
X0033800Y0005000D01*
X0033400Y0004600D01*
Y0004200D01*
X-0028700Y-0032700D02*
X-0028300D01*
X-0027900Y-0032300D01*
X-0027500Y-0032700D01*
X-0027100D01*
Y-0032300D01*
X-0027500Y-0031900D01*
X-0027100Y-0031500D01*
Y-0031100D01*
X-0027500D01*
X-0027900Y-0031500D01*
X-0028300Y-0031100D01*
X-0028700D01*
Y-0031500D01*
X-0028300Y-0031900D01*
X-0028700Y-0032300D01*
Y-0032700D01*
X-0030980D02*
X-0030580D01*
X-0030180Y-0032300D01*
X-0029780Y-0032700D01*
X-0029380D01*
Y-0032300D01*
X-0029780Y-0031900D01*
X-0029380Y-0031500D01*
Y-0031100D01*
X-0029780D01*
X-0030180Y-0031500D01*
X-0030580Y-0031100D01*
X-0030980D01*
Y-0031500D01*
X-0030580Y-0031900D01*
X-0030980Y-0032300D01*
Y-0032700D01*
X-0028700Y-0035600D02*
X-0028300D01*
X-0027900Y-0035200D01*
X-0027500Y-0035600D01*
X-0027100D01*
Y-0035200D01*
X-0027500Y-0034800D01*
X-0027100Y-0034400D01*
Y-0034000D01*
X-0027500D01*
X-0027900Y-0034400D01*
X-0028300Y-0034000D01*
X-0028700D01*
Y-0034400D01*
X-0028300Y-0034800D01*
X-0028700Y-0035200D01*
Y-0035600D01*
X-0021700D02*
X-0021300D01*
X-0020900Y-0035200D01*
X-0020500Y-0035600D01*
X-0020100D01*
Y-0035200D01*
X-0020500Y-0034800D01*
X-0020100Y-0034400D01*
Y-0034000D01*
X-0020500D01*
X-0020900Y-0034400D01*
X-0021300Y-0034000D01*
X-0021700D01*
Y-0034400D01*
X-0021300Y-0034800D01*
X-0021700Y-0035200D01*
Y-0035600D01*
X-0030980D02*
X-0030580D01*
X-0030180Y-0035200D01*
X-0029780Y-0035600D01*
X-0029380D01*
Y-0035200D01*
X-0029780Y-0034800D01*
X-0029380Y-0034400D01*
Y-0034000D01*
X-0029780D01*
X-0030180Y-0034400D01*
X-0030580Y-0034000D01*
X-0030980D01*
Y-0034400D01*
X-0030580Y-0034800D01*
X-0030980Y-0035200D01*
Y-0035600D01*
X-0021700Y-0032700D02*
X-0021300D01*
X-0020900Y-0032300D01*
X-0020500Y-0032700D01*
X-0020100D01*
Y-0032300D01*
X-0020500Y-0031900D01*
X-0020100Y-0031500D01*
Y-0031100D01*
X-0020500D01*
X-0020900Y-0031500D01*
X-0021300Y-0031100D01*
X-0021700D01*
Y-0031500D01*
X-0021300Y-0031900D01*
X-0021700Y-0032300D01*
Y-0032700D01*
X-0023980Y-0035600D02*
X-0023580D01*
X-0023180Y-0035200D01*
X-0022780Y-0035600D01*
X-0022380D01*
Y-0035200D01*
X-0022780Y-0034800D01*
X-0022380Y-0034400D01*
Y-0034000D01*
X-0022780D01*
X-0023180Y-0034400D01*
X-0023580Y-0034000D01*
X-0023980D01*
Y-0034400D01*
X-0023580Y-0034800D01*
X-0023980Y-0035200D01*
Y-0035600D01*
Y-0032700D02*
X-0023580D01*
X-0023180Y-0032300D01*
X-0022780Y-0032700D01*
X-0022380D01*
Y-0032300D01*
X-0022780Y-0031900D01*
X-0022380Y-0031500D01*
Y-0031100D01*
X-0022780D01*
X-0023180Y-0031500D01*
X-0023580Y-0031100D01*
X-0023980D01*
Y-0031500D01*
X-0023580Y-0031900D01*
X-0023980Y-0032300D01*
Y-0032700D01*
X-0021300Y-0008200D02*
X-0020900D01*
X-0020500Y-0007800D01*
X-0020100Y-0008200D01*
X-0019700D01*
Y-0007800D01*
X-0020100Y-0007400D01*
X-0019700Y-0007000D01*
Y-0006600D01*
X-0020100D01*
X-0020500Y-0007000D01*
X-0020900Y-0006600D01*
X-0021300D01*
Y-0007000D01*
X-0020900Y-0007400D01*
X-0021300Y-0007800D01*
Y-0008200D01*
X-0023580D02*
X-0023180D01*
X-0022780Y-0007800D01*
X-0022380Y-0008200D01*
X-0021980D01*
Y-0007800D01*
X-0022380Y-0007400D01*
X-0021980Y-0007000D01*
Y-0006600D01*
X-0022380D01*
X-0022780Y-0007000D01*
X-0023180Y-0006600D01*
X-0023580D01*
Y-0007000D01*
X-0023180Y-0007400D01*
X-0023580Y-0007800D01*
Y-0008200D01*
X-0030580D02*
X-0030180D01*
X-0029780Y-0007800D01*
X-0029380Y-0008200D01*
X-0028980D01*
Y-0007800D01*
X-0029380Y-0007400D01*
X-0028980Y-0007000D01*
Y-0006600D01*
X-0029380D01*
X-0029780Y-0007000D01*
X-0030180Y-0006600D01*
X-0030580D01*
Y-0007000D01*
X-0030180Y-0007400D01*
X-0030580Y-0007800D01*
Y-0008200D01*
X-0028300D02*
X-0027900D01*
X-0027500Y-0007800D01*
X-0027100Y-0008200D01*
X-0026700D01*
Y-0007800D01*
X-0027100Y-0007400D01*
X-0026700Y-0007000D01*
Y-0006600D01*
X-0027100D01*
X-0027500Y-0007000D01*
X-0027900Y-0006600D01*
X-0028300D01*
Y-0007000D01*
X-0027900Y-0007400D01*
X-0028300Y-0007800D01*
Y-0008200D01*
X-0011300Y0004900D02*
X-0010900D01*
X-0010500Y0005300D01*
X-0010100Y0004900D01*
X-0009700D01*
Y0005300D01*
X-0010100Y0005700D01*
X-0009700Y0006100D01*
Y0006500D01*
X-0010100D01*
X-0010500Y0006100D01*
X-0010900Y0006500D01*
X-0011300D01*
Y0006100D01*
X-0010900Y0005700D01*
X-0011300Y0005300D01*
Y0004900D01*
X-0009005D02*
X-0008605D01*
X-0008205Y0005300D01*
X-0007805Y0004900D01*
X-0007405D01*
Y0005300D01*
X-0007805Y0005700D01*
X-0007405Y0006100D01*
Y0006500D01*
X-0007805D01*
X-0008205Y0006100D01*
X-0008605Y0006500D01*
X-0009005D01*
Y0006100D01*
X-0008605Y0005700D01*
X-0009005Y0005300D01*
Y0004900D01*
Y0002620D02*
X-0008605D01*
X-0008205Y0003020D01*
X-0007805Y0002620D01*
X-0007405D01*
Y0003020D01*
X-0007805Y0003420D01*
X-0007405Y0003820D01*
Y0004220D01*
X-0007805D01*
X-0008205Y0003820D01*
X-0008605Y0004220D01*
X-0009005D01*
Y0003820D01*
X-0008605Y0003420D01*
X-0009005Y0003020D01*
Y0002620D01*
X-0011300D02*
X-0010900D01*
X-0010500Y0003020D01*
X-0010100Y0002620D01*
X-0009700D01*
Y0003020D01*
X-0010100Y0003420D01*
X-0009700Y0003820D01*
Y0004220D01*
X-0010100D01*
X-0010500Y0003820D01*
X-0010900Y0004220D01*
X-0011300D01*
Y0003820D01*
X-0010900Y0003420D01*
X-0011300Y0003020D01*
Y0002620D01*
X-0009295Y0007500D02*
X-0008895D01*
X-0008495Y0007900D01*
X-0008095Y0007500D01*
X-0007695D01*
Y0007900D01*
X-0008095Y0008300D01*
X-0007695Y0008700D01*
Y0009100D01*
X-0008095D01*
X-0008495Y0008700D01*
X-0008895Y0009100D01*
X-0009295D01*
Y0008700D01*
X-0008895Y0008300D01*
X-0009295Y0007900D01*
Y0007500D01*
X-0007000D02*
X-0006600D01*
X-0006200Y0007900D01*
X-0005800Y0007500D01*
X-0005400D01*
Y0007900D01*
X-0005800Y0008300D01*
X-0005400Y0008700D01*
Y0009100D01*
X-0005800D01*
X-0006200Y0008700D01*
X-0006600Y0009100D01*
X-0007000D01*
Y0008700D01*
X-0006600Y0008300D01*
X-0007000Y0007900D01*
Y0007500D01*
Y0009780D02*
X-0006600D01*
X-0006200Y0010180D01*
X-0005800Y0009780D01*
X-0005400D01*
Y0010180D01*
X-0005800Y0010580D01*
X-0005400Y0010980D01*
Y0011380D01*
X-0005800D01*
X-0006200Y0010980D01*
X-0006600Y0011380D01*
X-0007000D01*
Y0010980D01*
X-0006600Y0010580D01*
X-0007000Y0010180D01*
Y0009780D01*
X-0009295D02*
X-0008895D01*
X-0008495Y0010180D01*
X-0008095Y0009780D01*
X-0007695D01*
Y0010180D01*
X-0008095Y0010580D01*
X-0007695Y0010980D01*
Y0011380D01*
X-0008095D01*
X-0008495Y0010980D01*
X-0008895Y0011380D01*
X-0009295D01*
Y0010980D01*
X-0008895Y0010580D01*
X-0009295Y0010180D01*
Y0009780D01*
X-0016400Y-0032324D02*
X-0016000D01*
X-0015600Y-0031924D01*
X-0015200Y-0032324D01*
X-0014800D01*
Y-0031924D01*
X-0015200Y-0031524D01*
X-0014800Y-0031124D01*
Y-0030724D01*
X-0015200D01*
X-0015600Y-0031124D01*
X-0016000Y-0030724D01*
X-0016400D01*
Y-0031124D01*
X-0016000Y-0031524D01*
X-0016400Y-0031924D01*
Y-0032324D01*
X-0013700D02*
X-0013300D01*
X-0012900Y-0031924D01*
X-0012500Y-0032324D01*
X-0012100D01*
Y-0031924D01*
X-0012500Y-0031524D01*
X-0012100Y-0031124D01*
Y-0030724D01*
X-0012500D01*
X-0012900Y-0031124D01*
X-0013300Y-0030724D01*
X-0013700D01*
Y-0031124D01*
X-0013300Y-0031524D01*
X-0013700Y-0031924D01*
Y-0032324D01*
X-0011000D02*
X-0010600D01*
X-0010200Y-0031924D01*
X-0009800Y-0032324D01*
X-0009400D01*
Y-0031924D01*
X-0009800Y-0031524D01*
X-0009400Y-0031124D01*
Y-0030724D01*
X-0009800D01*
X-0010200Y-0031124D01*
X-0010600Y-0030724D01*
X-0011000D01*
Y-0031124D01*
X-0010600Y-0031524D01*
X-0011000Y-0031924D01*
Y-0032324D01*
Y-0034605D02*
X-0010600D01*
X-0010200Y-0034205D01*
X-0009800Y-0034605D01*
X-0009400D01*
Y-0034205D01*
X-0009800Y-0033805D01*
X-0009400Y-0033405D01*
Y-0033005D01*
X-0009800D01*
X-0010200Y-0033405D01*
X-0010600Y-0033005D01*
X-0011000D01*
Y-0033405D01*
X-0010600Y-0033805D01*
X-0011000Y-0034205D01*
Y-0034605D01*
X-0013700D02*
X-0013300D01*
X-0012900Y-0034205D01*
X-0012500Y-0034605D01*
X-0012100D01*
Y-0034205D01*
X-0012500Y-0033805D01*
X-0012100Y-0033405D01*
Y-0033005D01*
X-0012500D01*
X-0012900Y-0033405D01*
X-0013300Y-0033005D01*
X-0013700D01*
Y-0033405D01*
X-0013300Y-0033805D01*
X-0013700Y-0034205D01*
Y-0034605D01*
X-0016400D02*
X-0016000D01*
X-0015600Y-0034205D01*
X-0015200Y-0034605D01*
X-0014800D01*
Y-0034205D01*
X-0015200Y-0033805D01*
X-0014800Y-0033405D01*
Y-0033005D01*
X-0015200D01*
X-0015600Y-0033405D01*
X-0016000Y-0033005D01*
X-0016400D01*
Y-0033405D01*
X-0016000Y-0033805D01*
X-0016400Y-0034205D01*
Y-0034605D01*
X-0011000Y-0036885D02*
X-0010600D01*
X-0010200Y-0036485D01*
X-0009800Y-0036885D01*
X-0009400D01*
Y-0036485D01*
X-0009800Y-0036085D01*
X-0009400Y-0035685D01*
Y-0035285D01*
X-0009800D01*
X-0010200Y-0035685D01*
X-0010600Y-0035285D01*
X-0011000D01*
Y-0035685D01*
X-0010600Y-0036085D01*
X-0011000Y-0036485D01*
Y-0036885D01*
X-0013700D02*
X-0013300D01*
X-0012900Y-0036485D01*
X-0012500Y-0036885D01*
X-0012100D01*
Y-0036485D01*
X-0012500Y-0036085D01*
X-0012100Y-0035685D01*
Y-0035285D01*
X-0012500D01*
X-0012900Y-0035685D01*
X-0013300Y-0035285D01*
X-0013700D01*
Y-0035685D01*
X-0013300Y-0036085D01*
X-0013700Y-0036485D01*
Y-0036885D01*
X-0016400D02*
X-0016000D01*
X-0015600Y-0036485D01*
X-0015200Y-0036885D01*
X-0014800D01*
Y-0036485D01*
X-0015200Y-0036085D01*
X-0014800Y-0035685D01*
Y-0035285D01*
X-0015200D01*
X-0015600Y-0035685D01*
X-0016000Y-0035285D01*
X-0016400D01*
Y-0035685D01*
X-0016000Y-0036085D01*
X-0016400Y-0036485D01*
Y-0036885D01*
Y-0007915D02*
X-0016000D01*
X-0015600Y-0007515D01*
X-0015200Y-0007915D01*
X-0014800D01*
Y-0007515D01*
X-0015200Y-0007115D01*
X-0014800Y-0006715D01*
Y-0006315D01*
X-0015200D01*
X-0015600Y-0006715D01*
X-0016000Y-0006315D01*
X-0016400D01*
Y-0006715D01*
X-0016000Y-0007115D01*
X-0016400Y-0007515D01*
Y-0007915D01*
X-0013700D02*
X-0013300D01*
X-0012900Y-0007515D01*
X-0012500Y-0007915D01*
X-0012100D01*
Y-0007515D01*
X-0012500Y-0007115D01*
X-0012100Y-0006715D01*
Y-0006315D01*
X-0012500D01*
X-0012900Y-0006715D01*
X-0013300Y-0006315D01*
X-0013700D01*
Y-0006715D01*
X-0013300Y-0007115D01*
X-0013700Y-0007515D01*
Y-0007915D01*
X-0011000D02*
X-0010600D01*
X-0010200Y-0007515D01*
X-0009800Y-0007915D01*
X-0009400D01*
Y-0007515D01*
X-0009800Y-0007115D01*
X-0009400Y-0006715D01*
Y-0006315D01*
X-0009800D01*
X-0010200Y-0006715D01*
X-0010600Y-0006315D01*
X-0011000D01*
Y-0006715D01*
X-0010600Y-0007115D01*
X-0011000Y-0007515D01*
Y-0007915D01*
Y-0010195D02*
X-0010600D01*
X-0010200Y-0009795D01*
X-0009800Y-0010195D01*
X-0009400D01*
Y-0009795D01*
X-0009800Y-0009395D01*
X-0009400Y-0008995D01*
Y-0008595D01*
X-0009800D01*
X-0010200Y-0008995D01*
X-0010600Y-0008595D01*
X-0011000D01*
Y-0008995D01*
X-0010600Y-0009395D01*
X-0011000Y-0009795D01*
Y-0010195D01*
X-0013700D02*
X-0013300D01*
X-0012900Y-0009795D01*
X-0012500Y-0010195D01*
X-0012100D01*
Y-0009795D01*
X-0012500Y-0009395D01*
X-0012100Y-0008995D01*
Y-0008595D01*
X-0012500D01*
X-0012900Y-0008995D01*
X-0013300Y-0008595D01*
X-0013700D01*
Y-0008995D01*
X-0013300Y-0009395D01*
X-0013700Y-0009795D01*
Y-0010195D01*
X-0016400D02*
X-0016000D01*
X-0015600Y-0009795D01*
X-0015200Y-0010195D01*
X-0014800D01*
Y-0009795D01*
X-0015200Y-0009395D01*
X-0014800Y-0008995D01*
Y-0008595D01*
X-0015200D01*
X-0015600Y-0008995D01*
X-0016000Y-0008595D01*
X-0016400D01*
Y-0008995D01*
X-0016000Y-0009395D01*
X-0016400Y-0009795D01*
Y-0010195D01*
X-0011000Y-0012476D02*
X-0010600D01*
X-0010200Y-0012076D01*
X-0009800Y-0012476D01*
X-0009400D01*
Y-0012076D01*
X-0009800Y-0011676D01*
X-0009400Y-0011276D01*
Y-0010876D01*
X-0009800D01*
X-0010200Y-0011276D01*
X-0010600Y-0010876D01*
X-0011000D01*
Y-0011276D01*
X-0010600Y-0011676D01*
X-0011000Y-0012076D01*
Y-0012476D01*
X-0013700D02*
X-0013300D01*
X-0012900Y-0012076D01*
X-0012500Y-0012476D01*
X-0012100D01*
Y-0012076D01*
X-0012500Y-0011676D01*
X-0012100Y-0011276D01*
Y-0010876D01*
X-0012500D01*
X-0012900Y-0011276D01*
X-0013300Y-0010876D01*
X-0013700D01*
Y-0011276D01*
X-0013300Y-0011676D01*
X-0013700Y-0012076D01*
Y-0012476D01*
X-0016400D02*
X-0016000D01*
X-0015600Y-0012076D01*
X-0015200Y-0012476D01*
X-0014800D01*
Y-0012076D01*
X-0015200Y-0011676D01*
X-0014800Y-0011276D01*
Y-0010876D01*
X-0015200D01*
X-0015600Y-0011276D01*
X-0016000Y-0010876D01*
X-0016400D01*
Y-0011276D01*
X-0016000Y-0011676D01*
X-0016400Y-0012076D01*
Y-0012476D01*
X0003000Y-0032680D02*
X0003400D01*
X0003800Y-0032280D01*
X0004200Y-0032680D01*
X0004600D01*
Y-0032280D01*
X0004200Y-0031880D01*
X0004600Y-0031480D01*
Y-0031080D01*
X0004200D01*
X0003800Y-0031480D01*
X0003400Y-0031080D01*
X0003000D01*
Y-0031480D01*
X0003400Y-0031880D01*
X0003000Y-0032280D01*
Y-0032680D01*
X0005700D02*
X0006100D01*
X0006500Y-0032280D01*
X0006900Y-0032680D01*
X0007300D01*
Y-0032280D01*
X0006900Y-0031880D01*
X0007300Y-0031480D01*
Y-0031080D01*
X0006900D01*
X0006500Y-0031480D01*
X0006100Y-0031080D01*
X0005700D01*
Y-0031480D01*
X0006100Y-0031880D01*
X0005700Y-0032280D01*
Y-0032680D01*
X0008400D02*
X0008800D01*
X0009200Y-0032280D01*
X0009600Y-0032680D01*
X0010000D01*
Y-0032280D01*
X0009600Y-0031880D01*
X0010000Y-0031480D01*
Y-0031080D01*
X0009600D01*
X0009200Y-0031480D01*
X0008800Y-0031080D01*
X0008400D01*
Y-0031480D01*
X0008800Y-0031880D01*
X0008400Y-0032280D01*
Y-0032680D01*
X0003000Y-0030400D02*
X0003400D01*
X0003800Y-0030000D01*
X0004200Y-0030400D01*
X0004600D01*
Y-0030000D01*
X0004200Y-0029600D01*
X0004600Y-0029200D01*
Y-0028800D01*
X0004200D01*
X0003800Y-0029200D01*
X0003400Y-0028800D01*
X0003000D01*
Y-0029200D01*
X0003400Y-0029600D01*
X0003000Y-0030000D01*
Y-0030400D01*
X0005700D02*
X0006100D01*
X0006500Y-0030000D01*
X0006900Y-0030400D01*
X0007300D01*
Y-0030000D01*
X0006900Y-0029600D01*
X0007300Y-0029200D01*
Y-0028800D01*
X0006900D01*
X0006500Y-0029200D01*
X0006100Y-0028800D01*
X0005700D01*
Y-0029200D01*
X0006100Y-0029600D01*
X0005700Y-0030000D01*
Y-0030400D01*
X0008400D02*
X0008800D01*
X0009200Y-0030000D01*
X0009600Y-0030400D01*
X0010000D01*
Y-0030000D01*
X0009600Y-0029600D01*
X0010000Y-0029200D01*
Y-0028800D01*
X0009600D01*
X0009200Y-0029200D01*
X0008800Y-0028800D01*
X0008400D01*
Y-0029200D01*
X0008800Y-0029600D01*
X0008400Y-0030000D01*
Y-0030400D01*
Y-0028120D02*
X0008800D01*
X0009200Y-0027720D01*
X0009600Y-0028120D01*
X0010000D01*
Y-0027720D01*
X0009600Y-0027320D01*
X0010000Y-0026920D01*
Y-0026520D01*
X0009600D01*
X0009200Y-0026920D01*
X0008800Y-0026520D01*
X0008400D01*
Y-0026920D01*
X0008800Y-0027320D01*
X0008400Y-0027720D01*
Y-0028120D01*
X0005700D02*
X0006100D01*
X0006500Y-0027720D01*
X0006900Y-0028120D01*
X0007300D01*
Y-0027720D01*
X0006900Y-0027320D01*
X0007300Y-0026920D01*
Y-0026520D01*
X0006900D01*
X0006500Y-0026920D01*
X0006100Y-0026520D01*
X0005700D01*
Y-0026920D01*
X0006100Y-0027320D01*
X0005700Y-0027720D01*
Y-0028120D01*
X0003000D02*
X0003400D01*
X0003800Y-0027720D01*
X0004200Y-0028120D01*
X0004600D01*
Y-0027720D01*
X0004200Y-0027320D01*
X0004600Y-0026920D01*
Y-0026520D01*
X0004200D01*
X0003800Y-0026920D01*
X0003400Y-0026520D01*
X0003000D01*
Y-0026920D01*
X0003400Y-0027320D01*
X0003000Y-0027720D01*
Y-0028120D01*
X-0000500Y-0002439D02*
X-0000100D01*
X0000300Y-0002039D01*
X0000700Y-0002439D01*
X0001100D01*
Y-0002039D01*
X0000700Y-0001639D01*
X0001100Y-0001239D01*
Y-0000839D01*
X0000700D01*
X0000300Y-0001239D01*
X-0000100Y-0000839D01*
X-0000500D01*
Y-0001239D01*
X-0000100Y-0001639D01*
X-0000500Y-0002039D01*
Y-0002439D01*
X0002200D02*
X0002600D01*
X0003000Y-0002039D01*
X0003400Y-0002439D01*
X0003800D01*
Y-0002039D01*
X0003400Y-0001639D01*
X0003800Y-0001239D01*
Y-0000839D01*
X0003400D01*
X0003000Y-0001239D01*
X0002600Y-0000839D01*
X0002200D01*
Y-0001239D01*
X0002600Y-0001639D01*
X0002200Y-0002039D01*
Y-0002439D01*
X0004900D02*
X0005300D01*
X0005700Y-0002039D01*
X0006100Y-0002439D01*
X0006500D01*
Y-0002039D01*
X0006100Y-0001639D01*
X0006500Y-0001239D01*
Y-0000839D01*
X0006100D01*
X0005700Y-0001239D01*
X0005300Y-0000839D01*
X0004900D01*
Y-0001239D01*
X0005300Y-0001639D01*
X0004900Y-0002039D01*
Y-0002439D01*
Y-0004720D02*
X0005300D01*
X0005700Y-0004320D01*
X0006100Y-0004720D01*
X0006500D01*
Y-0004320D01*
X0006100Y-0003920D01*
X0006500Y-0003520D01*
Y-0003120D01*
X0006100D01*
X0005700Y-0003520D01*
X0005300Y-0003120D01*
X0004900D01*
Y-0003520D01*
X0005300Y-0003920D01*
X0004900Y-0004320D01*
Y-0004720D01*
X0002200D02*
X0002600D01*
X0003000Y-0004320D01*
X0003400Y-0004720D01*
X0003800D01*
Y-0004320D01*
X0003400Y-0003920D01*
X0003800Y-0003520D01*
Y-0003120D01*
X0003400D01*
X0003000Y-0003520D01*
X0002600Y-0003120D01*
X0002200D01*
Y-0003520D01*
X0002600Y-0003920D01*
X0002200Y-0004320D01*
Y-0004720D01*
X-0000500D02*
X-0000100D01*
X0000300Y-0004320D01*
X0000700Y-0004720D01*
X0001100D01*
Y-0004320D01*
X0000700Y-0003920D01*
X0001100Y-0003520D01*
Y-0003120D01*
X0000700D01*
X0000300Y-0003520D01*
X-0000100Y-0003120D01*
X-0000500D01*
Y-0003520D01*
X-0000100Y-0003920D01*
X-0000500Y-0004320D01*
Y-0004720D01*
X0004900Y-0007000D02*
X0005300D01*
X0005700Y-0006600D01*
X0006100Y-0007000D01*
X0006500D01*
Y-0006600D01*
X0006100Y-0006200D01*
X0006500Y-0005800D01*
Y-0005400D01*
X0006100D01*
X0005700Y-0005800D01*
X0005300Y-0005400D01*
X0004900D01*
Y-0005800D01*
X0005300Y-0006200D01*
X0004900Y-0006600D01*
Y-0007000D01*
X0002200D02*
X0002600D01*
X0003000Y-0006600D01*
X0003400Y-0007000D01*
X0003800D01*
Y-0006600D01*
X0003400Y-0006200D01*
X0003800Y-0005800D01*
Y-0005400D01*
X0003400D01*
X0003000Y-0005800D01*
X0002600Y-0005400D01*
X0002200D01*
Y-0005800D01*
X0002600Y-0006200D01*
X0002200Y-0006600D01*
Y-0007000D01*
X-0000500D02*
X-0000100D01*
X0000300Y-0006600D01*
X0000700Y-0007000D01*
X0001100D01*
Y-0006600D01*
X0000700Y-0006200D01*
X0001100Y-0005800D01*
Y-0005400D01*
X0000700D01*
X0000300Y-0005800D01*
X-0000100Y-0005400D01*
X-0000500D01*
Y-0005800D01*
X-0000100Y-0006200D01*
X-0000500Y-0006600D01*
Y-0007000D01*
X0027965Y0006235D02*
X0028365D01*
X0028765Y0006635D01*
X0029165Y0006235D01*
X0029565D01*
Y0006635D01*
X0029165Y0007035D01*
X0029565Y0007435D01*
Y0007835D01*
X0029165D01*
X0028765Y0007435D01*
X0028365Y0007835D01*
X0027965D01*
Y0007435D01*
X0028365Y0007035D01*
X0027965Y0006635D01*
Y0006235D01*
X0033200Y-0016900D02*
X0033600D01*
X0034000Y-0016500D01*
X0034400Y-0016900D01*
X0034800D01*
Y-0016500D01*
X0034400Y-0016100D01*
X0034800Y-0015700D01*
Y-0015300D01*
X0034400D01*
X0034000Y-0015700D01*
X0033600Y-0015300D01*
X0033200D01*
Y-0015700D01*
X0033600Y-0016100D01*
X0033200Y-0016500D01*
Y-0016900D01*
X0030365Y-0007565D02*
X0030765D01*
X0031165Y-0007165D01*
X0031565Y-0007565D01*
X0031965D01*
Y-0007165D01*
X0031565Y-0006765D01*
X0031965Y-0006365D01*
Y-0005965D01*
X0031565D01*
X0031165Y-0006365D01*
X0030765Y-0005965D01*
X0030365D01*
Y-0006365D01*
X0030765Y-0006765D01*
X0030365Y-0007165D01*
Y-0007565D01*
X0008735Y-0005535D02*
X0009135D01*
X0009535Y-0005135D01*
X0009935Y-0005535D01*
X0010335D01*
Y-0005135D01*
X0009935Y-0004735D01*
X0010335Y-0004335D01*
Y-0003935D01*
X0009935D01*
X0009535Y-0004335D01*
X0009135Y-0003935D01*
X0008735D01*
Y-0004335D01*
X0009135Y-0004735D01*
X0008735Y-0005135D01*
Y-0005535D01*
X0011400Y-0007800D02*
X0011800D01*
X0012200Y-0007400D01*
X0012600Y-0007800D01*
X0013000D01*
Y-0007400D01*
X0012600Y-0007000D01*
X0013000Y-0006600D01*
Y-0006200D01*
X0012600D01*
X0012200Y-0006600D01*
X0011800Y-0006200D01*
X0011400D01*
Y-0006600D01*
X0011800Y-0007000D01*
X0011400Y-0007400D01*
Y-0007800D01*
X0008735Y-0007865D02*
X0009135D01*
X0009535Y-0007465D01*
X0009935Y-0007865D01*
X0010335D01*
Y-0007465D01*
X0009935Y-0007065D01*
X0010335Y-0006665D01*
Y-0006265D01*
X0009935D01*
X0009535Y-0006665D01*
X0009135Y-0006265D01*
X0008735D01*
Y-0006665D01*
X0009135Y-0007065D01*
X0008735Y-0007465D01*
Y-0007865D01*
X0005700Y-0012700D02*
X0006100D01*
X0006500Y-0012300D01*
X0006900Y-0012700D01*
X0007300D01*
Y-0012300D01*
X0006900Y-0011900D01*
X0007300Y-0011500D01*
Y-0011100D01*
X0006900D01*
X0006500Y-0011500D01*
X0006100Y-0011100D01*
X0005700D01*
Y-0011500D01*
X0006100Y-0011900D01*
X0005700Y-0012300D01*
Y-0012700D01*
X0002800Y-0015700D02*
X0003200D01*
X0003600Y-0015300D01*
X0004000Y-0015700D01*
X0004400D01*
Y-0015300D01*
X0004000Y-0014900D01*
X0004400Y-0014500D01*
Y-0014100D01*
X0004000D01*
X0003600Y-0014500D01*
X0003200Y-0014100D01*
X0002800D01*
Y-0014500D01*
X0003200Y-0014900D01*
X0002800Y-0015300D01*
Y-0015700D01*
Y-0012700D02*
X0003200D01*
X0003600Y-0012300D01*
X0004000Y-0012700D01*
X0004400D01*
Y-0012300D01*
X0004000Y-0011900D01*
X0004400Y-0011500D01*
Y-0011100D01*
X0004000D01*
X0003600Y-0011500D01*
X0003200Y-0011100D01*
X0002800D01*
Y-0011500D01*
X0003200Y-0011900D01*
X0002800Y-0012300D01*
Y-0012700D01*
X-0026200Y-0016200D02*
X-0025800D01*
X-0025400Y-0015800D01*
X-0025000Y-0016200D01*
X-0024600D01*
Y-0015800D01*
X-0025000Y-0015400D01*
X-0024600Y-0015000D01*
Y-0014600D01*
X-0025000D01*
X-0025400Y-0015000D01*
X-0025800Y-0014600D01*
X-0026200D01*
Y-0015000D01*
X-0025800Y-0015400D01*
X-0026200Y-0015800D01*
Y-0016200D01*
X-0030580Y-0011100D02*
X-0030180D01*
X-0029780Y-0010700D01*
X-0029380Y-0011100D01*
X-0028980D01*
Y-0010700D01*
X-0029380Y-0010300D01*
X-0028980Y-0009900D01*
Y-0009500D01*
X-0029380D01*
X-0029780Y-0009900D01*
X-0030180Y-0009500D01*
X-0030580D01*
Y-0009900D01*
X-0030180Y-0010300D01*
X-0030580Y-0010700D01*
Y-0011100D01*
X-0028300D02*
X-0027900D01*
X-0027500Y-0010700D01*
X-0027100Y-0011100D01*
X-0026700D01*
Y-0010700D01*
X-0027100Y-0010300D01*
X-0026700Y-0009900D01*
Y-0009500D01*
X-0027100D01*
X-0027500Y-0009900D01*
X-0027900Y-0009500D01*
X-0028300D01*
Y-0009900D01*
X-0027900Y-0010300D01*
X-0028300Y-0010700D01*
Y-0011100D01*
X-0021300D02*
X-0020900D01*
X-0020500Y-0010700D01*
X-0020100Y-0011100D01*
X-0019700D01*
Y-0010700D01*
X-0020100Y-0010300D01*
X-0019700Y-0009900D01*
Y-0009500D01*
X-0020100D01*
X-0020500Y-0009900D01*
X-0020900Y-0009500D01*
X-0021300D01*
Y-0009900D01*
X-0020900Y-0010300D01*
X-0021300Y-0010700D01*
Y-0011100D01*
X-0023580D02*
X-0023180D01*
X-0022780Y-0010700D01*
X-0022380Y-0011100D01*
X-0021980D01*
Y-0010700D01*
X-0022380Y-0010300D01*
X-0021980Y-0009900D01*
Y-0009500D01*
X-0022380D01*
X-0022780Y-0009900D01*
X-0023180Y-0009500D01*
X-0023580D01*
Y-0009900D01*
X-0023180Y-0010300D01*
X-0023580Y-0010700D01*
Y-0011100D01*
X-0007600Y0026420D02*
X-0007200D01*
X-0006800Y0026820D01*
X-0006400Y0026420D01*
X-0006000D01*
Y0026820D01*
X-0006400Y0027220D01*
X-0006000Y0027620D01*
Y0028020D01*
X-0006400D01*
X-0006800Y0027620D01*
X-0007200Y0028020D01*
X-0007600D01*
Y0027620D01*
X-0007200Y0027220D01*
X-0007600Y0026820D01*
Y0026420D01*
X-0010300D02*
X-0009900D01*
X-0009500Y0026820D01*
X-0009100Y0026420D01*
X-0008700D01*
Y0026820D01*
X-0009100Y0027220D01*
X-0008700Y0027620D01*
Y0028020D01*
X-0009100D01*
X-0009500Y0027620D01*
X-0009900Y0028020D01*
X-0010300D01*
Y0027620D01*
X-0009900Y0027220D01*
X-0010300Y0026820D01*
Y0026420D01*
X-0007600Y0028700D02*
X-0007200D01*
X-0006800Y0029100D01*
X-0006400Y0028700D01*
X-0006000D01*
Y0029100D01*
X-0006400Y0029500D01*
X-0006000Y0029900D01*
Y0030300D01*
X-0006400D01*
X-0006800Y0029900D01*
X-0007200Y0030300D01*
X-0007600D01*
Y0029900D01*
X-0007200Y0029500D01*
X-0007600Y0029100D01*
Y0028700D01*
X-0010300D02*
X-0009900D01*
X-0009500Y0029100D01*
X-0009100Y0028700D01*
X-0008700D01*
Y0029100D01*
X-0009100Y0029500D01*
X-0008700Y0029900D01*
Y0030300D01*
X-0009100D01*
X-0009500Y0029900D01*
X-0009900Y0030300D01*
X-0010300D01*
Y0029900D01*
X-0009900Y0029500D01*
X-0010300Y0029100D01*
Y0028700D01*
X-0004900Y0026420D02*
X-0004500D01*
X-0004100Y0026820D01*
X-0003700Y0026420D01*
X-0003300D01*
Y0026820D01*
X-0003700Y0027220D01*
X-0003300Y0027620D01*
Y0028020D01*
X-0003700D01*
X-0004100Y0027620D01*
X-0004500Y0028020D01*
X-0004900D01*
Y0027620D01*
X-0004500Y0027220D01*
X-0004900Y0026820D01*
Y0026420D01*
Y0028700D02*
X-0004500D01*
X-0004100Y0029100D01*
X-0003700Y0028700D01*
X-0003300D01*
Y0029100D01*
X-0003700Y0029500D01*
X-0003300Y0029900D01*
Y0030300D01*
X-0003700D01*
X-0004100Y0029900D01*
X-0004500Y0030300D01*
X-0004900D01*
Y0029900D01*
X-0004500Y0029500D01*
X-0004900Y0029100D01*
Y0028700D01*
X-0010300Y0034400D02*
X-0009900D01*
X-0009500Y0034800D01*
X-0009100Y0034400D01*
X-0008700D01*
Y0034800D01*
X-0009100Y0035200D01*
X-0008700Y0035600D01*
Y0036000D01*
X-0009100D01*
X-0009500Y0035600D01*
X-0009900Y0036000D01*
X-0010300D01*
Y0035600D01*
X-0009900Y0035200D01*
X-0010300Y0034800D01*
Y0034400D01*
X-0004900Y0032120D02*
X-0004500D01*
X-0004100Y0032520D01*
X-0003700Y0032120D01*
X-0003300D01*
Y0032520D01*
X-0003700Y0032920D01*
X-0003300Y0033320D01*
Y0033720D01*
X-0003700D01*
X-0004100Y0033320D01*
X-0004500Y0033720D01*
X-0004900D01*
Y0033320D01*
X-0004500Y0032920D01*
X-0004900Y0032520D01*
Y0032120D01*
X-0010300D02*
X-0009900D01*
X-0009500Y0032520D01*
X-0009100Y0032120D01*
X-0008700D01*
Y0032520D01*
X-0009100Y0032920D01*
X-0008700Y0033320D01*
Y0033720D01*
X-0009100D01*
X-0009500Y0033320D01*
X-0009900Y0033720D01*
X-0010300D01*
Y0033320D01*
X-0009900Y0032920D01*
X-0010300Y0032520D01*
Y0032120D01*
X-0007600Y0036680D02*
X-0007200D01*
X-0006800Y0037080D01*
X-0006400Y0036680D01*
X-0006000D01*
Y0037080D01*
X-0006400Y0037480D01*
X-0006000Y0037880D01*
Y0038280D01*
X-0006400D01*
X-0006800Y0037880D01*
X-0007200Y0038280D01*
X-0007600D01*
Y0037880D01*
X-0007200Y0037480D01*
X-0007600Y0037080D01*
Y0036680D01*
X-0004900D02*
X-0004500D01*
X-0004100Y0037080D01*
X-0003700Y0036680D01*
X-0003300D01*
Y0037080D01*
X-0003700Y0037480D01*
X-0003300Y0037880D01*
Y0038280D01*
X-0003700D01*
X-0004100Y0037880D01*
X-0004500Y0038280D01*
X-0004900D01*
Y0037880D01*
X-0004500Y0037480D01*
X-0004900Y0037080D01*
Y0036680D01*
Y0034400D02*
X-0004500D01*
X-0004100Y0034800D01*
X-0003700Y0034400D01*
X-0003300D01*
Y0034800D01*
X-0003700Y0035200D01*
X-0003300Y0035600D01*
Y0036000D01*
X-0003700D01*
X-0004100Y0035600D01*
X-0004500Y0036000D01*
X-0004900D01*
Y0035600D01*
X-0004500Y0035200D01*
X-0004900Y0034800D01*
Y0034400D01*
X-0007600Y0032120D02*
X-0007200D01*
X-0006800Y0032520D01*
X-0006400Y0032120D01*
X-0006000D01*
Y0032520D01*
X-0006400Y0032920D01*
X-0006000Y0033320D01*
Y0033720D01*
X-0006400D01*
X-0006800Y0033320D01*
X-0007200Y0033720D01*
X-0007600D01*
Y0033320D01*
X-0007200Y0032920D01*
X-0007600Y0032520D01*
Y0032120D01*
X-0010300Y0036680D02*
X-0009900D01*
X-0009500Y0037080D01*
X-0009100Y0036680D01*
X-0008700D01*
Y0037080D01*
X-0009100Y0037480D01*
X-0008700Y0037880D01*
Y0038280D01*
X-0009100D01*
X-0009500Y0037880D01*
X-0009900Y0038280D01*
X-0010300D01*
Y0037880D01*
X-0009900Y0037480D01*
X-0010300Y0037080D01*
Y0036680D01*
X-0007600Y0034400D02*
X-0007200D01*
X-0006800Y0034800D01*
X-0006400Y0034400D01*
X-0006000D01*
Y0034800D01*
X-0006400Y0035200D01*
X-0006000Y0035600D01*
Y0036000D01*
X-0006400D01*
X-0006800Y0035600D01*
X-0007200Y0036000D01*
X-0007600D01*
Y0035600D01*
X-0007200Y0035200D01*
X-0007600Y0034800D01*
Y0034400D01*
X-0006728Y0019128D02*
X-0006328D01*
X-0005928Y0019528D01*
X-0005528Y0019128D01*
X-0005128D01*
Y0019528D01*
X-0005528Y0019928D01*
X-0005128Y0020328D01*
Y0020728D01*
X-0005528D01*
X-0005928Y0020328D01*
X-0006328Y0020728D01*
X-0006728D01*
Y0020328D01*
X-0006328Y0019928D01*
X-0006728Y0019528D01*
Y0019128D01*
Y0016272D02*
X-0006328D01*
X-0005928Y0016672D01*
X-0005528Y0016272D01*
X-0005128D01*
Y0016672D01*
X-0005528Y0017072D01*
X-0005128Y0017472D01*
Y0017872D01*
X-0005528D01*
X-0005928Y0017472D01*
X-0006328Y0017872D01*
X-0006728D01*
Y0017472D01*
X-0006328Y0017072D01*
X-0006728Y0016672D01*
Y0016272D01*
X0027980Y-0041368D02*
X0028380D01*
X0028780Y-0040968D01*
X0029180Y-0041368D01*
X0029580D01*
Y-0040968D01*
X0029180Y-0040568D01*
X0029580Y-0040168D01*
Y-0039768D01*
X0029180D01*
X0028780Y-0040168D01*
X0028380Y-0039768D01*
X0027980D01*
Y-0040168D01*
X0028380Y-0040568D01*
X0027980Y-0040968D01*
Y-0041368D01*
Y-0038668D02*
X0028380D01*
X0028780Y-0038268D01*
X0029180Y-0038668D01*
X0029580D01*
Y-0038268D01*
X0029180Y-0037868D01*
X0029580Y-0037468D01*
Y-0037068D01*
X0029180D01*
X0028780Y-0037468D01*
X0028380Y-0037068D01*
X0027980D01*
Y-0037468D01*
X0028380Y-0037868D01*
X0027980Y-0038268D01*
Y-0038668D01*
X0025700Y-0041368D02*
X0026100D01*
X0026500Y-0040968D01*
X0026900Y-0041368D01*
X0027300D01*
Y-0040968D01*
X0026900Y-0040568D01*
X0027300Y-0040168D01*
Y-0039768D01*
X0026900D01*
X0026500Y-0040168D01*
X0026100Y-0039768D01*
X0025700D01*
Y-0040168D01*
X0026100Y-0040568D01*
X0025700Y-0040968D01*
Y-0041368D01*
Y-0038668D02*
X0026100D01*
X0026500Y-0038268D01*
X0026900Y-0038668D01*
X0027300D01*
Y-0038268D01*
X0026900Y-0037868D01*
X0027300Y-0037468D01*
Y-0037068D01*
X0026900D01*
X0026500Y-0037468D01*
X0026100Y-0037068D01*
X0025700D01*
Y-0037468D01*
X0026100Y-0037868D01*
X0025700Y-0038268D01*
Y-0038668D01*
X0023420Y-0035968D02*
X0023820D01*
X0024220Y-0035568D01*
X0024620Y-0035968D01*
X0025020D01*
Y-0035568D01*
X0024620Y-0035168D01*
X0025020Y-0034768D01*
Y-0034368D01*
X0024620D01*
X0024220Y-0034768D01*
X0023820Y-0034368D01*
X0023420D01*
Y-0034768D01*
X0023820Y-0035168D01*
X0023420Y-0035568D01*
Y-0035968D01*
Y-0038668D02*
X0023820D01*
X0024220Y-0038268D01*
X0024620Y-0038668D01*
X0025020D01*
Y-0038268D01*
X0024620Y-0037868D01*
X0025020Y-0037468D01*
Y-0037068D01*
X0024620D01*
X0024220Y-0037468D01*
X0023820Y-0037068D01*
X0023420D01*
Y-0037468D01*
X0023820Y-0037868D01*
X0023420Y-0038268D01*
Y-0038668D01*
Y-0041368D02*
X0023820D01*
X0024220Y-0040968D01*
X0024620Y-0041368D01*
X0025020D01*
Y-0040968D01*
X0024620Y-0040568D01*
X0025020Y-0040168D01*
Y-0039768D01*
X0024620D01*
X0024220Y-0040168D01*
X0023820Y-0039768D01*
X0023420D01*
Y-0040168D01*
X0023820Y-0040568D01*
X0023420Y-0040968D01*
Y-0041368D01*
X0027400Y-0034280D02*
X0027800D01*
X0028200Y-0033880D01*
X0028600Y-0034280D01*
X0029000D01*
Y-0033880D01*
X0028600Y-0033480D01*
X0029000Y-0033080D01*
Y-0032680D01*
X0028600D01*
X0028200Y-0033080D01*
X0027800Y-0032680D01*
X0027400D01*
Y-0033080D01*
X0027800Y-0033480D01*
X0027400Y-0033880D01*
Y-0034280D01*
X0030100D02*
X0030500D01*
X0030900Y-0033880D01*
X0031300Y-0034280D01*
X0031700D01*
Y-0033880D01*
X0031300Y-0033480D01*
X0031700Y-0033080D01*
Y-0032680D01*
X0031300D01*
X0030900Y-0033080D01*
X0030500Y-0032680D01*
X0030100D01*
Y-0033080D01*
X0030500Y-0033480D01*
X0030100Y-0033880D01*
Y-0034280D01*
X0032800D02*
X0033200D01*
X0033600Y-0033880D01*
X0034000Y-0034280D01*
X0034400D01*
Y-0033880D01*
X0034000Y-0033480D01*
X0034400Y-0033080D01*
Y-0032680D01*
X0034000D01*
X0033600Y-0033080D01*
X0033200Y-0032680D01*
X0032800D01*
Y-0033080D01*
X0033200Y-0033480D01*
X0032800Y-0033880D01*
Y-0034280D01*
X0027400Y-0032000D02*
X0027800D01*
X0028200Y-0031600D01*
X0028600Y-0032000D01*
X0029000D01*
Y-0031600D01*
X0028600Y-0031200D01*
X0029000Y-0030800D01*
Y-0030400D01*
X0028600D01*
X0028200Y-0030800D01*
X0027800Y-0030400D01*
X0027400D01*
Y-0030800D01*
X0027800Y-0031200D01*
X0027400Y-0031600D01*
Y-0032000D01*
X0030100D02*
X0030500D01*
X0030900Y-0031600D01*
X0031300Y-0032000D01*
X0031700D01*
Y-0031600D01*
X0031300Y-0031200D01*
X0031700Y-0030800D01*
Y-0030400D01*
X0031300D01*
X0030900Y-0030800D01*
X0030500Y-0030400D01*
X0030100D01*
Y-0030800D01*
X0030500Y-0031200D01*
X0030100Y-0031600D01*
Y-0032000D01*
X0032800D02*
X0033200D01*
X0033600Y-0031600D01*
X0034000Y-0032000D01*
X0034400D01*
Y-0031600D01*
X0034000Y-0031200D01*
X0034400Y-0030800D01*
Y-0030400D01*
X0034000D01*
X0033600Y-0030800D01*
X0033200Y-0030400D01*
X0032800D01*
Y-0030800D01*
X0033200Y-0031200D01*
X0032800Y-0031600D01*
Y-0032000D01*
Y-0029720D02*
X0033200D01*
X0033600Y-0029320D01*
X0034000Y-0029720D01*
X0034400D01*
Y-0029320D01*
X0034000Y-0028920D01*
X0034400Y-0028520D01*
Y-0028120D01*
X0034000D01*
X0033600Y-0028520D01*
X0033200Y-0028120D01*
X0032800D01*
Y-0028520D01*
X0033200Y-0028920D01*
X0032800Y-0029320D01*
Y-0029720D01*
X0030100D02*
X0030500D01*
X0030900Y-0029320D01*
X0031300Y-0029720D01*
X0031700D01*
Y-0029320D01*
X0031300Y-0028920D01*
X0031700Y-0028520D01*
Y-0028120D01*
X0031300D01*
X0030900Y-0028520D01*
X0030500Y-0028120D01*
X0030100D01*
Y-0028520D01*
X0030500Y-0028920D01*
X0030100Y-0029320D01*
Y-0029720D01*
X0027400D02*
X0027800D01*
X0028200Y-0029320D01*
X0028600Y-0029720D01*
X0029000D01*
Y-0029320D01*
X0028600Y-0028920D01*
X0029000Y-0028520D01*
Y-0028120D01*
X0028600D01*
X0028200Y-0028520D01*
X0027800Y-0028120D01*
X0027400D01*
Y-0028520D01*
X0027800Y-0028920D01*
X0027400Y-0029320D01*
Y-0029720D01*
X-0000500Y0003039D02*
X-0000100D01*
X0000300Y0003439D01*
X0000700Y0003039D01*
X0001100D01*
Y0003439D01*
X0000700Y0003839D01*
X0001100Y0004239D01*
Y0004639D01*
X0000700D01*
X0000300Y0004239D01*
X-0000100Y0004639D01*
X-0000500D01*
Y0004239D01*
X-0000100Y0003839D01*
X-0000500Y0003439D01*
Y0003039D01*
X0002200D02*
X0002600D01*
X0003000Y0003439D01*
X0003400Y0003039D01*
X0003800D01*
Y0003439D01*
X0003400Y0003839D01*
X0003800Y0004239D01*
Y0004639D01*
X0003400D01*
X0003000Y0004239D01*
X0002600Y0004639D01*
X0002200D01*
Y0004239D01*
X0002600Y0003839D01*
X0002200Y0003439D01*
Y0003039D01*
X0004900D02*
X0005300D01*
X0005700Y0003439D01*
X0006100Y0003039D01*
X0006500D01*
Y0003439D01*
X0006100Y0003839D01*
X0006500Y0004239D01*
Y0004639D01*
X0006100D01*
X0005700Y0004239D01*
X0005300Y0004639D01*
X0004900D01*
Y0004239D01*
X0005300Y0003839D01*
X0004900Y0003439D01*
Y0003039D01*
X-0000500Y0005320D02*
X-0000100D01*
X0000300Y0005720D01*
X0000700Y0005320D01*
X0001100D01*
Y0005720D01*
X0000700Y0006120D01*
X0001100Y0006520D01*
Y0006920D01*
X0000700D01*
X0000300Y0006520D01*
X-0000100Y0006920D01*
X-0000500D01*
Y0006520D01*
X-0000100Y0006120D01*
X-0000500Y0005720D01*
Y0005320D01*
X0002200D02*
X0002600D01*
X0003000Y0005720D01*
X0003400Y0005320D01*
X0003800D01*
Y0005720D01*
X0003400Y0006120D01*
X0003800Y0006520D01*
Y0006920D01*
X0003400D01*
X0003000Y0006520D01*
X0002600Y0006920D01*
X0002200D01*
Y0006520D01*
X0002600Y0006120D01*
X0002200Y0005720D01*
Y0005320D01*
X0004900D02*
X0005300D01*
X0005700Y0005720D01*
X0006100Y0005320D01*
X0006500D01*
Y0005720D01*
X0006100Y0006120D01*
X0006500Y0006520D01*
Y0006920D01*
X0006100D01*
X0005700Y0006520D01*
X0005300Y0006920D01*
X0004900D01*
Y0006520D01*
X0005300Y0006120D01*
X0004900Y0005720D01*
Y0005320D01*
Y0007600D02*
X0005300D01*
X0005700Y0008000D01*
X0006100Y0007600D01*
X0006500D01*
Y0008000D01*
X0006100Y0008400D01*
X0006500Y0008800D01*
Y0009200D01*
X0006100D01*
X0005700Y0008800D01*
X0005300Y0009200D01*
X0004900D01*
Y0008800D01*
X0005300Y0008400D01*
X0004900Y0008000D01*
Y0007600D01*
X0002200D02*
X0002600D01*
X0003000Y0008000D01*
X0003400Y0007600D01*
X0003800D01*
Y0008000D01*
X0003400Y0008400D01*
X0003800Y0008800D01*
Y0009200D01*
X0003400D01*
X0003000Y0008800D01*
X0002600Y0009200D01*
X0002200D01*
Y0008800D01*
X0002600Y0008400D01*
X0002200Y0008000D01*
Y0007600D01*
X-0000500D02*
X-0000100D01*
X0000300Y0008000D01*
X0000700Y0007600D01*
X0001100D01*
Y0008000D01*
X0000700Y0008400D01*
X0001100Y0008800D01*
Y0009200D01*
X0000700D01*
X0000300Y0008800D01*
X-0000100Y0009200D01*
X-0000500D01*
Y0008800D01*
X-0000100Y0008400D01*
X-0000500Y0008000D01*
Y0007600D01*
X0008735Y-0012935D02*
X0009135D01*
X0009535Y-0012535D01*
X0009935Y-0012935D01*
X0010335D01*
Y-0012535D01*
X0009935Y-0012135D01*
X0010335Y-0011735D01*
Y-0011335D01*
X0009935D01*
X0009535Y-0011735D01*
X0009135Y-0011335D01*
X0008735D01*
Y-0011735D01*
X0009135Y-0012135D01*
X0008735Y-0012535D01*
Y-0012935D01*
X0013235Y-0013935D02*
X0013635D01*
X0014035Y-0013535D01*
X0014435Y-0013935D01*
X0014835D01*
Y-0013535D01*
X0014435Y-0013135D01*
X0014835Y-0012735D01*
Y-0012335D01*
X0014435D01*
X0014035Y-0012735D01*
X0013635Y-0012335D01*
X0013235D01*
Y-0012735D01*
X0013635Y-0013135D01*
X0013235Y-0013535D01*
Y-0013935D01*
X0015800Y-0016600D02*
X0016200D01*
X0016600Y-0016200D01*
X0017000Y-0016600D01*
X0017400D01*
Y-0016200D01*
X0017000Y-0015800D01*
X0017400Y-0015400D01*
Y-0015000D01*
X0017000D01*
X0016600Y-0015400D01*
X0016200Y-0015000D01*
X0015800D01*
Y-0015400D01*
X0016200Y-0015800D01*
X0015800Y-0016200D01*
Y-0016600D01*
X0011500Y-0015700D02*
X0011900D01*
X0012300Y-0015300D01*
X0012700Y-0015700D01*
X0013100D01*
Y-0015300D01*
X0012700Y-0014900D01*
X0013100Y-0014500D01*
Y-0014100D01*
X0012700D01*
X0012300Y-0014500D01*
X0011900Y-0014100D01*
X0011500D01*
Y-0014500D01*
X0011900Y-0014900D01*
X0011500Y-0015300D01*
Y-0015700D01*
X0029513Y-0016695D02*
X0029913D01*
X0030313Y-0016295D01*
X0030713Y-0016695D01*
X0031113D01*
Y-0016295D01*
X0030713Y-0015895D01*
X0031113Y-0015495D01*
Y-0015095D01*
X0030713D01*
X0030313Y-0015495D01*
X0029913Y-0015095D01*
X0029513D01*
Y-0015495D01*
X0029913Y-0015895D01*
X0029513Y-0016295D01*
Y-0016695D01*
X0026000Y-0016400D02*
X0026400D01*
X0026800Y-0016000D01*
X0027200Y-0016400D01*
X0027600D01*
Y-0016000D01*
X0027200Y-0015600D01*
X0027600Y-0015200D01*
Y-0014800D01*
X0027200D01*
X0026800Y-0015200D01*
X0026400Y-0014800D01*
X0026000D01*
Y-0015200D01*
X0026400Y-0015600D01*
X0026000Y-0016000D01*
Y-0016400D01*
X0030984Y0006418D02*
X0031384D01*
X0031784Y0006818D01*
X0032184Y0006418D01*
X0032584D01*
Y0006818D01*
X0032184Y0007218D01*
X0032584Y0007618D01*
Y0008018D01*
X0032184D01*
X0031784Y0007618D01*
X0031384Y0008018D01*
X0030984D01*
Y0007618D01*
X0031384Y0007218D01*
X0030984Y0006818D01*
Y0006418D01*
X0033341Y0006453D02*
X0033741D01*
X0034141Y0006853D01*
X0034541Y0006453D01*
X0034941D01*
Y0006853D01*
X0034541Y0007253D01*
X0034941Y0007653D01*
Y0008053D01*
X0034541D01*
X0034141Y0007653D01*
X0033741Y0008053D01*
X0033341D01*
Y0007653D01*
X0033741Y0007253D01*
X0033341Y0006853D01*
Y0006453D01*
X0012965Y-0010865D02*
X0013365D01*
X0013765Y-0010465D01*
X0014165Y-0010865D01*
X0014565D01*
Y-0010465D01*
X0014165Y-0010065D01*
X0014565Y-0009665D01*
Y-0009265D01*
X0014165D01*
X0013765Y-0009665D01*
X0013365Y-0009265D01*
X0012965D01*
Y-0009665D01*
X0013365Y-0010065D01*
X0012965Y-0010465D01*
Y-0010865D01*
X0035772Y-0010628D02*
X0036172D01*
X0036572Y-0010228D01*
X0036972Y-0010628D01*
X0037372D01*
Y-0010228D01*
X0036972Y-0009828D01*
X0037372Y-0009428D01*
Y-0009028D01*
X0036972D01*
X0036572Y-0009428D01*
X0036172Y-0009028D01*
X0035772D01*
Y-0009428D01*
X0036172Y-0009828D01*
X0035772Y-0010228D01*
Y-0010628D01*
X0035600Y-0005300D02*
X0036000D01*
X0036400Y-0004900D01*
X0036800Y-0005300D01*
X0037200D01*
Y-0004900D01*
X0036800Y-0004500D01*
X0037200Y-0004100D01*
Y-0003700D01*
X0036800D01*
X0036400Y-0004100D01*
X0036000Y-0003700D01*
X0035600D01*
Y-0004100D01*
X0036000Y-0004500D01*
X0035600Y-0004900D01*
Y-0005300D01*
X0035836Y-0001500D02*
X0036236D01*
X0036636Y-0001100D01*
X0037036Y-0001500D01*
X0037436D01*
Y-0001100D01*
X0037036Y-0000700D01*
X0037436Y-0000300D01*
Y0000100D01*
X0037036D01*
X0036636Y-0000300D01*
X0036236Y0000100D01*
X0035836D01*
Y-0000300D01*
X0036236Y-0000700D01*
X0035836Y-0001100D01*
Y-0001500D01*
X0035600Y0002200D02*
X0036000D01*
X0036400Y0002600D01*
X0036800Y0002200D01*
X0037200D01*
Y0002600D01*
X0036800Y0003000D01*
X0037200Y0003400D01*
Y0003800D01*
X0036800D01*
X0036400Y0003400D01*
X0036000Y0003800D01*
X0035600D01*
Y0003400D01*
X0036000Y0003000D01*
X0035600Y0002600D01*
Y0002200D01*
X0010865Y0006335D02*
X0011265D01*
X0011665Y0006735D01*
X0012065Y0006335D01*
X0012465D01*
Y0006735D01*
X0012065Y0007135D01*
X0012465Y0007535D01*
Y0007935D01*
X0012065D01*
X0011665Y0007535D01*
X0011265Y0007935D01*
X0010865D01*
Y0007535D01*
X0011265Y0007135D01*
X0010865Y0006735D01*
Y0006335D01*
X0019400Y-0002500D02*
X0019800D01*
X0020200Y-0002100D01*
X0020600Y-0002500D01*
X0021000D01*
Y-0002100D01*
X0020600Y-0001700D01*
X0021000Y-0001300D01*
Y-0000900D01*
X0020600D01*
X0020200Y-0001300D01*
X0019800Y-0000900D01*
X0019400D01*
Y-0001300D01*
X0019800Y-0001700D01*
X0019400Y-0002100D01*
Y-0002500D01*
X0022600D02*
X0023000D01*
X0023400Y-0002100D01*
X0023800Y-0002500D01*
X0024200D01*
Y-0002100D01*
X0023800Y-0001700D01*
X0024200Y-0001300D01*
Y-0000900D01*
X0023800D01*
X0023400Y-0001300D01*
X0023000Y-0000900D01*
X0022600D01*
Y-0001300D01*
X0023000Y-0001700D01*
X0022600Y-0002100D01*
Y-0002500D01*
Y0000900D02*
X0023000D01*
X0023400Y0001300D01*
X0023800Y0000900D01*
X0024200D01*
Y0001300D01*
X0023800Y0001700D01*
X0024200Y0002100D01*
Y0002500D01*
X0023800D01*
X0023400Y0002100D01*
X0023000Y0002500D01*
X0022600D01*
Y0002100D01*
X0023000Y0001700D01*
X0022600Y0001300D01*
Y0000900D01*
X0019300Y0001000D02*
X0019700D01*
X0020100Y0001400D01*
X0020500Y0001000D01*
X0020900D01*
Y0001400D01*
X0020500Y0001800D01*
X0020900Y0002200D01*
Y0002600D01*
X0020500D01*
X0020100Y0002200D01*
X0019700Y0002600D01*
X0019300D01*
Y0002200D01*
X0019700Y0001800D01*
X0019300Y0001400D01*
Y0001000D01*
X0008600Y-0002465D02*
X0009000D01*
X0009400Y-0002065D01*
X0009800Y-0002465D01*
X0010200D01*
Y-0002065D01*
X0009800Y-0001665D01*
X0010200Y-0001265D01*
Y-0000865D01*
X0009800D01*
X0009400Y-0001265D01*
X0009000Y-0000865D01*
X0008600D01*
Y-0001265D01*
X0009000Y-0001665D01*
X0008600Y-0002065D01*
Y-0002465D01*
X0015323Y0012778D02*
X0015723D01*
X0016123Y0013178D01*
X0016523Y0012778D01*
X0016923D01*
Y0013178D01*
X0016523Y0013578D01*
X0016923Y0013978D01*
Y0014378D01*
X0016523D01*
X0016123Y0013978D01*
X0015723Y0014378D01*
X0015323D01*
Y0013978D01*
X0015723Y0013578D01*
X0015323Y0013178D01*
Y0012778D01*
X0023476D02*
X0023876D01*
X0024276Y0013178D01*
X0024676Y0012778D01*
X0025076D01*
Y0013178D01*
X0024676Y0013578D01*
X0025076Y0013978D01*
Y0014378D01*
X0024676D01*
X0024276Y0013978D01*
X0023876Y0014378D01*
X0023476D01*
Y0013978D01*
X0023876Y0013578D01*
X0023476Y0013178D01*
Y0012778D01*
X0020791Y0040102D02*
X0021192D01*
X0021591Y0040502D01*
X0021992Y0040102D01*
X0022391D01*
Y0040502D01*
X0021992Y0040902D01*
X0022391Y0041302D01*
Y0041702D01*
X0021992D01*
X0021591Y0041302D01*
X0021192Y0041702D01*
X0020791D01*
Y0041302D01*
X0021192Y0040902D01*
X0020791Y0040502D01*
Y0040102D01*
X0023476Y0039564D02*
X0023876D01*
X0024276Y0039964D01*
X0024676Y0039564D01*
X0025076D01*
Y0039964D01*
X0024676Y0040364D01*
X0025076Y0040764D01*
Y0041164D01*
X0024676D01*
X0024276Y0040764D01*
X0023876Y0041164D01*
X0023476D01*
Y0040764D01*
X0023876Y0040364D01*
X0023476Y0039964D01*
Y0039564D01*
X0015323D02*
X0015723D01*
X0016123Y0039964D01*
X0016523Y0039564D01*
X0016923D01*
Y0039964D01*
X0016523Y0040364D01*
X0016923Y0040764D01*
Y0041164D01*
X0016523D01*
X0016123Y0040764D01*
X0015723Y0041164D01*
X0015323D01*
Y0040764D01*
X0015723Y0040364D01*
X0015323Y0039964D01*
Y0039564D01*
X0018008Y0040102D02*
X0018408D01*
X0018808Y0040502D01*
X0019208Y0040102D01*
X0019608D01*
Y0040502D01*
X0019208Y0040902D01*
X0019608Y0041302D01*
Y0041702D01*
X0019208D01*
X0018808Y0041302D01*
X0018408Y0041702D01*
X0018008D01*
Y0041302D01*
X0018408Y0040902D01*
X0018008Y0040502D01*
Y0040102D01*
X0033330Y0024780D02*
X0033730D01*
X0034130Y0025179D01*
X0034530Y0024780D01*
X0034930D01*
Y0025179D01*
X0034530Y0025580D01*
X0034930Y0025980D01*
Y0026379D01*
X0034530D01*
X0034130Y0025980D01*
X0033730Y0026379D01*
X0033330D01*
Y0025980D01*
X0033730Y0025580D01*
X0033330Y0025179D01*
Y0024780D01*
X0032793Y0022095D02*
X0033193D01*
X0033593Y0022495D01*
X0033993Y0022095D01*
X0034393D01*
Y0022495D01*
X0033993Y0022895D01*
X0034393Y0023295D01*
Y0023695D01*
X0033993D01*
X0033593Y0023295D01*
X0033193Y0023695D01*
X0032793D01*
Y0023295D01*
X0033193Y0022895D01*
X0032793Y0022495D01*
Y0022095D01*
Y0030248D02*
X0033193D01*
X0033593Y0030648D01*
X0033993Y0030248D01*
X0034393D01*
Y0030648D01*
X0033993Y0031048D01*
X0034393Y0031448D01*
Y0031848D01*
X0033993D01*
X0033593Y0031448D01*
X0033193Y0031848D01*
X0032793D01*
Y0031448D01*
X0033193Y0031048D01*
X0032793Y0030648D01*
Y0030248D01*
X0033330Y0027563D02*
X0033730D01*
X0034130Y0027963D01*
X0034530Y0027563D01*
X0034930D01*
Y0027963D01*
X0034530Y0028363D01*
X0034930Y0028763D01*
Y0029163D01*
X0034530D01*
X0034130Y0028763D01*
X0033730Y0029163D01*
X0033330D01*
Y0028763D01*
X0033730Y0028363D01*
X0033330Y0027963D01*
Y0027563D01*
X0005469Y0024780D02*
X0005869D01*
X0006269Y0025179D01*
X0006669Y0024780D01*
X0007069D01*
Y0025179D01*
X0006669Y0025580D01*
X0007069Y0025980D01*
Y0026379D01*
X0006669D01*
X0006269Y0025980D01*
X0005869Y0026379D01*
X0005469D01*
Y0025980D01*
X0005869Y0025580D01*
X0005469Y0025179D01*
Y0024780D01*
X0006007Y0022095D02*
X0006407D01*
X0006807Y0022495D01*
X0007207Y0022095D01*
X0007607D01*
Y0022495D01*
X0007207Y0022895D01*
X0007607Y0023295D01*
Y0023695D01*
X0007207D01*
X0006807Y0023295D01*
X0006407Y0023695D01*
X0006007D01*
Y0023295D01*
X0006407Y0022895D01*
X0006007Y0022495D01*
Y0022095D01*
Y0030248D02*
X0006407D01*
X0006807Y0030648D01*
X0007207Y0030248D01*
X0007607D01*
Y0030648D01*
X0007207Y0031048D01*
X0007607Y0031448D01*
Y0031848D01*
X0007207D01*
X0006807Y0031448D01*
X0006407Y0031848D01*
X0006007D01*
Y0031448D01*
X0006407Y0031048D01*
X0006007Y0030648D01*
Y0030248D01*
X0005469Y0027563D02*
X0005869D01*
X0006269Y0027963D01*
X0006669Y0027563D01*
X0007069D01*
Y0027963D01*
X0006669Y0028363D01*
X0007069Y0028763D01*
Y0029163D01*
X0006669D01*
X0006269Y0028763D01*
X0005869Y0029163D01*
X0005469D01*
Y0028763D01*
X0005869Y0028363D01*
X0005469Y0027963D01*
Y0027563D01*
D81*
X-0015888Y0002792D02*
G03*
X-0015888Y0002792I-0000800J0000000D01*
G01*
Y0036808D02*
G03*
X-0015888Y0036808I-0000800J0000000D01*
G01*
M02*
